<?xml version="1.0" encoding="utf-8" standalone="no"?>
<svg xmlns="http://www.w3.org/2000/svg" version="1.1" x="0in" y="0in" width="1.1in" height="2.5in" viewBox="0.36 0.361 79 180">
	<g id="schematic">
		<rect class="interior rect" x="14.76" y="14.761" fill="#FFFFFF" stroke="#000000" stroke-width="0.317" stroke-miterlimit="10" width="50.4" height="165.6"/>
		<line class="pin" id="connector0pin" fill="none" stroke="#787878" stroke-width="0.247" stroke-miterlimit="10" x1="14.76" y1="21.961" x2="0.36" y2="21.961"/>
		<line class="pin" id="connector1pin" fill="none" stroke="#787878" stroke-width="0.247" stroke-miterlimit="10" x1="14.76" y1="29.161" x2="0.36" y2="29.161"/>
		<line class="pin" id="connector2pin" fill="none" stroke="#787878" stroke-width="0.247" stroke-miterlimit="10" x1="14.76" y1="36.36" x2="0.36" y2="36.36"/>
		<line class="pin" id="connector3pin" fill="none" stroke="#787878" stroke-width="0.247" stroke-miterlimit="10" x1="14.76" y1="43.56" x2="0.36" y2="43.56"/>
		<line class="pin" id="connector4pin" fill="none" stroke="#787878" stroke-width="0.247" stroke-miterlimit="10" x1="14.76" y1="50.76" x2="0.36" y2="50.76"/>
		<line class="pin" id="connector5pin" fill="none" stroke="#787878" stroke-width="0.247" stroke-miterlimit="10" x1="14.76" y1="57.959" x2="0.36" y2="57.959"/>
		<line class="pin" id="connector6pin" fill="none" stroke="#787878" stroke-width="0.247" stroke-miterlimit="10" x1="14.76" y1="65.159" x2="0.36" y2="65.159"/>
		<line class="pin" id="connector7pin" fill="none" stroke="#787878" stroke-width="0.247" stroke-miterlimit="10" x1="14.76" y1="72.359" x2="0.36" y2="72.359"/>
		<line class="pin" id="connector8pin" fill="none" stroke="#787878" stroke-width="0.247" stroke-miterlimit="10" x1="14.76" y1="79.559" x2="0.36" y2="79.559"/>
		<line class="pin" id="connector9pin" fill="none" stroke="#787878" stroke-width="0.247" stroke-miterlimit="10" x1="14.76" y1="86.758" x2="0.36" y2="86.758"/>
		<line class="pin" id="connector10pin" fill="none" stroke="#787878" stroke-width="0.247" stroke-miterlimit="10" x1="14.76" y1="93.958" x2="0.36" y2="93.958"/>
		<line class="pin" id="connector11pin" fill="none" stroke="#787878" stroke-width="0.247" stroke-miterlimit="10" x1="14.76" y1="101.158" x2="0.36" y2="101.158"/>
		<line class="pin" id="connector12pin" fill="none" stroke="#787878" stroke-width="0.247" stroke-miterlimit="10" x1="14.76" y1="108.357" x2="0.36" y2="108.357"/>
		<line class="pin" id="connector13pin" fill="none" stroke="#787878" stroke-width="0.247" stroke-miterlimit="10" x1="14.76" y1="115.556" x2="0.36" y2="115.556"/>
		<line class="pin" id="connector14pin" fill="none" stroke="#787878" stroke-width="0.247" stroke-miterlimit="10" x1="14.76" y1="122.755" x2="0.36" y2="122.755"/>
		<line class="pin" id="connector15pin" fill="none" stroke="#787878" stroke-width="0.247" stroke-miterlimit="10" x1="14.76" y1="129.955" x2="0.36" y2="129.955"/>
		<line class="pin" id="connector16pin" fill="none" stroke="#787878" stroke-width="0.247" stroke-miterlimit="10" x1="14.76" y1="137.154" x2="0.36" y2="137.154"/>
		<line class="pin" id="connector17pin" fill="none" stroke="#787878" stroke-width="0.247" stroke-miterlimit="10" x1="14.76" y1="144.353" x2="0.36" y2="144.353"/>
		<line class="pin" id="connector18pin" fill="none" stroke="#787878" stroke-width="0.247" stroke-miterlimit="10" x1="14.76" y1="151.552" x2="0.36" y2="151.552"/>
		<line class="pin" id="connector19pin" fill="none" stroke="#787878" stroke-width="0.247" stroke-miterlimit="10" x1="14.76" y1="158.751" x2="0.36" y2="158.751"/>
		<line class="pin" id="connector20pin" fill="none" stroke="#787878" stroke-width="0.247" stroke-miterlimit="10" x1="14.76" y1="165.951" x2="0.36" y2="165.951"/>
		<line class="pin" id="connector21pin" fill="none" stroke="#787878" stroke-width="0.247" stroke-miterlimit="10" x1="14.76" y1="173.15" x2="0.36" y2="173.15"/>
		<line class="pin" id="connector22pin" fill="none" stroke="#787878" stroke-width="0.247" stroke-miterlimit="10" x1="79.56" y1="173.161" x2="65.16" y2="173.161"/>
		<line class="pin" id="connector23pin" fill="none" stroke="#787878" stroke-width="0.247" stroke-miterlimit="10" x1="79.56" y1="165.961" x2="65.16" y2="165.961"/>
		<line class="pin" id="connector24pin" fill="none" stroke="#787878" stroke-width="0.247" stroke-miterlimit="10" x1="79.56" y1="158.762" x2="65.16" y2="158.762"/>
		<line class="pin" id="connector25pin" fill="none" stroke="#787878" stroke-width="0.247" stroke-miterlimit="10" x1="79.56" y1="151.563" x2="65.16" y2="151.563"/>
		<line class="pin" id="connector26pin" fill="none" stroke="#787878" stroke-width="0.247" stroke-miterlimit="10" x1="79.56" y1="144.364" x2="65.16" y2="144.364"/>
		<line class="pin" id="connector27pin" fill="none" stroke="#787878" stroke-width="0.247" stroke-miterlimit="10" x1="79.56" y1="137.165" x2="65.16" y2="137.165"/>
		<line class="pin" id="connector28pin" fill="none" stroke="#787878" stroke-width="0.247" stroke-miterlimit="10" x1="79.56" y1="129.965" x2="65.16" y2="129.965"/>
		<line class="pin" id="connector29pin" fill="none" stroke="#787878" stroke-width="0.247" stroke-miterlimit="10" x1="79.56" y1="122.766" x2="65.16" y2="122.766"/>
		<line class="pin" id="connector30pin" fill="none" stroke="#787878" stroke-width="0.247" stroke-miterlimit="10" x1="79.56" y1="115.567" x2="65.16" y2="115.567"/>
		<line class="pin" id="connector31pin" fill="none" stroke="#787878" stroke-width="0.247" stroke-miterlimit="10" x1="79.56" y1="108.368" x2="65.16" y2="108.368"/>
		<line class="pin" id="connector32pin" fill="none" stroke="#787878" stroke-width="0.247" stroke-miterlimit="10" x1="79.56" y1="101.168" x2="65.16" y2="101.168"/>
		<line class="pin" id="connector33pin" fill="none" stroke="#787878" stroke-width="0.247" stroke-miterlimit="10" x1="79.56" y1="93.969" x2="65.16" y2="93.969"/>
		<line class="pin" id="connector34pin" fill="none" stroke="#787878" stroke-width="0.247" stroke-miterlimit="10" x1="79.56" y1="86.77" x2="65.16" y2="86.77"/>
		<line class="pin" id="connector35pin" fill="none" stroke="#787878" stroke-width="0.247" stroke-miterlimit="10" x1="79.56" y1="79.57" x2="65.16" y2="79.57"/>
		<line class="pin" id="connector36pin" fill="none" stroke="#787878" stroke-width="0.247" stroke-miterlimit="10" x1="79.56" y1="72.37" x2="65.16" y2="72.37"/>
		<line class="pin" id="connector37pin" fill="none" stroke="#787878" stroke-width="0.247" stroke-miterlimit="10" x1="79.56" y1="65.17" x2="65.16" y2="65.17"/>
		<line class="pin" id="connector38pin" fill="none" stroke="#787878" stroke-width="0.247" stroke-miterlimit="10" x1="79.56" y1="57.971" x2="65.16" y2="57.971"/>
		<line class="pin" id="connector39pin" fill="none" stroke="#787878" stroke-width="0.247" stroke-miterlimit="10" x1="79.56" y1="50.771" x2="65.16" y2="50.771"/>
		<line class="pin" id="connector40pin" fill="none" stroke="#787878" stroke-width="0.247" stroke-miterlimit="10" x1="79.56" y1="43.571" x2="65.16" y2="43.571"/>
		<line class="pin" id="connector41pin" fill="none" stroke="#787878" stroke-width="0.247" stroke-miterlimit="10" x1="79.56" y1="36.372" x2="65.16" y2="36.372"/>
		<line class="pin" id="connector42pin" fill="none" stroke="#787878" stroke-width="0.247" stroke-miterlimit="10" x1="79.56" y1="29.172" x2="65.16" y2="29.172"/>
		<line class="pin" id="connector43pin" fill="none" stroke="#787878" stroke-width="0.247" stroke-miterlimit="10" x1="79.56" y1="21.972" x2="65.16" y2="21.972"/>
		<line class="pin" id="connector44pin" fill="none" stroke="#787878" stroke-width="0.247" stroke-miterlimit="10" x1="57.958" y1="14.759" x2="57.958" y2="0.359"/>
		<line class="pin" id="connector45pin" fill="none" stroke="#787878" stroke-width="0.247" stroke-miterlimit="10" x1="50.759" y1="14.759" x2="50.759" y2="0.359"/>
		<line class="pin" id="connector46pin" fill="none" stroke="#787878" stroke-width="0.247" stroke-miterlimit="10" x1="43.56" y1="14.76" x2="43.56" y2="0.36"/>
		<line class="pin" id="connector47pin" fill="none" stroke="#787878" stroke-width="0.247" stroke-miterlimit="10" x1="36.36" y1="14.76" x2="36.36" y2="0.36"/>
		<line class="pin" id="connector48pin" fill="none" stroke="#787878" stroke-width="0.247" stroke-miterlimit="10" x1="29.16" y1="14.761" x2="29.16" y2="0.361"/>
		<line class="pin" id="connector49pin" fill="none" stroke="#787878" stroke-width="0.247" stroke-miterlimit="10" x1="21.96" y1="14.761" x2="21.96" y2="0.361"/>
		<text class="text" transform="matrix(1 0 0 1 6.8652 20.9141)" fill="#8C8C8C" font-family="'Droid Sans'" font-size="2.5">1</text>
		<text class="text" transform="matrix(1 0 0 1 6.8652 28.1143)" fill="#8C8C8C" font-family="'Droid Sans'" font-size="2.5">2</text>
		<text class="text" transform="matrix(1 0 0 1 6.8652 35.314)" fill="#8C8C8C" font-family="'Droid Sans'" font-size="2.5">3</text>
		<text class="text" transform="matrix(1 0 0 1 6.8652 42.5142)" fill="#8C8C8C" font-family="'Droid Sans'" font-size="2.5">4</text>
		<text class="text" transform="matrix(1 0 0 1 6.8652 49.7144)" fill="#8C8C8C" font-family="'Droid Sans'" font-size="2.5">5</text>
		<text class="text" transform="matrix(1 0 0 1 6.8652 56.9141)" fill="#8C8C8C" font-family="'Droid Sans'" font-size="2.5">6</text>
		<text class="text" transform="matrix(1 0 0 1 6.8652 64.1143)" fill="#8C8C8C" font-family="'Droid Sans'" font-size="2.5">7</text>
		<text class="text" transform="matrix(1 0 0 1 6.8652 71.314)" fill="#8C8C8C" font-family="'Droid Sans'" font-size="2.5">8</text>
		<text class="text" transform="matrix(1 0 0 1 6.8652 78.5142)" fill="#8C8C8C" font-family="'Droid Sans'" font-size="2.5">9</text>
		<text class="text" transform="matrix(1 0 0 1 6.1699 85.7144)" fill="#8C8C8C" font-family="'Droid Sans'" font-size="2.5">10</text>
		<text class="text" transform="matrix(1 0 0 1 6.1699 92.9146)" fill="#8C8C8C" font-family="'Droid Sans'" font-size="2.5">11</text>
		<text class="text" transform="matrix(1 0 0 1 6.1699 100.1138)" fill="#8C8C8C" font-family="'Droid Sans'" font-size="2.5">12</text>
		<text class="text" transform="matrix(1 0 0 1 6.1699 107.314)" fill="#8C8C8C" font-family="'Droid Sans'" font-size="2.5">13</text>
		<text class="text" transform="matrix(1 0 0 1 6.1699 114.5142)" fill="#8C8C8C" font-family="'Droid Sans'" font-size="2.5">14</text>
		<text class="text" transform="matrix(1 0 0 1 6.1699 121.7144)" fill="#8C8C8C" font-family="'Droid Sans'" font-size="2.5">15</text>
		<text class="text" transform="matrix(1 0 0 1 6.1699 128.9146)" fill="#8C8C8C" font-family="'Droid Sans'" font-size="2.5">16</text>
		<text class="text" transform="matrix(1 0 0 1 6.1699 136.1147)" fill="#8C8C8C" font-family="'Droid Sans'" font-size="2.5">17</text>
		<text class="text" transform="matrix(1 0 0 1 6.1699 143.314)" fill="#8C8C8C" font-family="'Droid Sans'" font-size="2.5">18</text>
		<text class="text" transform="matrix(1 0 0 1 6.1699 150.5142)" fill="#8C8C8C" font-family="'Droid Sans'" font-size="2.5">19</text>
		<text class="text" transform="matrix(1 0 0 1 6.1699 157.7144)" fill="#8C8C8C" font-family="'Droid Sans'" font-size="2.5">20</text>
		<text class="text" transform="matrix(1 0 0 1 6.1699 164.9146)" fill="#8C8C8C" font-family="'Droid Sans'" font-size="2.5">21</text>
		<text class="text" transform="matrix(1 0 0 1 6.1699 172.1147)" fill="#8C8C8C" font-family="'Droid Sans'" font-size="2.5">22</text>
		<text class="text" transform="matrix(1 0 0 1 70.9697 172.1147)" fill="#8C8C8C" font-family="'Droid Sans'" font-size="2.5">23</text>
		<text class="text" transform="matrix(1 0 0 1 70.9697 164.9146)" fill="#8C8C8C" font-family="'Droid Sans'" font-size="2.5">24</text>
		<text class="text" transform="matrix(1 0 0 1 70.9697 157.7144)" fill="#8C8C8C" font-family="'Droid Sans'" font-size="2.5">25</text>
		<text class="text" transform="matrix(1 0 0 1 70.9697 150.5142)" fill="#8C8C8C" font-family="'Droid Sans'" font-size="2.5">26</text>
		<text class="text" transform="matrix(1 0 0 1 70.9697 143.314)" fill="#8C8C8C" font-family="'Droid Sans'" font-size="2.5">27</text>
		<text class="text" transform="matrix(1 0 0 1 70.9697 136.1147)" fill="#8C8C8C" font-family="'Droid Sans'" font-size="2.5">28</text>
		<text class="text" transform="matrix(1 0 0 1 70.9697 128.9146)" fill="#8C8C8C" font-family="'Droid Sans'" font-size="2.5">29</text>
		<text class="text" transform="matrix(1 0 0 1 70.9697 121.7144)" fill="#8C8C8C" font-family="'Droid Sans'" font-size="2.5">30</text>
		<text class="text" transform="matrix(1 0 0 1 70.9697 114.5142)" fill="#8C8C8C" font-family="'Droid Sans'" font-size="2.5">31</text>
		<text class="text" transform="matrix(1 0 0 1 70.9697 107.314)" fill="#8C8C8C" font-family="'Droid Sans'" font-size="2.5">32</text>
		<text class="text" transform="matrix(1 0 0 1 70.9697 100.1138)" fill="#8C8C8C" font-family="'Droid Sans'" font-size="2.5">33</text>
		<text class="text" transform="matrix(1 0 0 1 70.9697 92.9146)" fill="#8C8C8C" font-family="'Droid Sans'" font-size="2.5">34</text>
		<text class="text" transform="matrix(1 0 0 1 70.9697 85.7144)" fill="#8C8C8C" font-family="'Droid Sans'" font-size="2.5">35</text>
		<text class="text" transform="matrix(1 0 0 1 70.9697 78.5142)" fill="#8C8C8C" font-family="'Droid Sans'" font-size="2.5">36</text>
		<text class="text" transform="matrix(1 0 0 1 70.9697 71.314)" fill="#8C8C8C" font-family="'Droid Sans'" font-size="2.5">37</text>
		<text class="text" transform="matrix(1 0 0 1 70.9697 64.1143)" fill="#8C8C8C" font-family="'Droid Sans'" font-size="2.5">38</text>
		<text class="text" transform="matrix(1 0 0 1 70.9697 56.9141)" fill="#8C8C8C" font-family="'Droid Sans'" font-size="2.5">39</text>
		<text class="text" transform="matrix(1 0 0 1 70.9697 49.7144)" fill="#8C8C8C" font-family="'Droid Sans'" font-size="2.5">40</text>
		<text class="text" transform="matrix(1 0 0 1 70.9697 42.5142)" fill="#8C8C8C" font-family="'Droid Sans'" font-size="2.5">41</text>
		<text class="text" transform="matrix(1 0 0 1 70.9697 35.314)" fill="#8C8C8C" font-family="'Droid Sans'" font-size="2.5">42</text>
		<text class="text" transform="matrix(1 0 0 1 70.9697 28.1143)" fill="#8C8C8C" font-family="'Droid Sans'" font-size="2.5">43</text>
		<text class="text" transform="matrix(1 0 0 1 70.9697 20.9141)" fill="#8C8C8C" font-family="'Droid Sans'" font-size="2.5">44</text>
		<text class="text" transform="matrix(1 0 0 1 58.8604 7.9976)" fill="#8C8C8C" font-family="'Droid Sans'" font-size="2.5">45</text>
		<text class="text" transform="matrix(1 0 0 1 51.6602 7.9976)" fill="#8C8C8C" font-family="'Droid Sans'" font-size="2.5">46</text>
		<text class="text" transform="matrix(1 0 0 1 44.46 7.9976)" fill="#8C8C8C" font-family="'Droid Sans'" font-size="2.5">47</text>
		<text class="text" transform="matrix(1 0 0 1 37.2598 7.9976)" fill="#8C8C8C" font-family="'Droid Sans'" font-size="2.5">48</text>
		<text class="text" transform="matrix(1 0 0 1 30.0596 7.9976)" fill="#8C8C8C" font-family="'Droid Sans'" font-size="2.5">49</text>
		<text class="text" transform="matrix(1 0 0 1 22.8599 7.9976)" fill="#8C8C8C" font-family="'Droid Sans'" font-size="2.5">50</text>
		<text class="text" transform="matrix(1 0 0 1 16.5088 22.6641)" fill="#8C8C8C" font-family="'Droid Sans'" font-size="3.5">1</text>
		<text class="text" transform="matrix(1 0 0 1 16.5088 29.8643)" fill="#8C8C8C" font-family="'Droid Sans'" font-size="3.5">2</text>
		<text class="text" transform="matrix(1 0 0 1 16.5088 37.064)" fill="#8C8C8C" font-family="'Droid Sans'" font-size="3.5">3</text>
		<text class="text" transform="matrix(1 0 0 1 16.5088 44.2642)" fill="#8C8C8C" font-family="'Droid Sans'" font-size="3.5">4</text>
		<text class="text" transform="matrix(1 0 0 1 16.5088 51.4644)" fill="#8C8C8C" font-family="'Droid Sans'" font-size="3.5">5</text>
		<text class="text" transform="matrix(1 0 0 1 16.5088 58.6641)" fill="#8C8C8C" font-family="'Droid Sans'" font-size="3.5">6</text>
		<text class="text" transform="matrix(1 0 0 1 16.5088 65.8643)" fill="#8C8C8C" font-family="'Droid Sans'" font-size="3.5">7</text>
		<text class="text" transform="matrix(1 0 0 1 16.5088 73.064)" fill="#8C8C8C" font-family="'Droid Sans'" font-size="3.5">8</text>
		<text class="text" transform="matrix(1 0 0 1 16.5088 80.2642)" fill="#8C8C8C" font-family="'Droid Sans'" font-size="3.5">9</text>
		<text class="text" transform="matrix(1 0 0 1 16.5088 87.4644)" fill="#8C8C8C" font-family="'Droid Sans'" font-size="3.5">10</text>
		<text class="text" transform="matrix(1 0 0 1 16.5088 94.6646)" fill="#8C8C8C" font-family="'Droid Sans'" font-size="3.5">11</text>
		<text class="text" transform="matrix(1 0 0 1 16.5088 101.8638)" fill="#8C8C8C" font-family="'Droid Sans'" font-size="3.5">12</text>
		<text class="text" transform="matrix(1 0 0 1 16.5088 109.064)" fill="#8C8C8C" font-family="'Droid Sans'" font-size="3.5">13</text>
		<text class="text" transform="matrix(1 0 0 1 16.5088 116.2642)" fill="#8C8C8C" font-family="'Droid Sans'" font-size="3.5">14</text>
		<text class="text" transform="matrix(1 0 0 1 16.5088 123.4644)" fill="#8C8C8C" font-family="'Droid Sans'" font-size="3.5">15</text>
		<text class="text" transform="matrix(1 0 0 1 16.5088 130.6646)" fill="#8C8C8C" font-family="'Droid Sans'" font-size="3.5">16</text>
		<text class="text" transform="matrix(1 0 0 1 16.5088 137.8647)" fill="#8C8C8C" font-family="'Droid Sans'" font-size="3.5">17</text>
		<text class="text" transform="matrix(1 0 0 1 16.5088 145.064)" fill="#8C8C8C" font-family="'Droid Sans'" font-size="3.5">18</text>
		<text class="text" transform="matrix(1 0 0 1 16.5088 152.2642)" fill="#8C8C8C" font-family="'Droid Sans'" font-size="3.5">19</text>
		<text class="text" transform="matrix(1 0 0 1 16.5088 159.4644)" fill="#8C8C8C" font-family="'Droid Sans'" font-size="3.5">20</text>
		<text class="text" transform="matrix(1 0 0 1 16.5088 166.6646)" fill="#8C8C8C" font-family="'Droid Sans'" font-size="3.5">21</text>
		<text class="text" transform="matrix(1 0 0 1 16.5088 173.8647)" fill="#8C8C8C" font-family="'Droid Sans'" font-size="3.5">22</text>
		<text class="text" transform="matrix(1 0 0 1 59.5186 173.8647)" fill="#8C8C8C" font-family="'Droid Sans'" font-size="3.5">23</text>
		<text class="text" transform="matrix(1 0 0 1 59.5186 166.6646)" fill="#8C8C8C" font-family="'Droid Sans'" font-size="3.5">24</text>
		<text class="text" transform="matrix(1 0 0 1 59.5186 159.4644)" fill="#8C8C8C" font-family="'Droid Sans'" font-size="3.5">25</text>
		<text class="text" transform="matrix(1 0 0 1 59.5186 152.2642)" fill="#8C8C8C" font-family="'Droid Sans'" font-size="3.5">26</text>
		<text class="text" transform="matrix(1 0 0 1 59.5186 145.064)" fill="#8C8C8C" font-family="'Droid Sans'" font-size="3.5">27</text>
		<text class="text" transform="matrix(1 0 0 1 59.5186 137.8647)" fill="#8C8C8C" font-family="'Droid Sans'" font-size="3.5">28</text>
		<text class="text" transform="matrix(1 0 0 1 59.5186 130.6646)" fill="#8C8C8C" font-family="'Droid Sans'" font-size="3.5">29</text>
		<text class="text" transform="matrix(1 0 0 1 59.5186 123.4644)" fill="#8C8C8C" font-family="'Droid Sans'" font-size="3.5">30</text>
		<text class="text" transform="matrix(1 0 0 1 59.5186 116.2642)" fill="#8C8C8C" font-family="'Droid Sans'" font-size="3.5">31</text>
		<text class="text" transform="matrix(1 0 0 1 59.5186 109.064)" fill="#8C8C8C" font-family="'Droid Sans'" font-size="3.5">32</text>
		<text class="text" transform="matrix(1 0 0 1 59.5186 101.8638)" fill="#8C8C8C" font-family="'Droid Sans'" font-size="3.5">33</text>
		<text class="text" transform="matrix(1 0 0 1 59.5186 94.6646)" fill="#8C8C8C" font-family="'Droid Sans'" font-size="3.5">34</text>
		<text class="text" transform="matrix(1 0 0 1 59.5186 87.4644)" fill="#8C8C8C" font-family="'Droid Sans'" font-size="3.5">35</text>
		<text class="text" transform="matrix(1 0 0 1 59.5186 80.2642)" fill="#8C8C8C" font-family="'Droid Sans'" font-size="3.5">36</text>
		<text class="text" transform="matrix(1 0 0 1 59.5186 73.064)" fill="#8C8C8C" font-family="'Droid Sans'" font-size="3.5">37</text>
		<text class="text" transform="matrix(1 0 0 1 59.5186 65.8643)" fill="#8C8C8C" font-family="'Droid Sans'" font-size="3.5">38</text>
		<text class="text" transform="matrix(1 0 0 1 59.5186 58.6641)" fill="#8C8C8C" font-family="'Droid Sans'" font-size="3.5">39</text>
		<text class="text" transform="matrix(1 0 0 1 59.5186 51.4644)" fill="#8C8C8C" font-family="'Droid Sans'" font-size="3.5">40</text>
		<text class="text" transform="matrix(1 0 0 1 59.5186 44.2642)" fill="#8C8C8C" font-family="'Droid Sans'" font-size="3.5">41</text>
		<text class="text" transform="matrix(1 0 0 1 59.5186 37.064)" fill="#8C8C8C" font-family="'Droid Sans'" font-size="3.5">42</text>
		<text class="text" transform="matrix(1 0 0 1 59.5186 29.8643)" fill="#8C8C8C" font-family="'Droid Sans'" font-size="3.5">43</text>
		<text class="text" transform="matrix(1 0 0 1 59.5186 22.6641)" fill="#8C8C8C" font-family="'Droid Sans'" font-size="3.5">44</text>
		<text class="text" transform="matrix(1 0 0 1 56.0137 18.3608)" fill="#8C8C8C" font-family="'Droid Sans'" font-size="3.5">45</text>
		<text class="text" transform="matrix(1 0 0 1 48.8135 18.3608)" fill="#8C8C8C" font-family="'Droid Sans'" font-size="3.5">46</text>
		<text class="text" transform="matrix(1 0 0 1 41.6133 18.3608)" fill="#8C8C8C" font-family="'Droid Sans'" font-size="3.5">47</text>
		<text class="text" transform="matrix(1 0 0 1 34.4136 18.3608)" fill="#8C8C8C" font-family="'Droid Sans'" font-size="3.5">48</text>
		<text class="text" transform="matrix(1 0 0 1 27.2139 18.3608)" fill="#8C8C8C" font-family="'Droid Sans'" font-size="3.5">49</text>
		<text class="text" transform="matrix(1 0 0 1 20.0137 18.3608)" fill="#8C8C8C" font-family="'Droid Sans'" font-size="3.5">50</text>
		<rect class="terminal" id="connector0terminal" y="21.601" fill="none" width="0.721" height="0.72"/>
		<rect class="terminal" id="connector1terminal" y="28.801" fill="none" width="0.721" height="0.72"/>
		<rect class="terminal" id="connector2terminal" y="36.001" fill="none" width="0.721" height="0.72"/>
		<rect class="terminal" id="connector3terminal" y="43.201" fill="none" width="0.721" height="0.72"/>
		<rect class="terminal" id="connector4terminal" y="50.401" fill="none" width="0.721" height="0.72"/>
		<rect class="terminal" id="connector5terminal" y="57.602" fill="none" width="0.721" height="0.72"/>
		<rect class="terminal" id="connector6terminal" y="64.802" fill="none" width="0.721" height="0.72"/>
		<rect class="terminal" id="connector7terminal" y="72.002" fill="none" width="0.721" height="0.72"/>
		<rect class="terminal" id="connector8terminal" y="79.202" fill="none" width="0.721" height="0.72"/>
		<rect class="terminal" id="connector9terminal" y="86.402" fill="none" width="0.721" height="0.72"/>
		<rect class="terminal" id="connector10terminal" y="93.602" fill="none" width="0.721" height="0.721"/>
		<rect class="terminal" id="connector11terminal" y="100.802" fill="none" width="0.721" height="0.721"/>
		<rect class="terminal" id="connector12terminal" y="108.002" fill="none" width="0.721" height="0.721"/>
		<rect class="terminal" id="connector13terminal" y="115.203" fill="none" width="0.721" height="0.721"/>
		<rect class="terminal" id="connector14terminal" y="122.403" fill="none" width="0.721" height="0.721"/>
		<rect class="terminal" id="connector15terminal" y="129.603" fill="none" width="0.721" height="0.721"/>
		<rect class="terminal" id="connector16terminal" y="136.803" fill="none" width="0.721" height="0.721"/>
		<rect class="terminal" id="connector17terminal" y="144.003" fill="none" width="0.721" height="0.721"/>
		<rect class="terminal" id="connector18terminal" y="151.204" fill="none" width="0.721" height="0.721"/>
		<rect class="terminal" id="connector19terminal" y="158.404" fill="none" width="0.721" height="0.721"/>
		<rect class="terminal" id="connector20terminal" y="165.604" fill="none" width="0.721" height="0.721"/>
		<rect class="terminal" id="connector21terminal" y="172.804" fill="none" width="0.721" height="0.721"/>
		<rect class="terminal" id="connector22terminal" x="79.2" y="172.804" fill="none" width="0.721" height="0.721"/>
		<rect class="terminal" id="connector23terminal" x="79.2" y="165.604" fill="none" width="0.721" height="0.721"/>
		<rect class="terminal" id="connector24terminal" x="79.2" y="158.404" fill="none" width="0.721" height="0.721"/>
		<rect class="terminal" id="connector25terminal" x="79.2" y="151.204" fill="none" width="0.721" height="0.721"/>
		<rect class="terminal" id="connector26terminal" x="79.2" y="144.003" fill="none" width="0.721" height="0.721"/>
		<rect class="terminal" id="connector27terminal" x="79.2" y="136.803" fill="none" width="0.721" height="0.721"/>
		<rect class="terminal" id="connector28terminal" x="79.2" y="129.603" fill="none" width="0.721" height="0.721"/>
		<rect class="terminal" id="connector29terminal" x="79.2" y="122.403" fill="none" width="0.721" height="0.721"/>
		<rect class="terminal" id="connector30terminal" x="79.2" y="115.203" fill="none" width="0.721" height="0.721"/>
		<rect class="terminal" id="connector31terminal" x="79.2" y="108.002" fill="none" width="0.721" height="0.721"/>
		<rect class="terminal" id="connector32terminal" x="79.2" y="100.802" fill="none" width="0.721" height="0.721"/>
		<rect class="terminal" id="connector33terminal" x="79.2" y="93.602" fill="none" width="0.721" height="0.721"/>
		<rect class="terminal" id="connector34terminal" x="79.2" y="86.402" fill="none" width="0.721" height="0.721"/>
		<rect class="terminal" id="connector35terminal" x="79.2" y="79.202" fill="none" width="0.721" height="0.721"/>
		<rect class="terminal" id="connector36terminal" x="79.2" y="72.001" fill="none" width="0.721" height="0.721"/>
		<rect class="terminal" id="connector37terminal" x="79.2" y="64.801" fill="none" width="0.721" height="0.721"/>
		<rect class="terminal" id="connector38terminal" x="79.2" y="57.601" fill="none" width="0.721" height="0.721"/>
		<rect class="terminal" id="connector39terminal" x="79.2" y="50.401" fill="none" width="0.721" height="0.721"/>
		<rect class="terminal" id="connector40terminal" x="79.2" y="43.201" fill="none" width="0.721" height="0.721"/>
		<rect class="terminal" id="connector41terminal" x="79.2" y="36" fill="none" width="0.721" height="0.721"/>
		<rect class="terminal" id="connector42terminal" x="79.2" y="28.8" fill="none" width="0.721" height="0.721"/>
		<rect class="terminal" id="connector43terminal" x="79.2" y="21.6" fill="none" width="0.721" height="0.721"/>
		<rect class="terminal" id="connector44terminal" x="57.601" fill="none" width="0.721" height="0.721"/>
		<rect class="terminal" id="connector45terminal" x="50.4" fill="none" width="0.721" height="0.721"/>
		<rect class="terminal" id="connector46terminal" x="43.2" fill="none" width="0.721" height="0.721"/>
		<rect class="terminal" id="connector47terminal" x="36" fill="none" width="0.721" height="0.721"/>
		<rect class="terminal" id="connector48terminal" x="28.8" fill="none" width="0.721" height="0.721"/>
		<rect class="terminal" id="connector49terminal" x="21.6" fill="none" width="0.721" height="0.721"/>
		<text class="text" id="label" transform="matrix(1 0 0 1 32.1641 93.9604)">
			<tspan x="0" y="0" font-family="'Droid Sans'" font-size="4.25">Chinese</tspan>
			<tspan x="2.839" y="5.1" font-family="'Droid Sans'" font-size="4.25">ROM</tspan>
		</text>
	</g>
</svg>
