<?xml version="1.0" encoding="utf-8" standalone="no"?>
<svg xmlns="http://www.w3.org/2000/svg" version="1.1" x="0in" y="0in" width="0.728346in" height="1.161417in" viewBox="0 0 52 84">
	<g id="silkscreen">
		<rect x="9.212" y="5.483" fill="none" stroke="#FFFFFF" stroke-width="0.36" stroke-miterlimit="10" width="34.016" height="78.137"/>
		<circle fill="none" stroke="#FFFFFF" stroke-width="0.36" stroke-miterlimit="10" cx="12.047" cy="8.503" r="1.417"/>
	</g>
	<g id="copper1">
		<rect id="connector0pad" x="0" y="5.668" fill="#F7BD13" width="8.504" height="1.984" stroke="none" stroke-width="0"/>
		<rect id="connector1pad" x="0" y="9.269" fill="#F7BD13" width="8.504" height="1.984" stroke="none" stroke-width="0"/>
		<rect id="connector2pad" x="0" y="12.869" fill="#F7BD13" width="8.504" height="1.984" stroke="none" stroke-width="0"/>
		<rect id="connector3pad" x="0" y="16.469" fill="#F7BD13" width="8.504" height="1.984" stroke="none" stroke-width="0"/>
		<rect id="connector4pad" x="0" y="20.069" fill="#F7BD13" width="8.504" height="1.984" stroke="none" stroke-width="0"/>
		<rect id="connector5pad" x="0" y="23.669" fill="#F7BD13" width="8.504" height="1.984" stroke="none" stroke-width="0"/>
		<rect id="connector6pad" x="0" y="27.269" fill="#F7BD13" width="8.504" height="1.984" stroke="none" stroke-width="0"/>
		<rect id="connector7pad" x="0" y="30.869" fill="#F7BD13" width="8.504" height="1.984" stroke="none" stroke-width="0"/>
		<rect id="connector8pad" x="0" y="34.469" fill="#F7BD13" width="8.504" height="1.984" stroke="none" stroke-width="0"/>
		<rect id="connector9pad" x="0" y="38.069" fill="#F7BD13" width="8.504" height="1.984" stroke="none" stroke-width="0"/>
		<rect id="connector10pad" x="0" y="41.669" fill="#F7BD13" width="8.504" height="1.984" stroke="none" stroke-width="0"/>
		<rect id="connector11pad" x="0" y="45.269" fill="#F7BD13" width="8.504" height="1.984" stroke="none" stroke-width="0"/>
		<rect id="connector12pad" x="0" y="48.869" fill="#F7BD13" width="8.504" height="1.983" stroke="none" stroke-width="0"/>
		<rect id="connector13pad" x="0" y="52.469" fill="#F7BD13" width="8.504" height="1.983" stroke="none" stroke-width="0"/>
		<rect id="connector14pad" x="0" y="56.068" fill="#F7BD13" width="8.504" height="1.983" stroke="none" stroke-width="0"/>
		<rect id="connector15pad" x="0" y="59.668" fill="#F7BD13" width="8.504" height="1.983" stroke="none" stroke-width="0"/>
		<rect id="connector16pad" x="0" y="63.268" fill="#F7BD13" width="8.504" height="1.983" stroke="none" stroke-width="0"/>
		<rect id="connector17pad" x="0" y="66.867" fill="#F7BD13" width="8.504" height="1.983" stroke="none" stroke-width="0"/>
		<rect id="connector18pad" x="0" y="70.467" fill="#F7BD13" width="8.504" height="1.983" stroke="none" stroke-width="0"/>
		<rect id="connector19pad" x="0" y="74.066" fill="#F7BD13" width="8.504" height="1.983" stroke="none" stroke-width="0"/>
		<rect id="connector20pad" x="0" y="77.666" fill="#F7BD13" width="8.504" height="1.983" stroke="none" stroke-width="0"/>
		<rect id="connector21pad" x="0" y="81.266" fill="#F7BD13" width="8.504" height="1.983" stroke="none" stroke-width="0"/>
		<rect id="connector22pad" x="43.937" y="81.266" fill="#F7BD13" width="8.504" height="1.983" stroke="none" stroke-width="0"/>
		<rect id="connector23pad" x="43.937" y="77.666" fill="#F7BD13" width="8.504" height="1.983" stroke="none" stroke-width="0"/>
		<rect id="connector24pad" x="43.937" y="74.066" fill="#F7BD13" width="8.504" height="1.983" stroke="none" stroke-width="0"/>
		<rect id="connector25pad" x="43.937" y="70.467" fill="#F7BD13" width="8.504" height="1.983" stroke="none" stroke-width="0"/>
		<rect id="connector26pad" x="43.937" y="66.867" fill="#F7BD13" width="8.504" height="1.983" stroke="none" stroke-width="0"/>
		<rect id="connector27pad" x="43.937" y="63.268" fill="#F7BD13" width="8.504" height="1.983" stroke="none" stroke-width="0"/>
		<rect id="connector28pad" x="43.937" y="59.668" fill="#F7BD13" width="8.504" height="1.983" stroke="none" stroke-width="0"/>
		<rect id="connector29pad" x="43.937" y="56.068" fill="#F7BD13" width="8.504" height="1.983" stroke="none" stroke-width="0"/>
		<rect id="connector30pad" x="43.937" y="52.469" fill="#F7BD13" width="8.504" height="1.983" stroke="none" stroke-width="0"/>
		<rect id="connector31pad" x="43.937" y="48.869" fill="#F7BD13" width="8.504" height="1.983" stroke="none" stroke-width="0"/>
		<rect id="connector32pad" x="43.937" y="45.269" fill="#F7BD13" width="8.504" height="1.984" stroke="none" stroke-width="0"/>
		<rect id="connector33pad" x="43.937" y="41.669" fill="#F7BD13" width="8.504" height="1.984" stroke="none" stroke-width="0"/>
		<rect id="connector34pad" x="43.937" y="38.069" fill="#F7BD13" width="8.504" height="1.984" stroke="none" stroke-width="0"/>
		<rect id="connector35pad" x="43.937" y="34.469" fill="#F7BD13" width="8.504" height="1.984" stroke="none" stroke-width="0"/>
		<rect id="connector36pad" x="43.937" y="30.869" fill="#F7BD13" width="8.504" height="1.984" stroke="none" stroke-width="0"/>
		<rect id="connector37pad" x="43.937" y="27.269" fill="#F7BD13" width="8.504" height="1.984" stroke="none" stroke-width="0"/>
		<rect id="connector38pad" x="43.937" y="23.669" fill="#F7BD13" width="8.504" height="1.984" stroke="none" stroke-width="0"/>
		<rect id="connector39pad" x="43.937" y="20.069" fill="#F7BD13" width="8.504" height="1.984" stroke="none" stroke-width="0"/>
		<rect id="connector40pad" x="43.937" y="16.469" fill="#F7BD13" width="8.504" height="1.984" stroke="none" stroke-width="0"/>
		<rect id="connector41pad" x="43.937" y="12.869" fill="#F7BD13" width="8.504" height="1.984" stroke="none" stroke-width="0"/>
		<rect id="connector42pad" x="43.937" y="9.269" fill="#F7BD13" width="8.504" height="1.984" stroke="none" stroke-width="0"/>
		<rect id="connector43pad" x="43.937" y="5.668" fill="#F7BD13" width="8.504" height="1.984" stroke="none" stroke-width="0"/>
		<rect id="connector44pad" x="36.708" y="0" fill="#F7BD13" width="1.984" height="8.504" stroke="none" stroke-width="0"/>
		<rect id="connector45pad" x="33.108" y="0" fill="#F7BD13" width="1.984" height="8.504" stroke="none" stroke-width="0"/>
		<rect id="connector46pad" x="29.509" y="0" fill="#F7BD13" width="1.984" height="8.504" stroke="none" stroke-width="0"/>
		<rect id="connector47pad" x="25.909" y="0" fill="#F7BD13" width="1.985" height="8.504" stroke="none" stroke-width="0"/>
		<rect id="connector48pad" x="18.992" y="0" fill="#F7BD13" width="1.984" height="8.504" stroke="none" stroke-width="0"/>
		<rect id="connector49pad" x="13.748" y="0" fill="#F7BD13" width="1.984" height="8.504" stroke="none" stroke-width="0"/>
	</g>
</svg>
