<?xml version="1.0" encoding="utf-8" standalone="no"?>
<svg xmlns="http://www.w3.org/2000/svg" version="1.1" x="0in" y="0in" width="0.409449in" height="0.438189in" viewBox="0 0 10.4 11.13">
<g id="silkscreen">
<rect x="2.15" y="0.065" width="6.1" height="11" fill="none" stroke="#FFFFFF" stroke-width="0.127"/>
<circle cx="3.15" cy="1.13" r="0.5" fill="none" stroke="#FFFFFF" stroke-width="0.127"/>
</g>
<g id="copper1">
<rect id="connector0pad" x="0" y="0.245" width="2" height="0.24" fill="#F7BD13" stroke="none" stroke-width="0"/>
<rect id="connector1pad" x="0" y="0.895" width="2" height="0.24" fill="#F7BD13" stroke="none" stroke-width="0"/>
<rect id="connector2pad" x="0" y="1.545" width="2" height="0.24" fill="#F7BD13" stroke="none" stroke-width="0"/>
<rect id="connector3pad" x="0" y="2.195" width="2" height="0.24" fill="#F7BD13" stroke="none" stroke-width="0"/>
<rect id="connector4pad" x="0" y="2.845" width="2" height="0.24" fill="#F7BD13" stroke="none" stroke-width="0"/>
<rect id="connector5pad" x="0" y="3.495" width="2" height="0.24" fill="#F7BD13" stroke="none" stroke-width="0"/>
<rect id="connector6pad" x="0" y="4.145" width="2" height="0.24" fill="#F7BD13" stroke="none" stroke-width="0"/>
<rect id="connector7pad" x="0" y="4.795" width="2" height="0.24" fill="#F7BD13" stroke="none" stroke-width="0"/>
<rect id="connector8pad" x="0" y="5.445" width="2" height="0.24" fill="#F7BD13" stroke="none" stroke-width="0"/>
<rect id="connector9pad" x="0" y="6.095" width="2" height="0.24" fill="#F7BD13" stroke="none" stroke-width="0"/>
<rect id="connector10pad" x="0" y="6.745" width="2" height="0.24" fill="#F7BD13" stroke="none" stroke-width="0"/>
<rect id="connector11pad" x="0" y="7.395" width="2" height="0.24" fill="#F7BD13" stroke="none" stroke-width="0"/>
<rect id="connector12pad" x="0" y="8.045" width="2" height="0.24" fill="#F7BD13" stroke="none" stroke-width="0"/>
<rect id="connector13pad" x="0" y="8.695" width="2" height="0.24" fill="#F7BD13" stroke="none" stroke-width="0"/>
<rect id="connector14pad" x="0" y="9.345" width="2" height="0.24" fill="#F7BD13" stroke="none" stroke-width="0"/>
<rect id="connector15pad" x="0" y="9.995" width="2" height="0.24" fill="#F7BD13" stroke="none" stroke-width="0"/>
<rect id="connector16pad" x="0" y="10.645" width="2" height="0.24" fill="#F7BD13" stroke="none" stroke-width="0"/>
<rect id="connector17pad" x="8.4" y="10.645" width="2" height="0.24" fill="#F7BD13" stroke="none" stroke-width="0"/>
<rect id="connector18pad" x="8.4" y="9.995" width="2" height="0.24" fill="#F7BD13" stroke="none" stroke-width="0"/>
<rect id="connector19pad" x="8.4" y="9.345" width="2" height="0.24" fill="#F7BD13" stroke="none" stroke-width="0"/>
<rect id="connector20pad" x="8.4" y="8.695" width="2" height="0.24" fill="#F7BD13" stroke="none" stroke-width="0"/>
<rect id="connector21pad" x="8.4" y="8.045" width="2" height="0.24" fill="#F7BD13" stroke="none" stroke-width="0"/>
<rect id="connector22pad" x="8.4" y="7.395" width="2" height="0.24" fill="#F7BD13" stroke="none" stroke-width="0"/>
<rect id="connector23pad" x="8.4" y="6.745" width="2" height="0.24" fill="#F7BD13" stroke="none" stroke-width="0"/>
<rect id="connector24pad" x="8.4" y="6.095" width="2" height="0.24" fill="#F7BD13" stroke="none" stroke-width="0"/>
<rect id="connector25pad" x="8.4" y="5.445" width="2" height="0.24" fill="#F7BD13" stroke="none" stroke-width="0"/>
<rect id="connector26pad" x="8.4" y="4.795" width="2" height="0.24" fill="#F7BD13" stroke="none" stroke-width="0"/>
<rect id="connector27pad" x="8.4" y="4.145" width="2" height="0.24" fill="#F7BD13" stroke="none" stroke-width="0"/>
<rect id="connector28pad" x="8.4" y="3.495" width="2" height="0.24" fill="#F7BD13" stroke="none" stroke-width="0"/>
<rect id="connector29pad" x="8.4" y="2.845" width="2" height="0.24" fill="#F7BD13" stroke="none" stroke-width="0"/>
<rect id="connector30pad" x="8.4" y="2.195" width="2" height="0.24" fill="#F7BD13" stroke="none" stroke-width="0"/>
<rect id="connector31pad" x="8.4" y="1.545" width="2" height="0.24" fill="#F7BD13" stroke="none" stroke-width="0"/>
<rect id="connector32pad" x="8.4" y="0.895" width="2" height="0.24" fill="#F7BD13" stroke="none" stroke-width="0"/>
<rect id="connector33pad" x="8.4" y="0.245" width="2" height="0.24" fill="#F7BD13" stroke="none" stroke-width="0"/>
</g>
</svg>
