<?xml version='1.0' encoding='UTF-8' standalone='no'?>
<!-- Created with Fritzing (http://www.fritzing.org/) -->
<svg xmlns="http://www.w3.org/2000/svg" width="0.098in" x="0in" version="1.2" y="0in" height="0.338598in" viewBox="0 0 7.056 24.3791" baseProfile="tiny">
 <desc >Fritzing footprint generated by brd2svg</desc>
 <g  id="silkscreen" stroke-width="0">
  <g  stroke-width="0">
   <title >element:E$1</title>
   <g  stroke-width="0">
    <title >package:SSOP8</title>
    <line  stroke="white" stroke-linecap="round" y1="9.66199" x1="6.8729" y2="9.66199" stroke-width="0.36" x2="0.183118"/>
    <line  stroke="white" stroke-linecap="round" y1="14.7171" x1="6.8729" y2="14.7171" stroke-width="0.36" x2="0.183118"/>
    <line  stroke="white" stroke-linecap="round" y1="9.66199" x1="0.183118" y2="14.7171" stroke-width="0.36" x2="0.183118"/>
    <line  stroke="white" stroke-linecap="round" y1="9.66199" x1="6.8729" y2="14.7171" stroke-width="0.36" x2="6.8729"/>
    <circle  fill="none" cx="1.46895" cy="13.1761" stroke="white" r="0.5" stroke-width="0.36"/>
   </g>
  </g>
 </g>
 <g  id="copper1" stroke-width="0">
  <rect  width="0.992124" x="0.331937" y="15.1423" fill="#F7BD13" height="9.23622" stroke="none" id="connector0pad" stroke-width="0"/>
  <rect  width="0.992124" x="2.13193" y="15.1423" fill="#F7BD13" height="9.23622" stroke="none" id="connector1pad" stroke-width="0"/>
  <rect  width="0.992124" x="3.93193" y="15.1423" fill="#F7BD13" height="9.23622" stroke="none" id="connector2pad" stroke-width="0"/>
  <rect  width="0.992124" x="5.73193" y="15.1423" fill="#F7BD13" height="9.23622" stroke="none" id="connector3pad" stroke-width="0"/>
  <g  stroke-width="0" transform="matrix(-1, 0, 0, -1, 12.456, 9.23735)">
   <rect  width="0.992124" x="5.73193" y="0.000566964" fill="#F7BD13" height="9.23622" stroke="none" id="connector4pad" stroke-width="0"/>
  </g>
  <g  stroke-width="0" transform="matrix(-1, 0, 0, -1, 8.856, 9.23735)">
   <rect  width="0.992124" x="3.93193" y="0.000566964" fill="#F7BD13" height="9.23622" stroke="none" id="connector5pad" stroke-width="0"/>
  </g>
  <g  stroke-width="0" transform="matrix(-1, 0, 0, -1, 5.256, 9.23735)">
   <rect  width="0.992124" x="2.13193" y="0.000566964" fill="#F7BD13" height="9.23622" stroke="none" id="connector6pad" stroke-width="0"/>
  </g>
  <g  stroke-width="0" transform="matrix(-1, 0, 0, -1, 1.656, 9.23735)">
   <rect  width="0.992124" x="0.331937" y="0.000566964" fill="#F7BD13" height="9.23622" stroke="none" id="connector7pad" stroke-width="0"/>
  </g>
 </g>
</svg>
