<?xml version='1.0' encoding='UTF-8' standalone='no'?>
<!-- Created with Fritzing (http://www.fritzing.org/) -->
<svg xmlns="http://www.w3.org/2000/svg" width="0.4in" x="0in" version="1.2" y="0in" height="0.6in" viewBox="0 0 28.8 43.2" baseProfile="tiny">
 <desc >Fritzing breadboard generated by brd2svg</desc>
 <g  id="breadboard" stroke-width="0">
  <g  id="icon" stroke-width="0">
   <path  fill="#1F7A34" stroke="none" stroke-width="0" d="M0,0L0,19.44A2.16,2.16,0,0,1,0,23.76L0,43.2L28.8,43.2L28.8,0L0,0z"/>
   <g  stroke-width="0" transform="matrix(1, 0, 0, 1, 10.836, 9.41047)">
    <g  stroke-width="0" transform="matrix(0.5, 0, 0, 0.5, 1.782, 6.09477)">
     <rect  width="0.992124" x="0.331937" y="18.1423" fill="#8c8c8c" height="6.23622" stroke="none" stroke-width="0"/>
     <rect  width="0.992124" x="2.13193" y="18.1423" fill="#8c8c8c" height="6.23622" stroke="none" stroke-width="0"/>
     <rect  width="0.992124" x="3.93193" y="18.1423" fill="#8c8c8c" height="6.23622" stroke="none" stroke-width="0"/>
     <rect  width="0.992124" x="5.73193" y="18.1423" fill="#8c8c8c" height="6.23622" stroke="none" stroke-width="0"/>
     <g  stroke-width="0" transform="matrix(-1, 0, 0, -1, 12.456, 6.23735)">
      <rect  width="0.992124" x="5.73193" y="0.000566964" fill="#8c8c8c" height="6.23622" stroke="none" stroke-width="0"/>
     </g>
     <g  stroke-width="0" transform="matrix(-1, 0, 0, -1, 8.856, 6.23735)">
      <rect  width="0.992124" x="3.93193" y="0.000566964" fill="#8c8c8c" height="6.23622" stroke="none" stroke-width="0"/>
     </g>
     <g  stroke-width="0" transform="matrix(-1, 0, 0, -1, 5.256, 6.23735)">
      <rect  width="0.992124" x="2.13193" y="0.000566964" fill="#8c8c8c" height="6.23622" stroke="none" stroke-width="0"/>
     </g>
     <g  stroke-width="0" transform="matrix(-1, 0, 0, -1, 1.656, 6.23735)">
      <rect  width="0.992124" x="0.331937" y="0.000566964" fill="#8c8c8c" height="6.23622" stroke="none" stroke-width="0"/>
     </g>
     <rect  width="6.6897" x="0.183118" y="6.66199" fill="#303030" height="11.0551" stroke="none" stroke-width="0"/>
     <polygon  fill="#1f1f1f" points="0.183118,6.66199,6.8729,6.66199,6.1529,7.38202,0.903118,7.38202" stroke-width="0"/>
     <polygon  fill="#1f1f1f" points="0.183118,17.7171,6.8729,17.7171,6.1529,16.9971,0.903118,16.9971" stroke-width="0"/>
     <polygon  fill="#000000" points="0.183118,6.66199,0.183118,17.7171,0.903118,16.9971,0.903118,7.38202" stroke-width="0"/>
     <polygon  fill="#3d3d3d" points="6.8729,6.66199,6.8729,17.7171,6.1529,16.9971,6.1529,7.38202" stroke-width="0"/>
     <circle  fill="#1f1f1f" cx="2.34312" cy="15.5571" stroke="none" r="0.72" stroke-width="0"/>
    </g>
   </g>
   <text  x="3.6" y="23.355" font-family="OCRA" fill="white" text-anchor="start" stroke="none" id="label" stroke-width="0" font-size="4.68">SSOP8</text>
   <g  stroke-width="0" transform="matrix(1, 0, 0, 1, 4.572, 37.8756)">
    <g  stroke-width="0" transform="rotate(-90)">
     <text  x="0" y="0" font-family="OCRA" fill="white" text-anchor="start" stroke="none" stroke-width="0" font-size="3.24">1</text>
    </g>
   </g>
   <g  stroke-width="0" transform="matrix(1, 0, 0, 1, 4.572, 5.3244)">
    <g  stroke-width="0" transform="rotate(-90)">
     <text  x="0" y="0" font-family="OCRA" fill="white" text-anchor="end" stroke="none" stroke-width="0" font-size="3.24">8</text>
    </g>
   </g>
   <g  stroke-width="0" transform="matrix(1, 0, 0, 1, 11.772, 37.8756)">
    <g  stroke-width="0" transform="rotate(-90)">
     <text  x="0" y="0" font-family="OCRA" fill="white" text-anchor="start" stroke="none" stroke-width="0" font-size="3.24">2</text>
    </g>
   </g>
   <g  stroke-width="0" transform="matrix(1, 0, 0, 1, 11.772, 5.3244)">
    <g  stroke-width="0" transform="rotate(-90)">
     <text  x="0" y="0" font-family="OCRA" fill="white" text-anchor="end" stroke="none" stroke-width="0" font-size="3.24">7</text>
    </g>
   </g>
   <g  stroke-width="0" transform="matrix(1, 0, 0, 1, 18.972, 37.8756)">
    <g  stroke-width="0" transform="rotate(-90)">
     <text  x="0" y="0" font-family="OCRA" fill="white" text-anchor="start" stroke="none" stroke-width="0" font-size="3.24">3</text>
    </g>
   </g>
   <g  stroke-width="0" transform="matrix(1, 0, 0, 1, 18.972, 5.3244)">
    <g  stroke-width="0" transform="rotate(-90)">
     <text  x="0" y="0" font-family="OCRA" fill="white" text-anchor="end" stroke="none" stroke-width="0" font-size="3.24">6</text>
    </g>
   </g>
   <g  stroke-width="0" transform="matrix(1, 0, 0, 1, 26.172, 37.8756)">
    <g  stroke-width="0" transform="rotate(-90)">
     <text  x="0" y="0" font-family="OCRA" fill="white" text-anchor="start" stroke="none" stroke-width="0" font-size="3.24">4</text>
    </g>
   </g>
   <g  stroke-width="0" transform="matrix(1, 0, 0, 1, 26.172, 5.3244)">
    <g  stroke-width="0" transform="rotate(-90)">
     <text  x="0" y="0" font-family="OCRA" fill="white" text-anchor="end" stroke="none" stroke-width="0" font-size="3.24">5</text>
    </g>
   </g>
  </g>
  <g  id="connector0pin" stroke-width="0" transform="matrix(1, 0, 0, 1, 2.45052, 38.4516)">
   <rect  width="2.29896" x="0" y="0" fill="#8D8C8C" height="2.2968" stroke-width="0"/>
   <rect  width="1.18398" x="0.56099" y="0.556952" fill="#8C8663" height="1.18189" stroke-width="0"/>
   <polygon  fill="#B8AF82" points="0,2.2968,0.56099,1.73785,0.56099,0.501957,0,0" stroke-width="0"/>
   <polygon  fill="#80795B" points="1.74297,0.558951,0.56899,0.558951,0,0,2.29896,0" stroke-width="0"/>
   <polygon  fill="#5E5B43" points="1.74297,1.73785,1.74297,0.558951,2.29896,0,2.29896,2.2968" stroke-width="0"/>
   <polygon  fill="#9A916C" points="0,2.2968,0.56699,1.73785,1.74297,1.73785,2.29896,2.2968" stroke-width="0"/>
  </g>
  <g  id="connector7pin" stroke-width="0" transform="matrix(1, 0, 0, 1, 2.45052, 2.4516)">
   <rect  width="2.29896" x="0" y="0" fill="#8D8C8C" height="2.2968" stroke-width="0"/>
   <rect  width="1.18398" x="0.56099" y="0.556952" fill="#8C8663" height="1.18189" stroke-width="0"/>
   <polygon  fill="#B8AF82" points="0,2.2968,0.56099,1.73785,0.56099,0.501957,0,0" stroke-width="0"/>
   <polygon  fill="#80795B" points="1.74297,0.558951,0.56899,0.558951,0,0,2.29896,0" stroke-width="0"/>
   <polygon  fill="#5E5B43" points="1.74297,1.73785,1.74297,0.558951,2.29896,0,2.29896,2.2968" stroke-width="0"/>
   <polygon  fill="#9A916C" points="0,2.2968,0.56699,1.73785,1.74297,1.73785,2.29896,2.2968" stroke-width="0"/>
  </g>
  <g  id="connector1pin" stroke-width="0" transform="matrix(1, 0, 0, 1, 9.65052, 38.4516)">
   <rect  width="2.29896" x="0" y="0" fill="#8D8C8C" height="2.2968" stroke-width="0"/>
   <rect  width="1.18398" x="0.56099" y="0.556952" fill="#8C8663" height="1.18189" stroke-width="0"/>
   <polygon  fill="#B8AF82" points="0,2.2968,0.56099,1.73785,0.56099,0.501957,0,0" stroke-width="0"/>
   <polygon  fill="#80795B" points="1.74297,0.558951,0.56899,0.558951,0,0,2.29896,0" stroke-width="0"/>
   <polygon  fill="#5E5B43" points="1.74297,1.73785,1.74297,0.558951,2.29896,0,2.29896,2.2968" stroke-width="0"/>
   <polygon  fill="#9A916C" points="0,2.2968,0.56699,1.73785,1.74297,1.73785,2.29896,2.2968" stroke-width="0"/>
  </g>
  <g  id="connector6pin" stroke-width="0" transform="matrix(1, 0, 0, 1, 9.65052, 2.4516)">
   <rect  width="2.29896" x="0" y="0" fill="#8D8C8C" height="2.2968" stroke-width="0"/>
   <rect  width="1.18398" x="0.56099" y="0.556952" fill="#8C8663" height="1.18189" stroke-width="0"/>
   <polygon  fill="#B8AF82" points="0,2.2968,0.56099,1.73785,0.56099,0.501957,0,0" stroke-width="0"/>
   <polygon  fill="#80795B" points="1.74297,0.558951,0.56899,0.558951,0,0,2.29896,0" stroke-width="0"/>
   <polygon  fill="#5E5B43" points="1.74297,1.73785,1.74297,0.558951,2.29896,0,2.29896,2.2968" stroke-width="0"/>
   <polygon  fill="#9A916C" points="0,2.2968,0.56699,1.73785,1.74297,1.73785,2.29896,2.2968" stroke-width="0"/>
  </g>
  <g  id="connector2pin" stroke-width="0" transform="matrix(1, 0, 0, 1, 16.8505, 38.4516)">
   <rect  width="2.29896" x="0" y="0" fill="#8D8C8C" height="2.2968" stroke-width="0"/>
   <rect  width="1.18398" x="0.56099" y="0.556952" fill="#8C8663" height="1.18189" stroke-width="0"/>
   <polygon  fill="#B8AF82" points="0,2.2968,0.56099,1.73785,0.56099,0.501957,0,0" stroke-width="0"/>
   <polygon  fill="#80795B" points="1.74297,0.558951,0.56899,0.558951,0,0,2.29896,0" stroke-width="0"/>
   <polygon  fill="#5E5B43" points="1.74297,1.73785,1.74297,0.558951,2.29896,0,2.29896,2.2968" stroke-width="0"/>
   <polygon  fill="#9A916C" points="0,2.2968,0.56699,1.73785,1.74297,1.73785,2.29896,2.2968" stroke-width="0"/>
  </g>
  <g  id="connector5pin" stroke-width="0" transform="matrix(1, 0, 0, 1, 16.8505, 2.4516)">
   <rect  width="2.29896" x="0" y="0" fill="#8D8C8C" height="2.2968" stroke-width="0"/>
   <rect  width="1.18398" x="0.56099" y="0.556952" fill="#8C8663" height="1.18189" stroke-width="0"/>
   <polygon  fill="#B8AF82" points="0,2.2968,0.56099,1.73785,0.56099,0.501957,0,0" stroke-width="0"/>
   <polygon  fill="#80795B" points="1.74297,0.558951,0.56899,0.558951,0,0,2.29896,0" stroke-width="0"/>
   <polygon  fill="#5E5B43" points="1.74297,1.73785,1.74297,0.558951,2.29896,0,2.29896,2.2968" stroke-width="0"/>
   <polygon  fill="#9A916C" points="0,2.2968,0.56699,1.73785,1.74297,1.73785,2.29896,2.2968" stroke-width="0"/>
  </g>
  <g  id="connector3pin" stroke-width="0" transform="matrix(1, 0, 0, 1, 24.0505, 38.4516)">
   <rect  width="2.29896" x="0" y="0" fill="#8D8C8C" height="2.2968" stroke-width="0"/>
   <rect  width="1.18398" x="0.56099" y="0.556952" fill="#8C8663" height="1.18189" stroke-width="0"/>
   <polygon  fill="#B8AF82" points="0,2.2968,0.56099,1.73785,0.56099,0.501957,0,0" stroke-width="0"/>
   <polygon  fill="#80795B" points="1.74297,0.558951,0.56899,0.558951,0,0,2.29896,0" stroke-width="0"/>
   <polygon  fill="#5E5B43" points="1.74297,1.73785,1.74297,0.558951,2.29896,0,2.29896,2.2968" stroke-width="0"/>
   <polygon  fill="#9A916C" points="0,2.2968,0.56699,1.73785,1.74297,1.73785,2.29896,2.2968" stroke-width="0"/>
  </g>
  <g  id="connector4pin" stroke-width="0" transform="matrix(1, 0, 0, 1, 24.0505, 2.4516)">
   <rect  width="2.29896" x="0" y="0" fill="#8D8C8C" height="2.2968" stroke-width="0"/>
   <rect  width="1.18398" x="0.56099" y="0.556952" fill="#8C8663" height="1.18189" stroke-width="0"/>
   <polygon  fill="#B8AF82" points="0,2.2968,0.56099,1.73785,0.56099,0.501957,0,0" stroke-width="0"/>
   <polygon  fill="#80795B" points="1.74297,0.558951,0.56899,0.558951,0,0,2.29896,0" stroke-width="0"/>
   <polygon  fill="#5E5B43" points="1.74297,1.73785,1.74297,0.558951,2.29896,0,2.29896,2.2968" stroke-width="0"/>
   <polygon  fill="#9A916C" points="0,2.2968,0.56699,1.73785,1.74297,1.73785,2.29896,2.2968" stroke-width="0"/>
  </g>
 </g>
</svg>
