<?xml version="1.0" encoding="utf-8" standalone="no"?>
<svg xmlns="http://www.w3.org/2000/svg" version="1.1" x="0in" y="0in" width="0.893701in" height="0.477559in" viewBox="0 0 22.7 12.13">
<g id="silkscreen">
<rect x="2.15" y="0.065" width="18.4" height="12" fill="none" stroke="#FFFFFF" stroke-width="0.127"/>
<circle cx="3.15" cy="1.13" r="0.5" fill="none" stroke="#FFFFFF" stroke-width="0.127"/>
</g>
<g id="copper1">
<rect id="connector0pad" x="0" y="0.195" width="2" height="0.24" fill="#F7BD13" stroke="none" stroke-width="0"/>
<rect id="connector1pad" x="0" y="0.695" width="2" height="0.24" fill="#F7BD13" stroke="none" stroke-width="0"/>
<rect id="connector2pad" x="0" y="1.195" width="2" height="0.24" fill="#F7BD13" stroke="none" stroke-width="0"/>
<rect id="connector3pad" x="0" y="1.695" width="2" height="0.24" fill="#F7BD13" stroke="none" stroke-width="0"/>
<rect id="connector4pad" x="0" y="2.195" width="2" height="0.24" fill="#F7BD13" stroke="none" stroke-width="0"/>
<rect id="connector5pad" x="0" y="2.695" width="2" height="0.24" fill="#F7BD13" stroke="none" stroke-width="0"/>
<rect id="connector6pad" x="0" y="3.195" width="2" height="0.24" fill="#F7BD13" stroke="none" stroke-width="0"/>
<rect id="connector7pad" x="0" y="3.695" width="2" height="0.24" fill="#F7BD13" stroke="none" stroke-width="0"/>
<rect id="connector8pad" x="0" y="4.195" width="2" height="0.24" fill="#F7BD13" stroke="none" stroke-width="0"/>
<rect id="connector9pad" x="0" y="4.695" width="2" height="0.24" fill="#F7BD13" stroke="none" stroke-width="0"/>
<rect id="connector10pad" x="0" y="5.195" width="2" height="0.24" fill="#F7BD13" stroke="none" stroke-width="0"/>
<rect id="connector11pad" x="0" y="5.695" width="2" height="0.24" fill="#F7BD13" stroke="none" stroke-width="0"/>
<rect id="connector12pad" x="0" y="6.195" width="2" height="0.24" fill="#F7BD13" stroke="none" stroke-width="0"/>
<rect id="connector13pad" x="0" y="6.695" width="2" height="0.24" fill="#F7BD13" stroke="none" stroke-width="0"/>
<rect id="connector14pad" x="0" y="7.195" width="2" height="0.24" fill="#F7BD13" stroke="none" stroke-width="0"/>
<rect id="connector15pad" x="0" y="7.695" width="2" height="0.24" fill="#F7BD13" stroke="none" stroke-width="0"/>
<rect id="connector16pad" x="0" y="8.195" width="2" height="0.24" fill="#F7BD13" stroke="none" stroke-width="0"/>
<rect id="connector17pad" x="0" y="8.695" width="2" height="0.24" fill="#F7BD13" stroke="none" stroke-width="0"/>
<rect id="connector18pad" x="0" y="9.195" width="2" height="0.24" fill="#F7BD13" stroke="none" stroke-width="0"/>
<rect id="connector19pad" x="0" y="9.695" width="2" height="0.24" fill="#F7BD13" stroke="none" stroke-width="0"/>
<rect id="connector20pad" x="0" y="10.195" width="2" height="0.24" fill="#F7BD13" stroke="none" stroke-width="0"/>
<rect id="connector21pad" x="0" y="10.695" width="2" height="0.24" fill="#F7BD13" stroke="none" stroke-width="0"/>
<rect id="connector22pad" x="0" y="11.195" width="2" height="0.24" fill="#F7BD13" stroke="none" stroke-width="0"/>
<rect id="connector23pad" x="0" y="11.695" width="2" height="0.24" fill="#F7BD13" stroke="none" stroke-width="0"/>
<rect id="connector24pad" x="20.7" y="11.695" width="2" height="0.24" fill="#F7BD13" stroke="none" stroke-width="0"/>
<rect id="connector25pad" x="20.7" y="11.195" width="2" height="0.24" fill="#F7BD13" stroke="none" stroke-width="0"/>
<rect id="connector26pad" x="20.7" y="10.695" width="2" height="0.24" fill="#F7BD13" stroke="none" stroke-width="0"/>
<rect id="connector27pad" x="20.7" y="10.195" width="2" height="0.24" fill="#F7BD13" stroke="none" stroke-width="0"/>
<rect id="connector28pad" x="20.7" y="9.695" width="2" height="0.24" fill="#F7BD13" stroke="none" stroke-width="0"/>
<rect id="connector29pad" x="20.7" y="9.195" width="2" height="0.24" fill="#F7BD13" stroke="none" stroke-width="0"/>
<rect id="connector30pad" x="20.7" y="8.695" width="2" height="0.24" fill="#F7BD13" stroke="none" stroke-width="0"/>
<rect id="connector31pad" x="20.7" y="8.195" width="2" height="0.24" fill="#F7BD13" stroke="none" stroke-width="0"/>
<rect id="connector32pad" x="20.7" y="7.695" width="2" height="0.24" fill="#F7BD13" stroke="none" stroke-width="0"/>
<rect id="connector33pad" x="20.7" y="7.195" width="2" height="0.24" fill="#F7BD13" stroke="none" stroke-width="0"/>
<rect id="connector34pad" x="20.7" y="6.695" width="2" height="0.24" fill="#F7BD13" stroke="none" stroke-width="0"/>
<rect id="connector35pad" x="20.7" y="6.195" width="2" height="0.24" fill="#F7BD13" stroke="none" stroke-width="0"/>
<rect id="connector36pad" x="20.7" y="5.695" width="2" height="0.24" fill="#F7BD13" stroke="none" stroke-width="0"/>
<rect id="connector37pad" x="20.7" y="5.195" width="2" height="0.24" fill="#F7BD13" stroke="none" stroke-width="0"/>
<rect id="connector38pad" x="20.7" y="4.695" width="2" height="0.24" fill="#F7BD13" stroke="none" stroke-width="0"/>
<rect id="connector39pad" x="20.7" y="4.195" width="2" height="0.24" fill="#F7BD13" stroke="none" stroke-width="0"/>
<rect id="connector40pad" x="20.7" y="3.695" width="2" height="0.24" fill="#F7BD13" stroke="none" stroke-width="0"/>
<rect id="connector41pad" x="20.7" y="3.195" width="2" height="0.24" fill="#F7BD13" stroke="none" stroke-width="0"/>
<rect id="connector42pad" x="20.7" y="2.695" width="2" height="0.24" fill="#F7BD13" stroke="none" stroke-width="0"/>
<rect id="connector43pad" x="20.7" y="2.195" width="2" height="0.24" fill="#F7BD13" stroke="none" stroke-width="0"/>
<rect id="connector44pad" x="20.7" y="1.695" width="2" height="0.24" fill="#F7BD13" stroke="none" stroke-width="0"/>
<rect id="connector45pad" x="20.7" y="1.195" width="2" height="0.24" fill="#F7BD13" stroke="none" stroke-width="0"/>
<rect id="connector46pad" x="20.7" y="0.695" width="2" height="0.24" fill="#F7BD13" stroke="none" stroke-width="0"/>
<rect id="connector47pad" x="20.7" y="0.195" width="2" height="0.24" fill="#F7BD13" stroke="none" stroke-width="0"/>
</g>
</svg>
