; NON-PLATED HOLES START AT T1
; THROUGH (PLATED) HOLES START AT T100
M48
INCH
T100C0.038000
%
T100
X001705Y009628
X014717Y020619
X014717Y012619
X001705Y010628
X014717Y004619
X014717Y017619
X001705Y002628
X001705Y015628
X014717Y009619
X001705Y007628
X014717Y010619
X001705Y021628
X014717Y002619
X014717Y015619
X001705Y013628
X014717Y007619
X001705Y005628
X001705Y018628
X014717Y021619
X014717Y013619
X001705Y011628
X014717Y005619
X014717Y018619
X001705Y003628
X001705Y016628
X005711Y022630
X007711Y022630
X001705Y008628
X006711Y022630
X008711Y022630
X014717Y011619
X001705Y022628
X009711Y022630
X014717Y003619
X014717Y016619
X001705Y001628
X001705Y014628
X014717Y008619
X001705Y006628
X001705Y019628
X010711Y022630
X014717Y022619
X001705Y020628
X014717Y001619
X014717Y014619
X001705Y012628
X014717Y006619
X014717Y019619
X001705Y004628
X001705Y017628
T00
M30
