G04 MADE WITH FRITZING*
G04 WWW.FRITZING.ORG*
G04 DOUBLE SIDED*
G04 HOLES PLATED*
G04 CONTOUR ON CENTER OF CONTOUR VECTOR*
%ASAXBY*%
%FSLAX23Y23*%
%MOIN*%
%OFA0B0*%
%SFA1.0B1.0*%
%ADD10C,0.078000*%
%ADD11R,0.119113X0.027432*%
%ADD12R,0.119113X0.027418*%
%ADD13R,0.027789X0.117580*%
%ADD14R,0.027803X0.117580*%
%ADD15C,0.012000*%
%ADD16C,0.016000*%
%LNCOPPER1*%
G90*
G70*
G54D10*
X1472Y2262D03*
X1472Y2162D03*
X1472Y2062D03*
X1472Y1962D03*
X1472Y1862D03*
X1472Y1762D03*
X1472Y1662D03*
X1472Y1562D03*
X1472Y1462D03*
X1472Y1362D03*
X1472Y1262D03*
X1472Y1162D03*
X1472Y1062D03*
X1472Y962D03*
X1472Y862D03*
X1472Y762D03*
X1472Y662D03*
X1472Y562D03*
X1472Y462D03*
X1472Y362D03*
X1472Y262D03*
X1472Y162D03*
X171Y2263D03*
X171Y2163D03*
X171Y2063D03*
X171Y1963D03*
X171Y1863D03*
X171Y1763D03*
X171Y1663D03*
X171Y1563D03*
X171Y1463D03*
X171Y1363D03*
X171Y1263D03*
X171Y1163D03*
X171Y1063D03*
X171Y963D03*
X171Y863D03*
X171Y763D03*
X171Y663D03*
X171Y563D03*
X171Y463D03*
X171Y363D03*
X171Y263D03*
X171Y163D03*
X1071Y2263D03*
X971Y2263D03*
X871Y2263D03*
X771Y2263D03*
X671Y2263D03*
X571Y2263D03*
G54D11*
X511Y1741D03*
X511Y1692D03*
X511Y1642D03*
X511Y1592D03*
X511Y1542D03*
X511Y1492D03*
X511Y1443D03*
X511Y1393D03*
X511Y1343D03*
X511Y1293D03*
X511Y1244D03*
X511Y1194D03*
G54D12*
X511Y1144D03*
X511Y1094D03*
X511Y1045D03*
X511Y995D03*
X511Y945D03*
X511Y895D03*
X511Y845D03*
X511Y796D03*
X511Y746D03*
X511Y696D03*
X1126Y696D03*
X1126Y746D03*
X1126Y796D03*
X1126Y845D03*
X1126Y895D03*
X1126Y945D03*
X1126Y995D03*
X1126Y1045D03*
X1126Y1094D03*
X1126Y1144D03*
G54D11*
X1126Y1194D03*
X1126Y1244D03*
X1126Y1293D03*
X1126Y1343D03*
X1126Y1393D03*
X1126Y1443D03*
X1126Y1492D03*
X1126Y1542D03*
X1126Y1592D03*
X1126Y1642D03*
X1126Y1692D03*
X1126Y1741D03*
G54D13*
X979Y1775D03*
X929Y1775D03*
X878Y1775D03*
G54D14*
X828Y1775D03*
G54D13*
X731Y1775D03*
X657Y1775D03*
G54D15*
X442Y1741D02*
X457Y1741D01*
D02*
X383Y2263D02*
X442Y1741D01*
D02*
X195Y2263D02*
X383Y2263D01*
D02*
X423Y1692D02*
X457Y1692D01*
D02*
X363Y2163D02*
X423Y1692D01*
D02*
X195Y2163D02*
X363Y2163D01*
D02*
X403Y1642D02*
X457Y1642D01*
D02*
X343Y2063D02*
X403Y1642D01*
D02*
X195Y2063D02*
X343Y2063D01*
D02*
X383Y1592D02*
X457Y1592D01*
D02*
X324Y1963D02*
X383Y1592D01*
D02*
X195Y1963D02*
X324Y1963D01*
D02*
X363Y1543D02*
X457Y1542D01*
D02*
X304Y1863D02*
X363Y1543D01*
D02*
X195Y1863D02*
X304Y1863D01*
D02*
X347Y1492D02*
X457Y1492D01*
D02*
X294Y1763D02*
X347Y1492D01*
D02*
X195Y1763D02*
X294Y1763D01*
D02*
X332Y1443D02*
X457Y1443D01*
D02*
X281Y1663D02*
X332Y1443D01*
D02*
X195Y1663D02*
X281Y1663D01*
D02*
X322Y1393D02*
X457Y1393D01*
D02*
X271Y1563D02*
X322Y1393D01*
D02*
X195Y1563D02*
X271Y1563D01*
D02*
X312Y1343D02*
X457Y1343D01*
D02*
X261Y1463D02*
X312Y1343D01*
D02*
X195Y1463D02*
X261Y1463D01*
D02*
X261Y1363D02*
X304Y1293D01*
D02*
X304Y1293D02*
X457Y1293D01*
D02*
X195Y1363D02*
X261Y1363D01*
D02*
X261Y1263D02*
X304Y1244D01*
D02*
X304Y1244D02*
X457Y1244D01*
D02*
X195Y1263D02*
X261Y1263D01*
G54D16*
D02*
X261Y1163D02*
X304Y1194D01*
D02*
X304Y1194D02*
X457Y1194D01*
D02*
X195Y1163D02*
X261Y1163D01*
D02*
X261Y1063D02*
X304Y1144D01*
D02*
X304Y1144D02*
X457Y1144D01*
D02*
X195Y1063D02*
X261Y1063D01*
D02*
X261Y963D02*
X312Y1094D01*
D02*
X312Y1094D02*
X457Y1094D01*
D02*
X195Y963D02*
X261Y963D01*
G54D15*
D02*
X271Y863D02*
X322Y1045D01*
D02*
X322Y1045D02*
X457Y1045D01*
D02*
X195Y863D02*
X271Y863D01*
D02*
X281Y763D02*
X332Y995D01*
D02*
X332Y995D02*
X457Y995D01*
D02*
X195Y763D02*
X281Y763D01*
D02*
X294Y663D02*
X347Y945D01*
D02*
X347Y945D02*
X457Y945D01*
D02*
X195Y663D02*
X294Y663D01*
D02*
X304Y563D02*
X363Y895D01*
D02*
X363Y895D02*
X457Y895D01*
D02*
X195Y563D02*
X304Y563D01*
D02*
X324Y463D02*
X382Y845D01*
D02*
X382Y845D02*
X457Y845D01*
D02*
X195Y463D02*
X324Y463D01*
D02*
X343Y363D02*
X402Y796D01*
D02*
X402Y796D02*
X457Y796D01*
D02*
X195Y363D02*
X343Y363D01*
D02*
X363Y263D02*
X422Y746D01*
D02*
X422Y746D02*
X457Y746D01*
D02*
X195Y263D02*
X363Y263D01*
D02*
X383Y163D02*
X442Y696D01*
D02*
X442Y696D02*
X457Y696D01*
D02*
X195Y163D02*
X383Y163D01*
D02*
X1191Y1741D02*
X1180Y1741D01*
D02*
X1264Y2262D02*
X1191Y1741D01*
D02*
X1447Y2262D02*
X1264Y2262D01*
D02*
X1211Y1692D02*
X1180Y1692D01*
D02*
X1283Y2162D02*
X1211Y1692D01*
D02*
X1447Y2162D02*
X1283Y2162D01*
D02*
X1234Y1642D02*
X1180Y1642D01*
D02*
X1303Y2062D02*
X1234Y1642D01*
D02*
X1447Y2062D02*
X1303Y2062D01*
D02*
X1254Y1592D02*
X1180Y1592D01*
D02*
X1323Y1962D02*
X1254Y1592D01*
D02*
X1447Y1962D02*
X1323Y1962D01*
D02*
X1273Y1542D02*
X1180Y1542D01*
D02*
X1343Y1862D02*
X1273Y1542D01*
D02*
X1447Y1862D02*
X1343Y1862D01*
D02*
X1293Y1492D02*
X1180Y1492D01*
D02*
X1353Y1762D02*
X1293Y1492D01*
D02*
X1447Y1762D02*
X1353Y1762D01*
D02*
X1313Y1443D02*
X1180Y1443D01*
D02*
X1362Y1662D02*
X1313Y1443D01*
D02*
X1447Y1662D02*
X1362Y1662D01*
D02*
X1326Y1393D02*
X1180Y1393D01*
D02*
X1372Y1562D02*
X1326Y1393D01*
D02*
X1447Y1562D02*
X1372Y1562D01*
D02*
X1343Y1343D02*
X1180Y1343D01*
D02*
X1382Y1462D02*
X1343Y1343D01*
D02*
X1447Y1462D02*
X1382Y1462D01*
D02*
X1353Y1293D02*
X1180Y1293D01*
D02*
X1382Y1362D02*
X1353Y1293D01*
D02*
X1447Y1362D02*
X1382Y1362D01*
D02*
X1353Y1244D02*
X1180Y1244D01*
D02*
X1382Y1262D02*
X1353Y1244D01*
D02*
X1447Y1262D02*
X1382Y1262D01*
G54D16*
D02*
X1382Y1162D02*
X1353Y1194D01*
D02*
X1353Y1194D02*
X1180Y1194D01*
D02*
X1447Y1162D02*
X1382Y1162D01*
D02*
X1353Y1144D02*
X1180Y1144D01*
D02*
X1382Y1062D02*
X1353Y1144D01*
D02*
X1447Y1062D02*
X1382Y1062D01*
G54D15*
D02*
X1343Y1094D02*
X1180Y1094D01*
D02*
X1382Y962D02*
X1343Y1094D01*
D02*
X1447Y962D02*
X1382Y962D01*
D02*
X1326Y1045D02*
X1180Y1045D01*
D02*
X1372Y862D02*
X1326Y1045D01*
D02*
X1447Y862D02*
X1372Y862D01*
D02*
X1313Y995D02*
X1180Y995D01*
D02*
X1362Y762D02*
X1313Y995D01*
D02*
X1447Y762D02*
X1362Y762D01*
D02*
X1293Y945D02*
X1180Y945D01*
D02*
X1353Y662D02*
X1293Y945D01*
D02*
X1447Y662D02*
X1353Y662D01*
D02*
X1273Y895D02*
X1180Y895D01*
D02*
X1343Y562D02*
X1273Y895D01*
D02*
X1447Y562D02*
X1343Y562D01*
D02*
X1254Y845D02*
X1180Y845D01*
D02*
X1323Y462D02*
X1254Y845D01*
D02*
X1447Y462D02*
X1323Y462D01*
D02*
X1234Y796D02*
X1180Y796D01*
D02*
X1303Y362D02*
X1234Y796D01*
D02*
X1447Y362D02*
X1303Y362D01*
D02*
X1211Y746D02*
X1180Y746D01*
D02*
X1283Y262D02*
X1211Y746D01*
D02*
X1447Y262D02*
X1283Y262D01*
G54D16*
D02*
X1191Y696D02*
X1180Y696D01*
D02*
X1264Y162D02*
X1191Y696D01*
D02*
X1447Y162D02*
X1264Y162D01*
D02*
X657Y1892D02*
X657Y1828D01*
D02*
X571Y2140D02*
X657Y1892D01*
D02*
X571Y2239D02*
X571Y2140D01*
D02*
X731Y1892D02*
X731Y1828D01*
D02*
X671Y2140D02*
X731Y1892D01*
D02*
X671Y2239D02*
X671Y2140D01*
D02*
X828Y1892D02*
X828Y1828D01*
D02*
X771Y2140D02*
X828Y1892D01*
D02*
X771Y2239D02*
X771Y2140D01*
D02*
X872Y2239D02*
X877Y1828D01*
D02*
X929Y1892D02*
X929Y1828D01*
D02*
X971Y2140D02*
X929Y1892D01*
D02*
X971Y2239D02*
X971Y2140D01*
D02*
X979Y1892D02*
X979Y1828D01*
D02*
X1071Y2140D02*
X979Y1892D01*
D02*
X1071Y2239D02*
X1071Y2140D01*
G04 End of Copper1*
M02*