G04 MADE WITH FRITZING*
G04 WWW.FRITZING.ORG*
G04 DOUBLE SIDED*
G04 HOLES PLATED*
G04 CONTOUR ON CENTER OF CONTOUR VECTOR*
%ASAXBY*%
%FSLAX23Y23*%
%MOIN*%
%OFA0B0*%
%SFA1.0B1.0*%
%ADD10C,0.088000*%
%ADD11R,0.129113X0.037432*%
%ADD12R,0.129113X0.037418*%
%ADD13R,0.037789X0.127580*%
%ADD14R,0.037803X0.127580*%
%LNMASK1*%
G90*
G70*
G54D10*
X1472Y2262D03*
X1472Y2162D03*
X1472Y2062D03*
X1472Y1962D03*
X1472Y1862D03*
X1472Y1762D03*
X1472Y1662D03*
X1472Y1562D03*
X1472Y1462D03*
X1472Y1362D03*
X1472Y1262D03*
X1472Y1162D03*
X1472Y1062D03*
X1472Y962D03*
X1472Y862D03*
X1472Y762D03*
X1472Y662D03*
X1472Y562D03*
X1472Y462D03*
X1472Y362D03*
X1472Y262D03*
X1472Y162D03*
X171Y2263D03*
X171Y2163D03*
X171Y2063D03*
X171Y1963D03*
X171Y1863D03*
X171Y1763D03*
X171Y1663D03*
X171Y1563D03*
X171Y1463D03*
X171Y1363D03*
X171Y1263D03*
X171Y1163D03*
X171Y1063D03*
X171Y963D03*
X171Y863D03*
X171Y763D03*
X171Y663D03*
X171Y563D03*
X171Y463D03*
X171Y363D03*
X171Y263D03*
X171Y163D03*
X1071Y2263D03*
X971Y2263D03*
X871Y2263D03*
X771Y2263D03*
X671Y2263D03*
X571Y2263D03*
G54D11*
X511Y1741D03*
X511Y1692D03*
X511Y1642D03*
X511Y1592D03*
X511Y1542D03*
X511Y1492D03*
X511Y1443D03*
X511Y1393D03*
X511Y1343D03*
X511Y1293D03*
X511Y1244D03*
X511Y1194D03*
G54D12*
X511Y1144D03*
X511Y1094D03*
X511Y1045D03*
X511Y995D03*
X511Y945D03*
X511Y895D03*
X511Y845D03*
X511Y796D03*
X511Y746D03*
X511Y696D03*
X1126Y696D03*
X1126Y746D03*
X1126Y796D03*
X1126Y845D03*
X1126Y895D03*
X1126Y945D03*
X1126Y995D03*
X1126Y1045D03*
X1126Y1094D03*
X1126Y1144D03*
G54D11*
X1126Y1194D03*
X1126Y1244D03*
X1126Y1293D03*
X1126Y1343D03*
X1126Y1393D03*
X1126Y1443D03*
X1126Y1492D03*
X1126Y1542D03*
X1126Y1592D03*
X1126Y1642D03*
X1126Y1692D03*
X1126Y1741D03*
G54D13*
X979Y1775D03*
X929Y1775D03*
X878Y1775D03*
G54D14*
X828Y1775D03*
G54D13*
X731Y1775D03*
X657Y1775D03*
G04 End of Mask1*
M02*