G04 MADE WITH FRITZING*
G04 WWW.FRITZING.ORG*
G04 DOUBLE SIDED*
G04 HOLES PLATED*
G04 CONTOUR ON CENTER OF CONTOUR VECTOR*
%ASAXBY*%
%FSLAX23Y23*%
%MOIN*%
%OFA0B0*%
%SFA1.0B1.0*%
%ADD10C,0.049370*%
%ADD11C,0.088000*%
%ADD12R,0.023779X0.138281*%
%ADD13R,0.065000X0.022000*%
%LNMASK1*%
G90*
G70*
G54D10*
X1598Y2136D03*
X1599Y1861D03*
X1599Y1473D03*
X1599Y1197D03*
X1599Y810D03*
X1599Y536D03*
X407Y1575D03*
X407Y2002D03*
X1795Y2136D03*
X1795Y1861D03*
X1795Y1473D03*
X1795Y1197D03*
X1795Y810D03*
X1795Y536D03*
X1653Y1998D03*
X1749Y1998D03*
X1653Y1336D03*
X1749Y1336D03*
X1653Y673D03*
X1749Y673D03*
X250Y2002D03*
X250Y1574D03*
G54D11*
X2412Y2186D03*
X2412Y2086D03*
X2412Y1986D03*
X2412Y1886D03*
X2412Y1786D03*
X2412Y1686D03*
X2412Y1586D03*
X2412Y1486D03*
X2412Y1386D03*
X2412Y1286D03*
X2412Y1186D03*
X2412Y1086D03*
X2412Y986D03*
X2412Y886D03*
X2412Y786D03*
X2412Y686D03*
X2412Y586D03*
X2412Y486D03*
X2412Y2186D03*
X2412Y2086D03*
X2412Y1986D03*
X2412Y1886D03*
X2412Y1786D03*
X2412Y1686D03*
X2412Y1586D03*
X2412Y1486D03*
X2412Y1386D03*
X2412Y1286D03*
X2412Y1186D03*
X2412Y1086D03*
X2412Y986D03*
X2412Y886D03*
X2412Y786D03*
X2412Y686D03*
X2412Y586D03*
X2412Y486D03*
X2512Y486D03*
X2512Y586D03*
X2512Y686D03*
X2512Y786D03*
X2512Y886D03*
X2512Y986D03*
X2512Y1086D03*
X2512Y1186D03*
X2512Y1286D03*
X2512Y1386D03*
X2512Y1486D03*
X2512Y1586D03*
X2512Y1686D03*
X2512Y1786D03*
X2512Y1886D03*
X2512Y1986D03*
X2512Y2086D03*
X2512Y2186D03*
X3009Y1386D03*
X3009Y1286D03*
X3009Y1186D03*
X3009Y1086D03*
X3009Y986D03*
X3009Y886D03*
X3009Y786D03*
X3009Y686D03*
X3009Y586D03*
X3009Y486D03*
X3009Y1386D03*
X3009Y1286D03*
X3009Y1186D03*
X3009Y1086D03*
X3009Y986D03*
X3009Y886D03*
X3009Y786D03*
X3009Y686D03*
X3009Y586D03*
X3009Y486D03*
X3109Y486D03*
X3109Y586D03*
X3109Y686D03*
X3109Y786D03*
X3109Y886D03*
X3109Y986D03*
X3109Y1086D03*
X3109Y1186D03*
X3109Y1286D03*
X3109Y1386D03*
X287Y1386D03*
X287Y1286D03*
X287Y1186D03*
X287Y1086D03*
X287Y986D03*
X287Y886D03*
X287Y786D03*
X287Y686D03*
X287Y586D03*
X287Y486D03*
X287Y1386D03*
X287Y1286D03*
X287Y1186D03*
X287Y1086D03*
X287Y986D03*
X287Y886D03*
X287Y786D03*
X287Y686D03*
X287Y586D03*
X287Y486D03*
X387Y486D03*
X387Y586D03*
X387Y686D03*
X387Y786D03*
X387Y886D03*
X387Y986D03*
X387Y1086D03*
X387Y1186D03*
X387Y1286D03*
X387Y1386D03*
X890Y2186D03*
X890Y2086D03*
X890Y1986D03*
X890Y1886D03*
X890Y1786D03*
X890Y1686D03*
X890Y1586D03*
X890Y1486D03*
X890Y1386D03*
X890Y1286D03*
X890Y1186D03*
X890Y1086D03*
X890Y986D03*
X890Y886D03*
X890Y786D03*
X890Y686D03*
X890Y586D03*
X890Y486D03*
X890Y2186D03*
X890Y2086D03*
X890Y1986D03*
X890Y1886D03*
X890Y1786D03*
X890Y1686D03*
X890Y1586D03*
X890Y1486D03*
X890Y1386D03*
X890Y1286D03*
X890Y1186D03*
X890Y1086D03*
X890Y986D03*
X890Y886D03*
X890Y786D03*
X890Y686D03*
X890Y586D03*
X890Y486D03*
X990Y486D03*
X990Y586D03*
X990Y686D03*
X990Y786D03*
X990Y886D03*
X990Y986D03*
X990Y1086D03*
X990Y1186D03*
X990Y1286D03*
X990Y1386D03*
X990Y1486D03*
X990Y1586D03*
X990Y1686D03*
X990Y1786D03*
X990Y1886D03*
X990Y1986D03*
X990Y2086D03*
X990Y2186D03*
G54D12*
X375Y1894D03*
X350Y1894D03*
X325Y1894D03*
X300Y1894D03*
X300Y1683D03*
X325Y1683D03*
X350Y1683D03*
X375Y1683D03*
G54D13*
X1520Y2286D03*
X1520Y2261D03*
X1520Y2236D03*
X1520Y2211D03*
X1520Y2186D03*
X1520Y2161D03*
X1520Y2136D03*
X1520Y2111D03*
X1520Y2086D03*
X1520Y2061D03*
X1520Y2036D03*
X1520Y2011D03*
X1520Y1986D03*
X1520Y1961D03*
X1520Y1936D03*
X1520Y1911D03*
X1520Y1886D03*
X1520Y1861D03*
X1520Y1836D03*
X1520Y1811D03*
X1520Y1786D03*
X1520Y1761D03*
X1520Y1736D03*
X1520Y1711D03*
X1873Y1711D03*
X1873Y1736D03*
X1873Y1761D03*
X1873Y1786D03*
X1873Y1811D03*
X1873Y1836D03*
X1873Y1861D03*
X1873Y1886D03*
X1873Y1911D03*
X1873Y1936D03*
X1873Y1961D03*
X1873Y1986D03*
X1873Y2011D03*
X1873Y2036D03*
X1873Y2061D03*
X1873Y2086D03*
X1873Y2111D03*
X1873Y2136D03*
X1873Y2161D03*
X1873Y2186D03*
X1873Y2211D03*
X1873Y2236D03*
X1873Y2261D03*
X1873Y2286D03*
X1520Y1623D03*
X1520Y1598D03*
X1520Y1573D03*
X1520Y1548D03*
X1520Y1523D03*
X1520Y1498D03*
X1520Y1473D03*
X1520Y1448D03*
X1520Y1423D03*
X1520Y1398D03*
X1520Y1373D03*
X1520Y1348D03*
X1520Y1323D03*
X1520Y1298D03*
X1520Y1273D03*
X1520Y1248D03*
X1520Y1223D03*
X1520Y1198D03*
X1520Y1173D03*
X1520Y1148D03*
X1520Y1123D03*
X1520Y1098D03*
X1520Y1073D03*
X1520Y1048D03*
X1873Y1048D03*
X1873Y1073D03*
X1873Y1098D03*
X1873Y1123D03*
X1873Y1148D03*
X1873Y1173D03*
X1873Y1198D03*
X1873Y1223D03*
X1873Y1248D03*
X1873Y1273D03*
X1873Y1298D03*
X1873Y1323D03*
X1873Y1348D03*
X1873Y1373D03*
X1873Y1398D03*
X1873Y1423D03*
X1873Y1448D03*
X1873Y1473D03*
X1873Y1498D03*
X1873Y1523D03*
X1873Y1548D03*
X1873Y1573D03*
X1873Y1598D03*
X1873Y1623D03*
X1520Y960D03*
X1520Y935D03*
X1520Y910D03*
X1520Y885D03*
X1520Y860D03*
X1520Y835D03*
X1520Y810D03*
X1520Y785D03*
X1520Y760D03*
X1520Y735D03*
X1520Y710D03*
X1520Y685D03*
X1520Y660D03*
X1520Y635D03*
X1520Y610D03*
X1520Y585D03*
X1520Y560D03*
X1520Y535D03*
X1520Y510D03*
X1520Y485D03*
X1520Y460D03*
X1520Y435D03*
X1520Y410D03*
X1520Y385D03*
X1873Y385D03*
X1873Y410D03*
X1873Y435D03*
X1873Y460D03*
X1873Y485D03*
X1873Y510D03*
X1873Y535D03*
X1873Y560D03*
X1873Y585D03*
X1873Y610D03*
X1873Y635D03*
X1873Y660D03*
X1873Y685D03*
X1873Y710D03*
X1873Y735D03*
X1873Y760D03*
X1873Y785D03*
X1873Y810D03*
X1873Y835D03*
X1873Y860D03*
X1873Y885D03*
X1873Y910D03*
X1873Y935D03*
X1873Y960D03*
G04 End of Mask1*
M02*