; NON-PLATED HOLES START AT T1
; THROUGH (PLATED) HOLES START AT T100
M48
INCH
T1C0.125984
T100C0.015748
T101C0.038000
%
T1
X005898Y020124
X037985Y001032
X035436Y020133
X005511Y001032
T100
X034449Y017248
X036226Y014915
X014431Y003998
X033560Y018415
X013431Y013035
X019021Y007998
X020021Y008998
X012431Y010998
X033115Y018998
X011431Y011998
X015431Y004998
X021021Y009998
X034004Y017832
X016431Y005998
X035338Y016082
X034893Y016665
X018021Y006998
X035782Y015498
T101
X038086Y009995
X008431Y020008
X019021Y020012
X037086Y012995
X036048Y001032
X031060Y007998
X038086Y016995
X030059Y020031
X015431Y020008
X030048Y001032
X009431Y020008
X038086Y004995
X037086Y018995
X031060Y002998
X031059Y020031
X016431Y020008
X038086Y011995
X037086Y006995
X031048Y001032
X014068Y001032
X032060Y006998
X029059Y020031
X010431Y020008
X029048Y001032
X037086Y013995
X031060Y008998
X023056Y001032
X038086Y017995
X015068Y001032
X011431Y020008
X038086Y005995
X037086Y019995
X022021Y020012
X031060Y003998
X024056Y001032
X038086Y012995
X037086Y007995
X016068Y001032
X032060Y007998
X012431Y020008
X031060Y010998
X023021Y020012
X037086Y014995
X031060Y009998
X025056Y001032
X038086Y018995
X037086Y002995
X032060Y002998
X032059Y020031
X038086Y006995
X011068Y001032
X032048Y001032
X031060Y004998
X038086Y013995
X037086Y008995
X032060Y008998
X020056Y001032
X033059Y020031
X031060Y011998
X033048Y001032
X037086Y015995
X038086Y019995
X037086Y003995
X032060Y003998
X038086Y007995
X017068Y001032
X037086Y010995
X013431Y020008
X032060Y010998
X031060Y005998
X024021Y020012
X038086Y014995
X037086Y009995
X032060Y009998
X026056Y001032
X018021Y020012
X018068Y001032
X038086Y002995
X037086Y016995
X014431Y020008
X012068Y001032
X025021Y020012
X027059Y020031
X037086Y004995
X027056Y001032
X032060Y004998
X038086Y008995
X021056Y001032
X037086Y011995
X034059Y020031
X013068Y001032
X032060Y011998
X031060Y006998
X034048Y001032
X028059Y020031
X038086Y015995
X020021Y020012
X038086Y003995
X007431Y020008
X022056Y001032
X037086Y017995
X035048Y001032
X038086Y010995
X037086Y005995
X032060Y005998
X021021Y020012
T00
M30
