; NON-PLATED HOLES START AT T1
; THROUGH (PLATED) HOLES START AT T100
M48
INCH
T100C0.015748
T101C0.038000
%
T100
X017950Y018614
X017950Y005355
X002499Y015744
X017493Y013355
X017493Y006725
X017950Y021355
X017950Y014725
X017950Y011972
X016530Y013355
X016530Y006725
X002499Y020021
X017493Y019984
X015987Y008095
X016530Y019984
X015987Y018614
X015987Y005355
X004074Y020021
X015984Y021355
X004074Y015750
X017950Y008095
X015987Y014725
X015987Y011972
T101
X008898Y014855
X024120Y016855
X025120Y010855
X002872Y009858
X009898Y007855
X025120Y009855
X008898Y021855
X024120Y004855
X003872Y010858
X009898Y014855
X031094Y010858
X030094Y005858
X025120Y016855
X003872Y009858
X024120Y011855
X002872Y004858
X031094Y009858
X008898Y008855
X009898Y021855
X025120Y004855
X030094Y012858
X002872Y011858
X008898Y015855
X024120Y017855
X025120Y011855
X003872Y004858
X009898Y008855
X031094Y004858
X024120Y005855
X003872Y011858
X009898Y015855
X031094Y011858
X030094Y006858
X025120Y017855
X008898Y010855
X024120Y012855
X002872Y005858
X008898Y009855
X025120Y005855
X030094Y013858
X002872Y012858
X008898Y016855
X009898Y010855
X024120Y018855
X025120Y012855
X003872Y005858
X009898Y009855
X031094Y005858
X008898Y004855
X024120Y006855
X003872Y012858
X009898Y016855
X031094Y012858
X030094Y007858
X025120Y018855
X008898Y011855
X024120Y013855
X002872Y006858
X009898Y004855
X025120Y006855
X024120Y020855
X002872Y013858
X008898Y017855
X009898Y011855
X024120Y019855
X025120Y013855
X003872Y006858
X031094Y006858
X008898Y005855
X024120Y007855
X025120Y020855
X003872Y013858
X009898Y017855
X031094Y013858
X030094Y008858
X025120Y019855
X008898Y012855
X024120Y014855
X002872Y007858
X009898Y005855
X025120Y007855
X024120Y021855
X008898Y018855
X009898Y012855
X025120Y014855
X003872Y007858
X031094Y007858
X008898Y006855
X024120Y008855
X030094Y010858
X025120Y021855
X009898Y018855
X030094Y009858
X008898Y013855
X024120Y015855
X002872Y008858
X009898Y006855
X025120Y008855
X008898Y020855
X008898Y019855
X009898Y013855
X030094Y004858
X025120Y015855
X003872Y008858
X024120Y010855
X031094Y008858
X008898Y007855
X024120Y009855
X009898Y020855
X030094Y011858
X002872Y010858
X009898Y019855
T00
M30
