G04 MADE WITH FRITZING*
G04 WWW.FRITZING.ORG*
G04 DOUBLE SIDED*
G04 HOLES PLATED*
G04 CONTOUR ON CENTER OF CONTOUR VECTOR*
%ASAXBY*%
%FSLAX23Y23*%
%MOIN*%
%OFA0B0*%
%SFA1.0B1.0*%
%ADD10C,0.078000*%
%ADD11C,0.039370*%
%ADD12C,0.024000*%
%LNCOPPER1*%
G90*
G70*
G54D10*
X1802Y2001D03*
X1902Y2001D03*
X2002Y2001D03*
X2102Y2001D03*
X2202Y2001D03*
X2302Y2001D03*
X2402Y2001D03*
X2502Y2001D03*
X3106Y1200D03*
X3106Y1100D03*
X3106Y1000D03*
X3106Y900D03*
X3106Y800D03*
X3106Y700D03*
X3106Y600D03*
X3106Y500D03*
X3106Y400D03*
X3106Y300D03*
X3106Y1200D03*
X3106Y1100D03*
X3106Y1000D03*
X3106Y900D03*
X3106Y800D03*
X3106Y700D03*
X3106Y600D03*
X3106Y500D03*
X3106Y400D03*
X3106Y300D03*
X3206Y300D03*
X3206Y400D03*
X3206Y500D03*
X3206Y600D03*
X3206Y700D03*
X3206Y800D03*
X3206Y900D03*
X3206Y1000D03*
X3206Y1100D03*
X3206Y1200D03*
X743Y2001D03*
X843Y2001D03*
X943Y2001D03*
X1043Y2001D03*
X1143Y2001D03*
X1243Y2001D03*
X1343Y2001D03*
X1443Y2001D03*
X1543Y2001D03*
X1643Y2001D03*
X2905Y103D03*
X3005Y103D03*
X3105Y103D03*
X3205Y103D03*
X3305Y103D03*
X3405Y103D03*
X3505Y103D03*
X3605Y103D03*
X1107Y103D03*
X1207Y103D03*
X1307Y103D03*
X1407Y103D03*
X1507Y103D03*
X1607Y103D03*
X1707Y103D03*
X1807Y103D03*
X3709Y2000D03*
X3709Y1900D03*
X3709Y1800D03*
X3709Y1700D03*
X3709Y1600D03*
X3709Y1500D03*
X3709Y1400D03*
X3709Y1300D03*
X3709Y1200D03*
X3709Y1100D03*
X3709Y1000D03*
X3709Y900D03*
X3709Y800D03*
X3709Y700D03*
X3709Y600D03*
X3709Y500D03*
X3709Y400D03*
X3709Y300D03*
X3709Y2000D03*
X3709Y1900D03*
X3709Y1800D03*
X3709Y1700D03*
X3709Y1600D03*
X3709Y1500D03*
X3709Y1400D03*
X3709Y1300D03*
X3709Y1200D03*
X3709Y1100D03*
X3709Y1000D03*
X3709Y900D03*
X3709Y800D03*
X3709Y700D03*
X3709Y600D03*
X3709Y500D03*
X3709Y400D03*
X3709Y300D03*
X3809Y300D03*
X3809Y400D03*
X3809Y500D03*
X3809Y600D03*
X3809Y700D03*
X3809Y800D03*
X3809Y900D03*
X3809Y1000D03*
X3809Y1100D03*
X3809Y1200D03*
X3809Y1300D03*
X3809Y1400D03*
X3809Y1500D03*
X3809Y1600D03*
X3809Y1700D03*
X3809Y1800D03*
X3809Y1900D03*
X3809Y2000D03*
X2706Y2003D03*
X2806Y2003D03*
X2906Y2003D03*
X3006Y2003D03*
X3106Y2003D03*
X3206Y2003D03*
X3306Y2003D03*
X3406Y2003D03*
X2006Y103D03*
X2106Y103D03*
X2206Y103D03*
X2306Y103D03*
X2406Y103D03*
X2506Y103D03*
X2606Y103D03*
X2706Y103D03*
G54D11*
X1143Y1200D03*
X1243Y1100D03*
X1343Y1304D03*
X3623Y1492D03*
X3578Y1550D03*
X3534Y1608D03*
X3489Y1667D03*
X3445Y1725D03*
X3400Y1783D03*
X3356Y1842D03*
X3312Y1900D03*
X2102Y1000D03*
X2002Y900D03*
X1902Y800D03*
X1802Y700D03*
X1643Y600D03*
X1543Y500D03*
X1443Y400D03*
G54D12*
X1243Y1130D02*
X1243Y1982D01*
D02*
X1343Y1334D02*
X1343Y1982D01*
D02*
X1443Y430D02*
X1443Y1982D01*
D02*
X1543Y530D02*
X1543Y1982D01*
D02*
X1643Y630D02*
X1643Y1982D01*
D02*
X1802Y730D02*
X1802Y1982D01*
D02*
X1902Y830D02*
X1902Y1982D01*
D02*
X2002Y930D02*
X2002Y1982D01*
D02*
X2102Y1030D02*
X2102Y1982D01*
D02*
X1143Y1230D02*
X1143Y1982D01*
D02*
X2202Y1522D02*
X2202Y2001D01*
D02*
X3623Y1492D02*
X2221Y1492D01*
D02*
X2302Y1580D02*
X2302Y2001D01*
D02*
X3578Y1550D02*
X2321Y1550D01*
D02*
X2706Y1638D02*
X2706Y2003D01*
D02*
X3534Y1608D02*
X2725Y1608D01*
D02*
X2806Y1697D02*
X2806Y2003D01*
D02*
X3489Y1667D02*
X2825Y1667D01*
D02*
X2906Y1755D02*
X2906Y2003D01*
D02*
X3445Y1725D02*
X2925Y1725D01*
D02*
X3006Y1813D02*
X3006Y2003D01*
D02*
X3400Y1783D02*
X3025Y1783D01*
D02*
X3106Y1872D02*
X3106Y2003D01*
D02*
X3356Y1842D02*
X3125Y1842D01*
D02*
X3206Y1930D02*
X3206Y2003D01*
D02*
X3312Y1900D02*
X3225Y1900D01*
G04 End of Copper1*
M02*