G04 MADE WITH FRITZING*
G04 WWW.FRITZING.ORG*
G04 DOUBLE SIDED*
G04 HOLES PLATED*
G04 CONTOUR ON CENTER OF CONTOUR VECTOR*
%ASAXBY*%
%FSLAX23Y23*%
%MOIN*%
%OFA0B0*%
%SFA1.0B1.0*%
%ADD10C,0.049370*%
%ADD11C,0.088000*%
%LNMASK0*%
G90*
G70*
G54D10*
X1598Y2136D03*
X1599Y1861D03*
X1599Y1473D03*
X1599Y1197D03*
X1599Y810D03*
X1599Y536D03*
X407Y1575D03*
X407Y2002D03*
X1795Y2136D03*
X1795Y1861D03*
X1795Y1473D03*
X1795Y1197D03*
X1795Y810D03*
X1795Y536D03*
X1653Y1998D03*
X1749Y1998D03*
X1653Y1336D03*
X1749Y1336D03*
X1653Y673D03*
X1749Y673D03*
X250Y2002D03*
X250Y1574D03*
G54D11*
X2412Y2186D03*
X2412Y2086D03*
X2412Y1986D03*
X2412Y1886D03*
X2412Y1786D03*
X2412Y1686D03*
X2412Y1586D03*
X2412Y1486D03*
X2412Y1386D03*
X2412Y1286D03*
X2412Y1186D03*
X2412Y1086D03*
X2412Y986D03*
X2412Y886D03*
X2412Y786D03*
X2412Y686D03*
X2412Y586D03*
X2412Y486D03*
X2412Y2186D03*
X2412Y2086D03*
X2412Y1986D03*
X2412Y1886D03*
X2412Y1786D03*
X2412Y1686D03*
X2412Y1586D03*
X2412Y1486D03*
X2412Y1386D03*
X2412Y1286D03*
X2412Y1186D03*
X2412Y1086D03*
X2412Y986D03*
X2412Y886D03*
X2412Y786D03*
X2412Y686D03*
X2412Y586D03*
X2412Y486D03*
X2512Y486D03*
X2512Y586D03*
X2512Y686D03*
X2512Y786D03*
X2512Y886D03*
X2512Y986D03*
X2512Y1086D03*
X2512Y1186D03*
X2512Y1286D03*
X2512Y1386D03*
X2512Y1486D03*
X2512Y1586D03*
X2512Y1686D03*
X2512Y1786D03*
X2512Y1886D03*
X2512Y1986D03*
X2512Y2086D03*
X2512Y2186D03*
X3009Y1386D03*
X3009Y1286D03*
X3009Y1186D03*
X3009Y1086D03*
X3009Y986D03*
X3009Y886D03*
X3009Y786D03*
X3009Y686D03*
X3009Y586D03*
X3009Y486D03*
X3009Y1386D03*
X3009Y1286D03*
X3009Y1186D03*
X3009Y1086D03*
X3009Y986D03*
X3009Y886D03*
X3009Y786D03*
X3009Y686D03*
X3009Y586D03*
X3009Y486D03*
X3109Y486D03*
X3109Y586D03*
X3109Y686D03*
X3109Y786D03*
X3109Y886D03*
X3109Y986D03*
X3109Y1086D03*
X3109Y1186D03*
X3109Y1286D03*
X3109Y1386D03*
X287Y1386D03*
X287Y1286D03*
X287Y1186D03*
X287Y1086D03*
X287Y986D03*
X287Y886D03*
X287Y786D03*
X287Y686D03*
X287Y586D03*
X287Y486D03*
X287Y1386D03*
X287Y1286D03*
X287Y1186D03*
X287Y1086D03*
X287Y986D03*
X287Y886D03*
X287Y786D03*
X287Y686D03*
X287Y586D03*
X287Y486D03*
X387Y486D03*
X387Y586D03*
X387Y686D03*
X387Y786D03*
X387Y886D03*
X387Y986D03*
X387Y1086D03*
X387Y1186D03*
X387Y1286D03*
X387Y1386D03*
X890Y2186D03*
X890Y2086D03*
X890Y1986D03*
X890Y1886D03*
X890Y1786D03*
X890Y1686D03*
X890Y1586D03*
X890Y1486D03*
X890Y1386D03*
X890Y1286D03*
X890Y1186D03*
X890Y1086D03*
X890Y986D03*
X890Y886D03*
X890Y786D03*
X890Y686D03*
X890Y586D03*
X890Y486D03*
X890Y2186D03*
X890Y2086D03*
X890Y1986D03*
X890Y1886D03*
X890Y1786D03*
X890Y1686D03*
X890Y1586D03*
X890Y1486D03*
X890Y1386D03*
X890Y1286D03*
X890Y1186D03*
X890Y1086D03*
X890Y986D03*
X890Y886D03*
X890Y786D03*
X890Y686D03*
X890Y586D03*
X890Y486D03*
X990Y486D03*
X990Y586D03*
X990Y686D03*
X990Y786D03*
X990Y886D03*
X990Y986D03*
X990Y1086D03*
X990Y1186D03*
X990Y1286D03*
X990Y1386D03*
X990Y1486D03*
X990Y1586D03*
X990Y1686D03*
X990Y1786D03*
X990Y1886D03*
X990Y1986D03*
X990Y2086D03*
X990Y2186D03*
G04 End of Mask0*
M02*