G04 MADE WITH FRITZING*
G04 WWW.FRITZING.ORG*
G04 DOUBLE SIDED*
G04 HOLES PLATED*
G04 CONTOUR ON CENTER OF CONTOUR VECTOR*
%ASAXBY*%
%FSLAX23Y23*%
%MOIN*%
%OFA0B0*%
%SFA1.0B1.0*%
%ADD10C,0.008*%
%LNCONTOUR*%
G90*
G70*
G54D10*
X36Y2102D02*
X37Y2102D01*
X38Y2102D01*
X39Y2102D01*
X40Y2102D01*
X41Y2102D01*
X42Y2102D01*
X43Y2102D01*
X44Y2102D01*
X45Y2102D01*
X46Y2102D01*
X47Y2102D01*
X48Y2102D01*
X49Y2102D01*
X50Y2102D01*
X51Y2102D01*
X52Y2102D01*
X53Y2102D01*
X54Y2102D01*
X55Y2102D01*
X56Y2102D01*
X57Y2102D01*
X58Y2102D01*
X59Y2102D01*
X60Y2102D01*
X61Y2102D01*
X62Y2102D01*
X63Y2102D01*
X64Y2102D01*
X65Y2102D01*
X66Y2102D01*
X67Y2102D01*
X68Y2102D01*
X69Y2102D01*
X70Y2102D01*
X71Y2102D01*
X72Y2102D01*
X73Y2102D01*
X74Y2102D01*
X75Y2102D01*
X76Y2102D01*
X77Y2102D01*
X78Y2102D01*
X79Y2102D01*
X80Y2102D01*
X81Y2102D01*
X82Y2102D01*
X83Y2102D01*
X84Y2102D01*
X85Y2102D01*
X86Y2102D01*
X87Y2102D01*
X88Y2102D01*
X89Y2102D01*
X90Y2102D01*
X91Y2102D01*
X92Y2102D01*
X93Y2102D01*
X94Y2102D01*
X95Y2102D01*
X96Y2102D01*
X97Y2102D01*
X98Y2102D01*
X99Y2102D01*
X100Y2102D01*
X101Y2102D01*
X102Y2102D01*
X103Y2102D01*
X104Y2102D01*
X105Y2102D01*
X106Y2102D01*
X107Y2102D01*
X108Y2102D01*
X109Y2102D01*
X110Y2102D01*
X111Y2102D01*
X112Y2102D01*
X113Y2102D01*
X114Y2102D01*
X115Y2102D01*
X116Y2102D01*
X117Y2102D01*
X118Y2102D01*
X119Y2102D01*
X120Y2102D01*
X121Y2102D01*
X122Y2102D01*
X123Y2102D01*
X124Y2102D01*
X125Y2102D01*
X126Y2102D01*
X127Y2102D01*
X128Y2102D01*
X129Y2102D01*
X130Y2102D01*
X131Y2102D01*
X132Y2102D01*
X133Y2102D01*
X134Y2102D01*
X135Y2102D01*
X136Y2102D01*
X137Y2102D01*
X138Y2102D01*
X139Y2102D01*
X140Y2102D01*
X141Y2102D01*
X142Y2102D01*
X143Y2102D01*
X144Y2102D01*
X145Y2102D01*
X146Y2102D01*
X147Y2102D01*
X148Y2102D01*
X149Y2102D01*
X150Y2102D01*
X151Y2102D01*
X152Y2102D01*
X153Y2102D01*
X154Y2102D01*
X155Y2102D01*
X156Y2102D01*
X157Y2102D01*
X158Y2102D01*
X159Y2102D01*
X160Y2102D01*
X161Y2102D01*
X162Y2102D01*
X163Y2102D01*
X164Y2102D01*
X165Y2102D01*
X166Y2102D01*
X167Y2102D01*
X168Y2102D01*
X169Y2102D01*
X170Y2102D01*
X171Y2102D01*
X172Y2102D01*
X173Y2102D01*
X174Y2102D01*
X175Y2102D01*
X176Y2102D01*
X177Y2102D01*
X178Y2102D01*
X179Y2102D01*
X180Y2102D01*
X181Y2102D01*
X182Y2102D01*
X183Y2102D01*
X184Y2102D01*
X185Y2102D01*
X186Y2102D01*
X187Y2102D01*
X188Y2102D01*
X189Y2102D01*
X190Y2102D01*
X191Y2102D01*
X192Y2102D01*
X193Y2102D01*
X194Y2102D01*
X195Y2102D01*
X196Y2102D01*
X197Y2102D01*
X198Y2102D01*
X199Y2102D01*
X200Y2102D01*
X201Y2102D01*
X202Y2102D01*
X203Y2102D01*
X204Y2102D01*
X205Y2102D01*
X206Y2102D01*
X207Y2102D01*
X208Y2102D01*
X209Y2102D01*
X210Y2102D01*
X211Y2102D01*
X212Y2102D01*
X213Y2102D01*
X214Y2102D01*
X215Y2102D01*
X216Y2102D01*
X217Y2102D01*
X218Y2102D01*
X219Y2102D01*
X220Y2102D01*
X221Y2102D01*
X222Y2102D01*
X223Y2102D01*
X224Y2102D01*
X225Y2102D01*
X226Y2102D01*
X227Y2102D01*
X228Y2102D01*
X229Y2102D01*
X230Y2102D01*
X231Y2102D01*
X232Y2102D01*
X233Y2102D01*
X234Y2102D01*
X235Y2102D01*
X236Y2102D01*
X237Y2102D01*
X238Y2102D01*
X239Y2102D01*
X240Y2102D01*
X241Y2102D01*
X242Y2102D01*
X243Y2102D01*
X244Y2102D01*
X245Y2102D01*
X246Y2102D01*
X247Y2102D01*
X248Y2102D01*
X249Y2102D01*
X250Y2102D01*
X251Y2102D01*
X252Y2102D01*
X253Y2102D01*
X254Y2102D01*
X255Y2102D01*
X256Y2102D01*
X257Y2102D01*
X258Y2102D01*
X259Y2102D01*
X260Y2102D01*
X261Y2102D01*
X262Y2102D01*
X263Y2102D01*
X264Y2102D01*
X265Y2102D01*
X266Y2102D01*
X267Y2102D01*
X268Y2102D01*
X269Y2102D01*
X270Y2102D01*
X271Y2102D01*
X272Y2102D01*
X273Y2102D01*
X274Y2102D01*
X275Y2102D01*
X276Y2102D01*
X277Y2102D01*
X278Y2102D01*
X279Y2102D01*
X280Y2102D01*
X281Y2102D01*
X282Y2102D01*
X283Y2102D01*
X284Y2102D01*
X285Y2102D01*
X286Y2102D01*
X287Y2102D01*
X288Y2102D01*
X289Y2102D01*
X290Y2102D01*
X291Y2102D01*
X292Y2102D01*
X293Y2102D01*
X294Y2102D01*
X295Y2102D01*
X296Y2102D01*
X297Y2102D01*
X298Y2102D01*
X299Y2102D01*
X300Y2102D01*
X301Y2102D01*
X302Y2102D01*
X303Y2102D01*
X304Y2102D01*
X305Y2102D01*
X306Y2102D01*
X307Y2102D01*
X308Y2102D01*
X309Y2102D01*
X310Y2102D01*
X311Y2102D01*
X312Y2102D01*
X313Y2102D01*
X314Y2102D01*
X315Y2102D01*
X316Y2102D01*
X317Y2102D01*
X318Y2102D01*
X319Y2102D01*
X320Y2102D01*
X321Y2102D01*
X322Y2102D01*
X323Y2102D01*
X324Y2102D01*
X325Y2102D01*
X326Y2102D01*
X327Y2102D01*
X328Y2102D01*
X329Y2102D01*
X330Y2102D01*
X331Y2102D01*
X332Y2102D01*
X333Y2102D01*
X334Y2102D01*
X335Y2102D01*
X336Y2102D01*
X337Y2102D01*
X338Y2102D01*
X339Y2102D01*
X340Y2102D01*
X341Y2102D01*
X342Y2102D01*
X343Y2102D01*
X344Y2102D01*
X345Y2102D01*
X346Y2102D01*
X347Y2102D01*
X348Y2102D01*
X349Y2102D01*
X350Y2102D01*
X351Y2102D01*
X352Y2102D01*
X353Y2102D01*
X354Y2102D01*
X355Y2102D01*
X356Y2102D01*
X357Y2102D01*
X358Y2102D01*
X359Y2102D01*
X360Y2102D01*
X361Y2102D01*
X362Y2102D01*
X363Y2102D01*
X364Y2102D01*
X365Y2102D01*
X366Y2102D01*
X367Y2102D01*
X368Y2102D01*
X369Y2102D01*
X370Y2102D01*
X371Y2102D01*
X372Y2102D01*
X373Y2102D01*
X374Y2102D01*
X375Y2102D01*
X376Y2102D01*
X377Y2102D01*
X378Y2102D01*
X379Y2102D01*
X380Y2102D01*
X381Y2102D01*
X382Y2102D01*
X383Y2102D01*
X384Y2102D01*
X385Y2102D01*
X386Y2102D01*
X387Y2102D01*
X388Y2102D01*
X389Y2102D01*
X390Y2102D01*
X391Y2102D01*
X392Y2102D01*
X393Y2102D01*
X394Y2102D01*
X395Y2102D01*
X396Y2102D01*
X397Y2102D01*
X398Y2102D01*
X399Y2102D01*
X400Y2102D01*
X401Y2102D01*
X402Y2102D01*
X403Y2102D01*
X404Y2102D01*
X405Y2102D01*
X406Y2102D01*
X407Y2102D01*
X408Y2102D01*
X409Y2102D01*
X410Y2102D01*
X411Y2102D01*
X412Y2102D01*
X413Y2102D01*
X414Y2102D01*
X415Y2102D01*
X416Y2102D01*
X417Y2102D01*
X418Y2102D01*
X419Y2102D01*
X420Y2102D01*
X421Y2102D01*
X422Y2102D01*
X423Y2102D01*
X424Y2102D01*
X425Y2102D01*
X426Y2102D01*
X427Y2102D01*
X428Y2102D01*
X429Y2102D01*
X430Y2102D01*
X431Y2102D01*
X432Y2102D01*
X433Y2102D01*
X434Y2102D01*
X435Y2102D01*
X436Y2102D01*
X437Y2102D01*
X438Y2102D01*
X439Y2102D01*
X440Y2102D01*
X441Y2102D01*
X442Y2102D01*
X443Y2102D01*
X444Y2102D01*
X445Y2102D01*
X446Y2102D01*
X447Y2102D01*
X448Y2102D01*
X449Y2102D01*
X450Y2102D01*
X451Y2102D01*
X452Y2102D01*
X453Y2102D01*
X454Y2102D01*
X455Y2102D01*
X456Y2102D01*
X457Y2102D01*
X458Y2102D01*
X459Y2102D01*
X460Y2102D01*
X461Y2102D01*
X462Y2102D01*
X463Y2102D01*
X464Y2102D01*
X465Y2102D01*
X466Y2102D01*
X467Y2102D01*
X468Y2102D01*
X469Y2102D01*
X470Y2102D01*
X471Y2102D01*
X472Y2102D01*
X473Y2102D01*
X474Y2102D01*
X475Y2102D01*
X476Y2102D01*
X477Y2102D01*
X478Y2102D01*
X479Y2102D01*
X480Y2102D01*
X481Y2102D01*
X482Y2102D01*
X483Y2102D01*
X484Y2102D01*
X485Y2102D01*
X486Y2102D01*
X487Y2102D01*
X488Y2102D01*
X489Y2102D01*
X490Y2102D01*
X491Y2102D01*
X492Y2102D01*
X493Y2102D01*
X494Y2102D01*
X495Y2102D01*
X496Y2102D01*
X497Y2102D01*
X498Y2102D01*
X499Y2102D01*
X500Y2102D01*
X501Y2102D01*
X502Y2102D01*
X503Y2102D01*
X504Y2102D01*
X505Y2102D01*
X506Y2102D01*
X507Y2102D01*
X508Y2102D01*
X509Y2102D01*
X510Y2102D01*
X511Y2102D01*
X512Y2102D01*
X513Y2102D01*
X514Y2102D01*
X515Y2102D01*
X516Y2102D01*
X517Y2102D01*
X518Y2102D01*
X519Y2102D01*
X520Y2102D01*
X521Y2102D01*
X522Y2102D01*
X523Y2102D01*
X524Y2102D01*
X525Y2102D01*
X526Y2102D01*
X527Y2102D01*
X528Y2102D01*
X529Y2102D01*
X530Y2102D01*
X531Y2102D01*
X532Y2102D01*
X533Y2102D01*
X534Y2102D01*
X535Y2102D01*
X536Y2102D01*
X537Y2102D01*
X538Y2102D01*
X539Y2102D01*
X540Y2102D01*
X541Y2102D01*
X542Y2102D01*
X543Y2102D01*
X544Y2102D01*
X545Y2102D01*
X546Y2102D01*
X547Y2102D01*
X548Y2102D01*
X549Y2102D01*
X550Y2102D01*
X551Y2102D01*
X552Y2102D01*
X553Y2102D01*
X554Y2102D01*
X555Y2102D01*
X556Y2102D01*
X557Y2102D01*
X558Y2102D01*
X559Y2102D01*
X560Y2102D01*
X561Y2102D01*
X562Y2102D01*
X563Y2102D01*
X564Y2102D01*
X565Y2102D01*
X566Y2102D01*
X567Y2102D01*
X568Y2102D01*
X569Y2102D01*
X570Y2102D01*
X571Y2102D01*
X572Y2102D01*
X573Y2102D01*
X574Y2102D01*
X575Y2102D01*
X576Y2102D01*
X577Y2102D01*
X578Y2102D01*
X579Y2102D01*
X580Y2102D01*
X581Y2102D01*
X582Y2102D01*
X583Y2102D01*
X584Y2102D01*
X585Y2102D01*
X586Y2102D01*
X587Y2102D01*
X588Y2102D01*
X589Y2102D01*
X590Y2102D01*
X591Y2102D01*
X592Y2102D01*
X593Y2102D01*
X594Y2102D01*
X595Y2102D01*
X596Y2102D01*
X597Y2102D01*
X598Y2102D01*
X599Y2102D01*
X600Y2102D01*
X601Y2102D01*
X602Y2102D01*
X603Y2102D01*
X604Y2102D01*
X605Y2102D01*
X606Y2102D01*
X607Y2102D01*
X608Y2102D01*
X609Y2102D01*
X610Y2102D01*
X611Y2102D01*
X612Y2102D01*
X613Y2102D01*
X614Y2102D01*
X615Y2102D01*
X616Y2102D01*
X617Y2102D01*
X618Y2102D01*
X619Y2102D01*
X620Y2102D01*
X621Y2102D01*
X622Y2102D01*
X623Y2102D01*
X624Y2102D01*
X625Y2102D01*
X626Y2102D01*
X627Y2102D01*
X628Y2102D01*
X629Y2102D01*
X630Y2102D01*
X631Y2102D01*
X632Y2102D01*
X633Y2102D01*
X634Y2102D01*
X635Y2102D01*
X636Y2102D01*
X637Y2102D01*
X638Y2102D01*
X639Y2102D01*
X640Y2102D01*
X641Y2102D01*
X642Y2102D01*
X643Y2102D01*
X644Y2102D01*
X645Y2102D01*
X646Y2102D01*
X647Y2102D01*
X648Y2102D01*
X649Y2102D01*
X650Y2102D01*
X651Y2102D01*
X652Y2102D01*
X653Y2102D01*
X654Y2102D01*
X655Y2102D01*
X656Y2102D01*
X657Y2102D01*
X658Y2102D01*
X659Y2102D01*
X660Y2102D01*
X661Y2102D01*
X662Y2102D01*
X663Y2102D01*
X664Y2102D01*
X665Y2102D01*
X666Y2102D01*
X667Y2102D01*
X668Y2102D01*
X669Y2102D01*
X670Y2102D01*
X671Y2102D01*
X672Y2102D01*
X673Y2102D01*
X674Y2102D01*
X675Y2102D01*
X676Y2102D01*
X677Y2102D01*
X678Y2102D01*
X679Y2102D01*
X680Y2102D01*
X681Y2102D01*
X682Y2102D01*
X683Y2102D01*
X684Y2102D01*
X685Y2102D01*
X686Y2102D01*
X687Y2102D01*
X688Y2102D01*
X689Y2102D01*
X690Y2102D01*
X691Y2102D01*
X692Y2102D01*
X693Y2102D01*
X694Y2102D01*
X695Y2102D01*
X696Y2102D01*
X697Y2102D01*
X698Y2102D01*
X699Y2102D01*
X700Y2102D01*
X701Y2102D01*
X702Y2102D01*
X703Y2102D01*
X704Y2102D01*
X705Y2102D01*
X706Y2102D01*
X707Y2102D01*
X708Y2102D01*
X709Y2102D01*
X710Y2102D01*
X711Y2102D01*
X712Y2102D01*
X713Y2102D01*
X714Y2102D01*
X715Y2102D01*
X716Y2102D01*
X717Y2102D01*
X718Y2102D01*
X719Y2102D01*
X720Y2102D01*
X721Y2102D01*
X722Y2102D01*
X723Y2102D01*
X724Y2102D01*
X725Y2102D01*
X726Y2102D01*
X727Y2102D01*
X728Y2102D01*
X729Y2102D01*
X730Y2102D01*
X731Y2102D01*
X732Y2102D01*
X733Y2102D01*
X734Y2102D01*
X735Y2102D01*
X736Y2102D01*
X737Y2102D01*
X738Y2102D01*
X739Y2102D01*
X740Y2102D01*
X741Y2102D01*
X742Y2102D01*
X743Y2102D01*
X744Y2102D01*
X745Y2102D01*
X746Y2102D01*
X747Y2102D01*
X748Y2102D01*
X749Y2102D01*
X750Y2102D01*
X751Y2102D01*
X752Y2102D01*
X753Y2102D01*
X754Y2102D01*
X755Y2102D01*
X756Y2102D01*
X757Y2102D01*
X758Y2102D01*
X759Y2102D01*
X760Y2102D01*
X761Y2102D01*
X762Y2102D01*
X763Y2102D01*
X764Y2102D01*
X765Y2102D01*
X766Y2102D01*
X767Y2102D01*
X768Y2102D01*
X769Y2102D01*
X770Y2102D01*
X771Y2102D01*
X772Y2102D01*
X773Y2102D01*
X774Y2102D01*
X775Y2102D01*
X776Y2102D01*
X777Y2102D01*
X778Y2102D01*
X779Y2102D01*
X780Y2102D01*
X781Y2102D01*
X782Y2102D01*
X783Y2102D01*
X784Y2102D01*
X785Y2102D01*
X786Y2102D01*
X787Y2102D01*
X788Y2102D01*
X789Y2102D01*
X790Y2102D01*
X791Y2102D01*
X792Y2102D01*
X793Y2102D01*
X794Y2102D01*
X795Y2102D01*
X796Y2102D01*
X797Y2102D01*
X798Y2102D01*
X799Y2102D01*
X800Y2102D01*
X801Y2102D01*
X802Y2102D01*
X803Y2102D01*
X804Y2102D01*
X805Y2102D01*
X806Y2102D01*
X807Y2102D01*
X808Y2102D01*
X809Y2102D01*
X810Y2102D01*
X811Y2102D01*
X812Y2102D01*
X813Y2102D01*
X814Y2102D01*
X815Y2102D01*
X816Y2102D01*
X817Y2102D01*
X818Y2102D01*
X819Y2102D01*
X820Y2102D01*
X821Y2102D01*
X822Y2102D01*
X823Y2102D01*
X824Y2102D01*
X825Y2102D01*
X826Y2102D01*
X827Y2102D01*
X828Y2102D01*
X829Y2102D01*
X830Y2102D01*
X831Y2102D01*
X832Y2102D01*
X833Y2102D01*
X834Y2102D01*
X835Y2102D01*
X836Y2102D01*
X837Y2102D01*
X838Y2102D01*
X839Y2102D01*
X840Y2102D01*
X841Y2102D01*
X842Y2102D01*
X843Y2102D01*
X844Y2102D01*
X845Y2102D01*
X846Y2102D01*
X847Y2102D01*
X848Y2102D01*
X849Y2102D01*
X850Y2102D01*
X851Y2102D01*
X852Y2102D01*
X853Y2102D01*
X854Y2102D01*
X855Y2102D01*
X856Y2102D01*
X857Y2102D01*
X858Y2102D01*
X859Y2102D01*
X860Y2102D01*
X861Y2102D01*
X862Y2102D01*
X863Y2102D01*
X864Y2102D01*
X865Y2102D01*
X866Y2102D01*
X867Y2102D01*
X868Y2102D01*
X869Y2102D01*
X870Y2102D01*
X871Y2102D01*
X872Y2102D01*
X873Y2102D01*
X874Y2102D01*
X875Y2102D01*
X876Y2102D01*
X877Y2102D01*
X878Y2102D01*
X879Y2102D01*
X880Y2102D01*
X881Y2102D01*
X882Y2102D01*
X883Y2102D01*
X884Y2102D01*
X885Y2102D01*
X886Y2102D01*
X887Y2102D01*
X888Y2102D01*
X889Y2102D01*
X890Y2102D01*
X891Y2102D01*
X892Y2102D01*
X893Y2102D01*
X894Y2102D01*
X895Y2102D01*
X896Y2102D01*
X897Y2102D01*
X898Y2102D01*
X899Y2102D01*
X900Y2102D01*
X901Y2102D01*
X902Y2102D01*
X903Y2102D01*
X904Y2102D01*
X905Y2102D01*
X906Y2102D01*
X907Y2102D01*
X908Y2102D01*
X909Y2102D01*
X910Y2102D01*
X911Y2102D01*
X912Y2102D01*
X913Y2102D01*
X914Y2102D01*
X915Y2102D01*
X916Y2102D01*
X917Y2102D01*
X918Y2102D01*
X919Y2102D01*
X920Y2102D01*
X921Y2102D01*
X922Y2102D01*
X923Y2102D01*
X924Y2102D01*
X925Y2102D01*
X926Y2102D01*
X927Y2102D01*
X928Y2102D01*
X929Y2102D01*
X930Y2102D01*
X931Y2102D01*
X932Y2102D01*
X933Y2102D01*
X934Y2102D01*
X935Y2102D01*
X936Y2102D01*
X937Y2102D01*
X938Y2102D01*
X939Y2102D01*
X940Y2102D01*
X941Y2102D01*
X942Y2102D01*
X943Y2102D01*
X944Y2102D01*
X945Y2102D01*
X946Y2102D01*
X947Y2102D01*
X948Y2102D01*
X949Y2102D01*
X950Y2102D01*
X951Y2102D01*
X952Y2102D01*
X953Y2102D01*
X954Y2102D01*
X955Y2102D01*
X956Y2102D01*
X957Y2102D01*
X958Y2102D01*
X959Y2102D01*
X960Y2102D01*
X961Y2102D01*
X962Y2102D01*
X963Y2102D01*
X964Y2102D01*
X965Y2102D01*
X966Y2102D01*
X967Y2102D01*
X968Y2102D01*
X969Y2102D01*
X970Y2102D01*
X971Y2102D01*
X972Y2102D01*
X973Y2102D01*
X974Y2102D01*
X975Y2102D01*
X976Y2102D01*
X977Y2102D01*
X978Y2102D01*
X979Y2102D01*
X980Y2102D01*
X981Y2102D01*
X982Y2102D01*
X983Y2102D01*
X984Y2102D01*
X985Y2102D01*
X986Y2102D01*
X987Y2102D01*
X988Y2102D01*
X989Y2102D01*
X990Y2102D01*
X991Y2102D01*
X992Y2102D01*
X993Y2102D01*
X994Y2102D01*
X995Y2102D01*
X996Y2102D01*
X997Y2102D01*
X998Y2102D01*
X999Y2102D01*
X1000Y2102D01*
X1001Y2102D01*
X1002Y2102D01*
X1003Y2102D01*
X1004Y2102D01*
X1005Y2102D01*
X1006Y2102D01*
X1007Y2102D01*
X1008Y2102D01*
X1009Y2102D01*
X1010Y2102D01*
X1011Y2102D01*
X1012Y2102D01*
X1013Y2102D01*
X1014Y2102D01*
X1015Y2102D01*
X1016Y2102D01*
X1017Y2102D01*
X1018Y2102D01*
X1019Y2102D01*
X1020Y2102D01*
X1021Y2102D01*
X1022Y2102D01*
X1023Y2102D01*
X1024Y2102D01*
X1025Y2102D01*
X1026Y2102D01*
X1027Y2102D01*
X1028Y2102D01*
X1029Y2102D01*
X1030Y2102D01*
X1031Y2102D01*
X1032Y2102D01*
X1033Y2102D01*
X1034Y2102D01*
X1035Y2102D01*
X1036Y2102D01*
X1037Y2102D01*
X1038Y2102D01*
X1039Y2102D01*
X1040Y2102D01*
X1041Y2102D01*
X1042Y2102D01*
X1043Y2102D01*
X1044Y2102D01*
X1045Y2102D01*
X1046Y2102D01*
X1047Y2102D01*
X1048Y2102D01*
X1049Y2102D01*
X1050Y2102D01*
X1051Y2102D01*
X1052Y2102D01*
X1053Y2102D01*
X1054Y2102D01*
X1055Y2102D01*
X1056Y2102D01*
X1057Y2102D01*
X1058Y2102D01*
X1059Y2102D01*
X1060Y2102D01*
X1061Y2102D01*
X1062Y2102D01*
X1063Y2102D01*
X1064Y2102D01*
X1065Y2102D01*
X1066Y2102D01*
X1067Y2102D01*
X1068Y2102D01*
X1069Y2102D01*
X1070Y2102D01*
X1071Y2102D01*
X1072Y2102D01*
X1073Y2102D01*
X1074Y2102D01*
X1075Y2102D01*
X1076Y2102D01*
X1077Y2102D01*
X1078Y2102D01*
X1079Y2102D01*
X1080Y2102D01*
X1081Y2102D01*
X1082Y2102D01*
X1083Y2102D01*
X1084Y2102D01*
X1085Y2102D01*
X1086Y2102D01*
X1087Y2102D01*
X1088Y2102D01*
X1089Y2102D01*
X1090Y2102D01*
X1091Y2102D01*
X1092Y2102D01*
X1093Y2102D01*
X1094Y2102D01*
X1095Y2102D01*
X1096Y2102D01*
X1097Y2102D01*
X1098Y2102D01*
X1099Y2102D01*
X1100Y2102D01*
X1101Y2102D01*
X1102Y2102D01*
X1103Y2102D01*
X1104Y2102D01*
X1105Y2102D01*
X1106Y2102D01*
X1107Y2102D01*
X1108Y2102D01*
X1109Y2102D01*
X1110Y2102D01*
X1111Y2102D01*
X1112Y2102D01*
X1113Y2102D01*
X1114Y2102D01*
X1115Y2102D01*
X1116Y2102D01*
X1117Y2102D01*
X1118Y2102D01*
X1119Y2102D01*
X1120Y2102D01*
X1121Y2102D01*
X1122Y2102D01*
X1123Y2102D01*
X1124Y2102D01*
X1125Y2102D01*
X1126Y2102D01*
X1127Y2102D01*
X1128Y2102D01*
X1129Y2102D01*
X1130Y2102D01*
X1131Y2102D01*
X1132Y2102D01*
X1133Y2102D01*
X1134Y2102D01*
X1135Y2102D01*
X1136Y2102D01*
X1137Y2102D01*
X1138Y2102D01*
X1139Y2102D01*
X1140Y2102D01*
X1141Y2102D01*
X1142Y2102D01*
X1143Y2102D01*
X1144Y2102D01*
X1145Y2102D01*
X1146Y2102D01*
X1147Y2102D01*
X1148Y2102D01*
X1149Y2102D01*
X1150Y2102D01*
X1151Y2102D01*
X1152Y2102D01*
X1153Y2102D01*
X1154Y2102D01*
X1155Y2102D01*
X1156Y2102D01*
X1157Y2102D01*
X1158Y2102D01*
X1159Y2102D01*
X1160Y2102D01*
X1161Y2102D01*
X1162Y2102D01*
X1163Y2102D01*
X1164Y2102D01*
X1165Y2102D01*
X1166Y2102D01*
X1167Y2102D01*
X1168Y2102D01*
X1169Y2102D01*
X1170Y2102D01*
X1171Y2102D01*
X1172Y2102D01*
X1173Y2102D01*
X1174Y2102D01*
X1175Y2102D01*
X1176Y2102D01*
X1177Y2102D01*
X1178Y2102D01*
X1179Y2102D01*
X1180Y2102D01*
X1181Y2102D01*
X1182Y2102D01*
X1183Y2102D01*
X1184Y2102D01*
X1185Y2102D01*
X1186Y2102D01*
X1187Y2102D01*
X1188Y2102D01*
X1189Y2102D01*
X1190Y2102D01*
X1191Y2102D01*
X1192Y2102D01*
X1193Y2102D01*
X1194Y2102D01*
X1195Y2102D01*
X1196Y2102D01*
X1197Y2102D01*
X1198Y2102D01*
X1199Y2102D01*
X1200Y2102D01*
X1201Y2102D01*
X1202Y2102D01*
X1203Y2102D01*
X1204Y2102D01*
X1205Y2102D01*
X1206Y2102D01*
X1207Y2102D01*
X1208Y2102D01*
X1209Y2102D01*
X1210Y2102D01*
X1211Y2102D01*
X1212Y2102D01*
X1213Y2102D01*
X1214Y2102D01*
X1215Y2102D01*
X1216Y2102D01*
X1217Y2102D01*
X1218Y2102D01*
X1219Y2102D01*
X1220Y2102D01*
X1221Y2102D01*
X1222Y2102D01*
X1223Y2102D01*
X1224Y2102D01*
X1225Y2102D01*
X1226Y2102D01*
X1227Y2102D01*
X1228Y2102D01*
X1229Y2102D01*
X1230Y2102D01*
X1231Y2102D01*
X1232Y2102D01*
X1233Y2102D01*
X1234Y2102D01*
X1235Y2102D01*
X1236Y2102D01*
X1237Y2102D01*
X1238Y2102D01*
X1239Y2102D01*
X1240Y2102D01*
X1241Y2102D01*
X1242Y2102D01*
X1243Y2102D01*
X1244Y2102D01*
X1245Y2102D01*
X1246Y2102D01*
X1247Y2102D01*
X1248Y2102D01*
X1249Y2102D01*
X1250Y2102D01*
X1251Y2102D01*
X1252Y2102D01*
X1253Y2102D01*
X1254Y2102D01*
X1255Y2102D01*
X1256Y2102D01*
X1257Y2102D01*
X1258Y2102D01*
X1259Y2102D01*
X1260Y2102D01*
X1261Y2102D01*
X1262Y2102D01*
X1263Y2102D01*
X1264Y2102D01*
X1265Y2102D01*
X1266Y2102D01*
X1267Y2102D01*
X1268Y2102D01*
X1269Y2102D01*
X1270Y2102D01*
X1271Y2102D01*
X1272Y2102D01*
X1273Y2102D01*
X1274Y2102D01*
X1275Y2102D01*
X1276Y2102D01*
X1277Y2102D01*
X1278Y2102D01*
X1279Y2102D01*
X1280Y2102D01*
X1281Y2102D01*
X1282Y2102D01*
X1283Y2102D01*
X1284Y2102D01*
X1285Y2102D01*
X1286Y2102D01*
X1287Y2102D01*
X1288Y2102D01*
X1289Y2102D01*
X1290Y2102D01*
X1291Y2102D01*
X1292Y2102D01*
X1293Y2102D01*
X1294Y2102D01*
X1295Y2102D01*
X1296Y2102D01*
X1297Y2102D01*
X1298Y2102D01*
X1299Y2102D01*
X1300Y2102D01*
X1301Y2102D01*
X1302Y2102D01*
X1303Y2102D01*
X1304Y2102D01*
X1305Y2102D01*
X1306Y2102D01*
X1307Y2102D01*
X1308Y2102D01*
X1309Y2102D01*
X1310Y2102D01*
X1311Y2102D01*
X1312Y2102D01*
X1313Y2102D01*
X1314Y2102D01*
X1315Y2102D01*
X1316Y2102D01*
X1317Y2102D01*
X1318Y2102D01*
X1319Y2102D01*
X1320Y2102D01*
X1321Y2102D01*
X1322Y2102D01*
X1323Y2102D01*
X1324Y2102D01*
X1325Y2102D01*
X1326Y2102D01*
X1327Y2102D01*
X1328Y2102D01*
X1329Y2102D01*
X1330Y2102D01*
X1331Y2102D01*
X1332Y2102D01*
X1333Y2102D01*
X1334Y2102D01*
X1335Y2102D01*
X1336Y2102D01*
X1337Y2102D01*
X1338Y2102D01*
X1339Y2102D01*
X1340Y2102D01*
X1341Y2102D01*
X1342Y2102D01*
X1343Y2102D01*
X1344Y2102D01*
X1345Y2102D01*
X1346Y2102D01*
X1347Y2102D01*
X1348Y2102D01*
X1349Y2102D01*
X1350Y2102D01*
X1351Y2102D01*
X1352Y2102D01*
X1353Y2102D01*
X1354Y2102D01*
X1355Y2102D01*
X1356Y2102D01*
X1357Y2102D01*
X1358Y2102D01*
X1359Y2102D01*
X1360Y2102D01*
X1361Y2102D01*
X1362Y2102D01*
X1363Y2102D01*
X1364Y2102D01*
X1365Y2102D01*
X1366Y2102D01*
X1367Y2102D01*
X1368Y2102D01*
X1369Y2102D01*
X1370Y2102D01*
X1371Y2102D01*
X1372Y2102D01*
X1373Y2102D01*
X1374Y2102D01*
X1375Y2102D01*
X1376Y2102D01*
X1377Y2102D01*
X1378Y2102D01*
X1379Y2102D01*
X1380Y2102D01*
X1381Y2102D01*
X1382Y2102D01*
X1383Y2102D01*
X1384Y2102D01*
X1385Y2102D01*
X1386Y2102D01*
X1387Y2102D01*
X1388Y2102D01*
X1389Y2102D01*
X1390Y2102D01*
X1391Y2102D01*
X1392Y2102D01*
X1393Y2102D01*
X1394Y2102D01*
X1395Y2102D01*
X1396Y2102D01*
X1397Y2102D01*
X1398Y2102D01*
X1399Y2102D01*
X1400Y2102D01*
X1401Y2102D01*
X1402Y2102D01*
X1403Y2102D01*
X1404Y2102D01*
X1405Y2102D01*
X1406Y2102D01*
X1407Y2102D01*
X1408Y2102D01*
X1409Y2102D01*
X1410Y2102D01*
X1411Y2102D01*
X1412Y2102D01*
X1413Y2102D01*
X1414Y2102D01*
X1415Y2102D01*
X1416Y2102D01*
X1417Y2102D01*
X1418Y2102D01*
X1419Y2102D01*
X1420Y2102D01*
X1421Y2102D01*
X1422Y2102D01*
X1423Y2102D01*
X1424Y2102D01*
X1425Y2102D01*
X1426Y2102D01*
X1427Y2102D01*
X1428Y2102D01*
X1429Y2102D01*
X1430Y2102D01*
X1431Y2102D01*
X1432Y2102D01*
X1433Y2102D01*
X1434Y2102D01*
X1435Y2102D01*
X1436Y2102D01*
X1437Y2102D01*
X1438Y2102D01*
X1439Y2102D01*
X1440Y2102D01*
X1441Y2102D01*
X1442Y2102D01*
X1443Y2102D01*
X1444Y2102D01*
X1445Y2102D01*
X1446Y2102D01*
X1447Y2102D01*
X1448Y2102D01*
X1449Y2102D01*
X1450Y2102D01*
X1451Y2102D01*
X1452Y2102D01*
X1453Y2102D01*
X1454Y2102D01*
X1455Y2102D01*
X1456Y2102D01*
X1457Y2102D01*
X1458Y2102D01*
X1459Y2102D01*
X1460Y2102D01*
X1461Y2102D01*
X1462Y2102D01*
X1463Y2102D01*
X1464Y2102D01*
X1465Y2102D01*
X1466Y2102D01*
X1467Y2102D01*
X1468Y2102D01*
X1469Y2102D01*
X1470Y2102D01*
X1471Y2102D01*
X1472Y2102D01*
X1473Y2102D01*
X1474Y2102D01*
X1475Y2102D01*
X1476Y2102D01*
X1477Y2102D01*
X1478Y2102D01*
X1479Y2102D01*
X1480Y2102D01*
X1481Y2102D01*
X1482Y2102D01*
X1483Y2102D01*
X1484Y2102D01*
X1485Y2102D01*
X1486Y2102D01*
X1487Y2102D01*
X1488Y2102D01*
X1489Y2102D01*
X1490Y2102D01*
X1491Y2102D01*
X1492Y2102D01*
X1493Y2102D01*
X1494Y2102D01*
X1495Y2102D01*
X1496Y2102D01*
X1497Y2102D01*
X1498Y2102D01*
X1499Y2102D01*
X1500Y2102D01*
X1501Y2102D01*
X1502Y2102D01*
X1503Y2102D01*
X1504Y2102D01*
X1505Y2102D01*
X1506Y2102D01*
X1507Y2102D01*
X1508Y2102D01*
X1509Y2102D01*
X1510Y2102D01*
X1511Y2102D01*
X1512Y2102D01*
X1513Y2102D01*
X1514Y2102D01*
X1515Y2102D01*
X1516Y2102D01*
X1517Y2102D01*
X1518Y2102D01*
X1519Y2102D01*
X1520Y2102D01*
X1521Y2102D01*
X1522Y2102D01*
X1523Y2102D01*
X1524Y2102D01*
X1525Y2102D01*
X1526Y2102D01*
X1527Y2102D01*
X1528Y2102D01*
X1529Y2102D01*
X1530Y2102D01*
X1531Y2102D01*
X1532Y2102D01*
X1533Y2102D01*
X1534Y2102D01*
X1535Y2102D01*
X1536Y2102D01*
X1537Y2102D01*
X1538Y2102D01*
X1539Y2102D01*
X1540Y2102D01*
X1541Y2102D01*
X1542Y2102D01*
X1543Y2102D01*
X1544Y2102D01*
X1545Y2102D01*
X1546Y2102D01*
X1547Y2102D01*
X1548Y2102D01*
X1549Y2102D01*
X1550Y2102D01*
X1551Y2102D01*
X1552Y2102D01*
X1553Y2102D01*
X1554Y2102D01*
X1555Y2102D01*
X1556Y2102D01*
X1557Y2102D01*
X1558Y2102D01*
X1559Y2102D01*
X1560Y2102D01*
X1561Y2102D01*
X1562Y2102D01*
X1563Y2102D01*
X1564Y2102D01*
X1565Y2102D01*
X1566Y2102D01*
X1567Y2102D01*
X1568Y2102D01*
X1569Y2102D01*
X1570Y2102D01*
X1571Y2102D01*
X1572Y2102D01*
X1573Y2102D01*
X1574Y2102D01*
X1575Y2102D01*
X1576Y2102D01*
X1577Y2102D01*
X1578Y2102D01*
X1579Y2102D01*
X1580Y2102D01*
X1581Y2102D01*
X1582Y2102D01*
X1583Y2102D01*
X1584Y2102D01*
X1585Y2102D01*
X1586Y2102D01*
X1587Y2102D01*
X1588Y2102D01*
X1589Y2102D01*
X1590Y2102D01*
X1591Y2102D01*
X1592Y2102D01*
X1593Y2102D01*
X1594Y2102D01*
X1595Y2102D01*
X1596Y2102D01*
X1597Y2102D01*
X1598Y2102D01*
X1599Y2102D01*
X1600Y2102D01*
X1601Y2102D01*
X1602Y2102D01*
X1603Y2102D01*
X1604Y2102D01*
X1605Y2102D01*
X1606Y2102D01*
X1607Y2102D01*
X1608Y2102D01*
X1609Y2102D01*
X1610Y2102D01*
X1611Y2102D01*
X1612Y2102D01*
X1613Y2102D01*
X1614Y2102D01*
X1615Y2102D01*
X1616Y2102D01*
X1617Y2102D01*
X1618Y2102D01*
X1619Y2102D01*
X1620Y2102D01*
X1621Y2102D01*
X1622Y2102D01*
X1623Y2102D01*
X1624Y2102D01*
X1625Y2102D01*
X1626Y2102D01*
X1627Y2102D01*
X1628Y2102D01*
X1629Y2102D01*
X1630Y2102D01*
X1631Y2102D01*
X1632Y2102D01*
X1633Y2102D01*
X1634Y2102D01*
X1635Y2102D01*
X1636Y2102D01*
X1637Y2102D01*
X1638Y2102D01*
X1639Y2102D01*
X1640Y2102D01*
X1641Y2102D01*
X1642Y2102D01*
X1643Y2102D01*
X1644Y2102D01*
X1645Y2102D01*
X1646Y2102D01*
X1647Y2102D01*
X1648Y2102D01*
X1649Y2102D01*
X1650Y2102D01*
X1651Y2102D01*
X1652Y2102D01*
X1653Y2102D01*
X1654Y2102D01*
X1655Y2102D01*
X1656Y2102D01*
X1657Y2102D01*
X1658Y2102D01*
X1659Y2102D01*
X1660Y2102D01*
X1661Y2102D01*
X1662Y2102D01*
X1663Y2102D01*
X1664Y2102D01*
X1665Y2102D01*
X1666Y2102D01*
X1667Y2102D01*
X1668Y2102D01*
X1669Y2102D01*
X1670Y2102D01*
X1671Y2102D01*
X1672Y2102D01*
X1673Y2102D01*
X1674Y2102D01*
X1675Y2102D01*
X1676Y2102D01*
X1677Y2102D01*
X1678Y2102D01*
X1679Y2102D01*
X1680Y2102D01*
X1681Y2102D01*
X1682Y2102D01*
X1683Y2102D01*
X1684Y2102D01*
X1685Y2102D01*
X1686Y2102D01*
X1687Y2102D01*
X1688Y2102D01*
X1689Y2102D01*
X1690Y2102D01*
X1691Y2102D01*
X1692Y2102D01*
X1693Y2102D01*
X1694Y2102D01*
X1695Y2102D01*
X1696Y2102D01*
X1697Y2102D01*
X1698Y2102D01*
X1699Y2102D01*
X1700Y2102D01*
X1701Y2102D01*
X1702Y2102D01*
X1703Y2102D01*
X1704Y2102D01*
X1705Y2102D01*
X1706Y2102D01*
X1707Y2102D01*
X1708Y2102D01*
X1709Y2102D01*
X1710Y2102D01*
X1711Y2102D01*
X1712Y2102D01*
X1713Y2102D01*
X1714Y2102D01*
X1715Y2102D01*
X1716Y2102D01*
X1717Y2102D01*
X1718Y2102D01*
X1719Y2102D01*
X1720Y2102D01*
X1721Y2102D01*
X1722Y2102D01*
X1723Y2102D01*
X1724Y2102D01*
X1725Y2102D01*
X1726Y2102D01*
X1727Y2102D01*
X1728Y2102D01*
X1729Y2102D01*
X1730Y2102D01*
X1731Y2102D01*
X1732Y2102D01*
X1733Y2102D01*
X1734Y2102D01*
X1735Y2102D01*
X1736Y2102D01*
X1737Y2102D01*
X1738Y2102D01*
X1739Y2102D01*
X1740Y2102D01*
X1741Y2102D01*
X1742Y2102D01*
X1743Y2102D01*
X1744Y2102D01*
X1745Y2102D01*
X1746Y2102D01*
X1747Y2102D01*
X1748Y2102D01*
X1749Y2102D01*
X1750Y2102D01*
X1751Y2102D01*
X1752Y2102D01*
X1753Y2102D01*
X1754Y2102D01*
X1755Y2102D01*
X1756Y2102D01*
X1757Y2102D01*
X1758Y2102D01*
X1759Y2102D01*
X1760Y2102D01*
X1761Y2102D01*
X1762Y2102D01*
X1763Y2102D01*
X1764Y2102D01*
X1765Y2102D01*
X1766Y2102D01*
X1767Y2102D01*
X1768Y2102D01*
X1769Y2102D01*
X1770Y2102D01*
X1771Y2102D01*
X1772Y2102D01*
X1773Y2102D01*
X1774Y2102D01*
X1775Y2102D01*
X1776Y2102D01*
X1777Y2102D01*
X1778Y2102D01*
X1779Y2102D01*
X1780Y2102D01*
X1781Y2102D01*
X1782Y2102D01*
X1783Y2102D01*
X1784Y2102D01*
X1785Y2102D01*
X1786Y2102D01*
X1787Y2102D01*
X1788Y2102D01*
X1789Y2102D01*
X1790Y2102D01*
X1791Y2102D01*
X1792Y2102D01*
X1793Y2102D01*
X1794Y2102D01*
X1795Y2102D01*
X1796Y2102D01*
X1797Y2102D01*
X1798Y2102D01*
X1799Y2102D01*
X1800Y2102D01*
X1801Y2102D01*
X1802Y2102D01*
X1803Y2102D01*
X1804Y2102D01*
X1805Y2102D01*
X1806Y2102D01*
X1807Y2102D01*
X1808Y2102D01*
X1809Y2102D01*
X1810Y2102D01*
X1811Y2102D01*
X1812Y2102D01*
X1813Y2102D01*
X1814Y2102D01*
X1815Y2102D01*
X1816Y2102D01*
X1817Y2102D01*
X1818Y2102D01*
X1819Y2102D01*
X1820Y2102D01*
X1821Y2102D01*
X1822Y2102D01*
X1823Y2102D01*
X1824Y2102D01*
X1825Y2102D01*
X1826Y2102D01*
X1827Y2102D01*
X1828Y2102D01*
X1829Y2102D01*
X1830Y2102D01*
X1831Y2102D01*
X1832Y2102D01*
X1833Y2102D01*
X1834Y2102D01*
X1835Y2102D01*
X1836Y2102D01*
X1837Y2102D01*
X1838Y2102D01*
X1839Y2102D01*
X1840Y2102D01*
X1841Y2102D01*
X1842Y2102D01*
X1843Y2102D01*
X1844Y2102D01*
X1845Y2102D01*
X1846Y2102D01*
X1847Y2102D01*
X1848Y2102D01*
X1849Y2102D01*
X1850Y2102D01*
X1851Y2102D01*
X1852Y2102D01*
X1853Y2102D01*
X1854Y2102D01*
X1855Y2102D01*
X1856Y2102D01*
X1857Y2102D01*
X1858Y2102D01*
X1859Y2102D01*
X1860Y2102D01*
X1861Y2102D01*
X1862Y2102D01*
X1863Y2102D01*
X1864Y2102D01*
X1865Y2102D01*
X1866Y2102D01*
X1867Y2102D01*
X1868Y2102D01*
X1869Y2102D01*
X1870Y2102D01*
X1871Y2102D01*
X1872Y2102D01*
X1873Y2102D01*
X1874Y2102D01*
X1875Y2102D01*
X1876Y2102D01*
X1877Y2102D01*
X1878Y2102D01*
X1879Y2102D01*
X1880Y2102D01*
X1881Y2102D01*
X1882Y2102D01*
X1883Y2102D01*
X1884Y2102D01*
X1885Y2102D01*
X1886Y2102D01*
X1887Y2102D01*
X1888Y2102D01*
X1889Y2102D01*
X1890Y2102D01*
X1891Y2102D01*
X1892Y2102D01*
X1893Y2102D01*
X1894Y2102D01*
X1895Y2102D01*
X1896Y2102D01*
X1897Y2102D01*
X1898Y2102D01*
X1899Y2102D01*
X1900Y2102D01*
X1901Y2102D01*
X1902Y2102D01*
X1903Y2102D01*
X1904Y2102D01*
X1905Y2102D01*
X1906Y2102D01*
X1907Y2102D01*
X1908Y2102D01*
X1909Y2102D01*
X1910Y2102D01*
X1911Y2102D01*
X1912Y2102D01*
X1913Y2102D01*
X1914Y2102D01*
X1915Y2102D01*
X1916Y2102D01*
X1917Y2102D01*
X1918Y2102D01*
X1919Y2102D01*
X1920Y2102D01*
X1921Y2102D01*
X1922Y2102D01*
X1923Y2102D01*
X1924Y2102D01*
X1925Y2102D01*
X1926Y2102D01*
X1927Y2102D01*
X1928Y2102D01*
X1929Y2102D01*
X1930Y2102D01*
X1931Y2102D01*
X1932Y2102D01*
X1933Y2102D01*
X1934Y2102D01*
X1935Y2102D01*
X1936Y2102D01*
X1937Y2102D01*
X1938Y2102D01*
X1939Y2102D01*
X1940Y2102D01*
X1941Y2102D01*
X1942Y2102D01*
X1943Y2102D01*
X1944Y2102D01*
X1945Y2102D01*
X1946Y2102D01*
X1947Y2102D01*
X1948Y2102D01*
X1949Y2102D01*
X1950Y2102D01*
X1951Y2102D01*
X1952Y2102D01*
X1953Y2102D01*
X1954Y2102D01*
X1955Y2102D01*
X1956Y2102D01*
X1957Y2102D01*
X1958Y2102D01*
X1959Y2102D01*
X1960Y2102D01*
X1961Y2102D01*
X1962Y2102D01*
X1963Y2102D01*
X1964Y2102D01*
X1965Y2102D01*
X1966Y2102D01*
X1967Y2102D01*
X1968Y2102D01*
X1969Y2102D01*
X1970Y2102D01*
X1971Y2102D01*
X1972Y2102D01*
X1973Y2102D01*
X1974Y2102D01*
X1975Y2102D01*
X1976Y2102D01*
X1977Y2102D01*
X1978Y2102D01*
X1979Y2102D01*
X1980Y2102D01*
X1981Y2102D01*
X1982Y2102D01*
X1983Y2102D01*
X1984Y2102D01*
X1985Y2102D01*
X1986Y2102D01*
X1987Y2102D01*
X1988Y2102D01*
X1989Y2102D01*
X1990Y2102D01*
X1991Y2102D01*
X1992Y2102D01*
X1993Y2102D01*
X1994Y2102D01*
X1995Y2102D01*
X1996Y2102D01*
X1997Y2102D01*
X1998Y2102D01*
X1999Y2102D01*
X2000Y2102D01*
X2001Y2102D01*
X2002Y2102D01*
X2003Y2102D01*
X2004Y2102D01*
X2005Y2102D01*
X2006Y2102D01*
X2007Y2102D01*
X2008Y2102D01*
X2009Y2102D01*
X2010Y2102D01*
X2011Y2102D01*
X2012Y2102D01*
X2013Y2102D01*
X2014Y2102D01*
X2015Y2102D01*
X2016Y2102D01*
X2017Y2102D01*
X2018Y2102D01*
X2019Y2102D01*
X2020Y2102D01*
X2021Y2102D01*
X2022Y2102D01*
X2023Y2102D01*
X2024Y2102D01*
X2025Y2102D01*
X2026Y2102D01*
X2027Y2102D01*
X2028Y2102D01*
X2029Y2102D01*
X2030Y2102D01*
X2031Y2102D01*
X2032Y2102D01*
X2033Y2102D01*
X2034Y2102D01*
X2035Y2102D01*
X2036Y2102D01*
X2037Y2102D01*
X2038Y2102D01*
X2039Y2102D01*
X2040Y2102D01*
X2041Y2102D01*
X2042Y2102D01*
X2043Y2102D01*
X2044Y2102D01*
X2045Y2102D01*
X2046Y2102D01*
X2047Y2102D01*
X2048Y2102D01*
X2049Y2102D01*
X2050Y2102D01*
X2051Y2102D01*
X2052Y2102D01*
X2053Y2102D01*
X2054Y2102D01*
X2055Y2102D01*
X2056Y2102D01*
X2057Y2102D01*
X2058Y2102D01*
X2059Y2102D01*
X2060Y2102D01*
X2061Y2102D01*
X2062Y2102D01*
X2063Y2102D01*
X2064Y2102D01*
X2065Y2102D01*
X2066Y2102D01*
X2067Y2102D01*
X2068Y2102D01*
X2069Y2102D01*
X2070Y2102D01*
X2071Y2102D01*
X2072Y2102D01*
X2073Y2102D01*
X2074Y2102D01*
X2075Y2102D01*
X2076Y2102D01*
X2077Y2102D01*
X2078Y2102D01*
X2079Y2102D01*
X2080Y2102D01*
X2081Y2102D01*
X2082Y2102D01*
X2083Y2102D01*
X2084Y2102D01*
X2085Y2102D01*
X2086Y2102D01*
X2087Y2102D01*
X2088Y2102D01*
X2089Y2102D01*
X2090Y2102D01*
X2091Y2102D01*
X2092Y2102D01*
X2093Y2102D01*
X2094Y2102D01*
X2095Y2102D01*
X2096Y2102D01*
X2097Y2102D01*
X2098Y2102D01*
X2099Y2102D01*
X2100Y2102D01*
X2101Y2102D01*
X2102Y2102D01*
X2103Y2102D01*
X2104Y2102D01*
X2105Y2102D01*
X2106Y2102D01*
X2107Y2102D01*
X2108Y2102D01*
X2109Y2102D01*
X2110Y2102D01*
X2111Y2102D01*
X2112Y2102D01*
X2113Y2102D01*
X2114Y2102D01*
X2115Y2102D01*
X2116Y2102D01*
X2117Y2102D01*
X2118Y2102D01*
X2119Y2102D01*
X2120Y2102D01*
X2121Y2102D01*
X2122Y2102D01*
X2123Y2102D01*
X2124Y2102D01*
X2125Y2102D01*
X2126Y2102D01*
X2127Y2102D01*
X2128Y2102D01*
X2129Y2102D01*
X2130Y2102D01*
X2131Y2102D01*
X2132Y2102D01*
X2133Y2102D01*
X2134Y2102D01*
X2135Y2102D01*
X2136Y2102D01*
X2137Y2102D01*
X2138Y2102D01*
X2139Y2102D01*
X2140Y2102D01*
X2141Y2102D01*
X2142Y2102D01*
X2143Y2102D01*
X2144Y2102D01*
X2145Y2102D01*
X2146Y2102D01*
X2147Y2102D01*
X2148Y2102D01*
X2149Y2102D01*
X2150Y2102D01*
X2151Y2102D01*
X2152Y2102D01*
X2153Y2102D01*
X2154Y2102D01*
X2155Y2102D01*
X2156Y2102D01*
X2157Y2102D01*
X2158Y2102D01*
X2159Y2102D01*
X2160Y2102D01*
X2161Y2102D01*
X2162Y2102D01*
X2163Y2102D01*
X2164Y2102D01*
X2165Y2102D01*
X2166Y2102D01*
X2167Y2102D01*
X2168Y2102D01*
X2169Y2102D01*
X2170Y2102D01*
X2171Y2102D01*
X2172Y2102D01*
X2173Y2102D01*
X2174Y2102D01*
X2175Y2102D01*
X2176Y2102D01*
X2177Y2102D01*
X2178Y2102D01*
X2179Y2102D01*
X2180Y2102D01*
X2181Y2102D01*
X2182Y2102D01*
X2183Y2102D01*
X2184Y2102D01*
X2185Y2102D01*
X2186Y2102D01*
X2187Y2102D01*
X2188Y2102D01*
X2189Y2102D01*
X2190Y2102D01*
X2191Y2102D01*
X2192Y2102D01*
X2193Y2102D01*
X2194Y2102D01*
X2195Y2102D01*
X2196Y2102D01*
X2197Y2102D01*
X2198Y2102D01*
X2199Y2102D01*
X2200Y2102D01*
X2201Y2102D01*
X2202Y2102D01*
X2203Y2102D01*
X2204Y2102D01*
X2205Y2102D01*
X2206Y2102D01*
X2207Y2102D01*
X2208Y2102D01*
X2209Y2102D01*
X2210Y2102D01*
X2211Y2102D01*
X2212Y2102D01*
X2213Y2102D01*
X2214Y2102D01*
X2215Y2102D01*
X2216Y2102D01*
X2217Y2102D01*
X2218Y2102D01*
X2219Y2102D01*
X2220Y2102D01*
X2221Y2102D01*
X2222Y2102D01*
X2223Y2102D01*
X2224Y2102D01*
X2225Y2102D01*
X2226Y2102D01*
X2227Y2102D01*
X2228Y2102D01*
X2229Y2102D01*
X2230Y2102D01*
X2231Y2102D01*
X2232Y2102D01*
X2233Y2102D01*
X2234Y2102D01*
X2235Y2102D01*
X2236Y2102D01*
X2237Y2102D01*
X2238Y2102D01*
X2239Y2102D01*
X2240Y2102D01*
X2241Y2102D01*
X2242Y2102D01*
X2243Y2102D01*
X2244Y2102D01*
X2245Y2102D01*
X2246Y2102D01*
X2247Y2102D01*
X2248Y2102D01*
X2249Y2102D01*
X2250Y2102D01*
X2251Y2102D01*
X2252Y2102D01*
X2253Y2102D01*
X2254Y2102D01*
X2255Y2102D01*
X2256Y2102D01*
X2257Y2102D01*
X2258Y2102D01*
X2259Y2102D01*
X2260Y2102D01*
X2261Y2102D01*
X2262Y2102D01*
X2263Y2102D01*
X2264Y2102D01*
X2265Y2102D01*
X2266Y2102D01*
X2267Y2102D01*
X2268Y2102D01*
X2269Y2102D01*
X2270Y2102D01*
X2271Y2102D01*
X2272Y2102D01*
X2273Y2102D01*
X2274Y2102D01*
X2275Y2102D01*
X2276Y2102D01*
X2277Y2102D01*
X2278Y2102D01*
X2279Y2102D01*
X2280Y2102D01*
X2281Y2102D01*
X2282Y2102D01*
X2283Y2102D01*
X2284Y2102D01*
X2285Y2102D01*
X2286Y2102D01*
X2287Y2102D01*
X2288Y2102D01*
X2289Y2102D01*
X2290Y2102D01*
X2291Y2102D01*
X2292Y2102D01*
X2293Y2102D01*
X2294Y2102D01*
X2295Y2102D01*
X2296Y2102D01*
X2297Y2102D01*
X2298Y2102D01*
X2299Y2102D01*
X2300Y2102D01*
X2301Y2102D01*
X2302Y2102D01*
X2303Y2102D01*
X2304Y2102D01*
X2305Y2102D01*
X2306Y2102D01*
X2307Y2102D01*
X2308Y2102D01*
X2309Y2102D01*
X2310Y2102D01*
X2311Y2102D01*
X2312Y2102D01*
X2313Y2102D01*
X2314Y2102D01*
X2315Y2102D01*
X2316Y2102D01*
X2317Y2102D01*
X2318Y2102D01*
X2319Y2102D01*
X2320Y2102D01*
X2321Y2102D01*
X2322Y2102D01*
X2323Y2102D01*
X2324Y2102D01*
X2325Y2102D01*
X2326Y2102D01*
X2327Y2102D01*
X2328Y2102D01*
X2329Y2102D01*
X2330Y2102D01*
X2331Y2102D01*
X2332Y2102D01*
X2333Y2102D01*
X2334Y2102D01*
X2335Y2102D01*
X2336Y2102D01*
X2337Y2102D01*
X2338Y2102D01*
X2339Y2102D01*
X2340Y2102D01*
X2341Y2102D01*
X2342Y2102D01*
X2343Y2102D01*
X2344Y2102D01*
X2345Y2102D01*
X2346Y2102D01*
X2347Y2102D01*
X2348Y2102D01*
X2349Y2102D01*
X2350Y2102D01*
X2351Y2102D01*
X2352Y2102D01*
X2353Y2102D01*
X2354Y2102D01*
X2355Y2102D01*
X2356Y2102D01*
X2357Y2102D01*
X2358Y2102D01*
X2359Y2102D01*
X2360Y2102D01*
X2361Y2102D01*
X2362Y2102D01*
X2363Y2102D01*
X2364Y2102D01*
X2365Y2102D01*
X2366Y2102D01*
X2367Y2102D01*
X2368Y2102D01*
X2369Y2102D01*
X2370Y2102D01*
X2371Y2102D01*
X2372Y2102D01*
X2373Y2102D01*
X2374Y2102D01*
X2375Y2102D01*
X2376Y2102D01*
X2377Y2102D01*
X2378Y2102D01*
X2379Y2102D01*
X2380Y2102D01*
X2381Y2102D01*
X2382Y2102D01*
X2383Y2102D01*
X2384Y2102D01*
X2385Y2102D01*
X2386Y2102D01*
X2387Y2102D01*
X2388Y2102D01*
X2389Y2102D01*
X2390Y2102D01*
X2391Y2102D01*
X2392Y2102D01*
X2393Y2102D01*
X2394Y2102D01*
X2395Y2102D01*
X2396Y2102D01*
X2397Y2102D01*
X2398Y2102D01*
X2399Y2102D01*
X2400Y2102D01*
X2401Y2102D01*
X2402Y2102D01*
X2403Y2102D01*
X2404Y2102D01*
X2405Y2102D01*
X2406Y2102D01*
X2407Y2102D01*
X2408Y2102D01*
X2409Y2102D01*
X2410Y2102D01*
X2411Y2102D01*
X2412Y2102D01*
X2413Y2102D01*
X2414Y2102D01*
X2415Y2102D01*
X2416Y2102D01*
X2417Y2102D01*
X2418Y2102D01*
X2419Y2102D01*
X2420Y2102D01*
X2421Y2102D01*
X2422Y2102D01*
X2423Y2102D01*
X2424Y2102D01*
X2425Y2102D01*
X2426Y2102D01*
X2427Y2102D01*
X2428Y2102D01*
X2429Y2102D01*
X2430Y2102D01*
X2431Y2102D01*
X2432Y2102D01*
X2433Y2102D01*
X2434Y2102D01*
X2435Y2102D01*
X2436Y2102D01*
X2437Y2102D01*
X2438Y2102D01*
X2439Y2102D01*
X2440Y2102D01*
X2441Y2102D01*
X2442Y2102D01*
X2443Y2102D01*
X2444Y2102D01*
X2445Y2102D01*
X2446Y2102D01*
X2447Y2102D01*
X2448Y2102D01*
X2449Y2102D01*
X2450Y2102D01*
X2451Y2102D01*
X2452Y2102D01*
X2453Y2102D01*
X2454Y2102D01*
X2455Y2102D01*
X2456Y2102D01*
X2457Y2102D01*
X2458Y2102D01*
X2459Y2102D01*
X2460Y2102D01*
X2461Y2102D01*
X2462Y2102D01*
X2463Y2102D01*
X2464Y2102D01*
X2465Y2102D01*
X2466Y2102D01*
X2467Y2102D01*
X2468Y2102D01*
X2469Y2102D01*
X2470Y2102D01*
X2471Y2102D01*
X2472Y2102D01*
X2473Y2102D01*
X2474Y2102D01*
X2475Y2102D01*
X2476Y2102D01*
X2477Y2102D01*
X2478Y2102D01*
X2479Y2102D01*
X2480Y2102D01*
X2481Y2102D01*
X2482Y2102D01*
X2483Y2102D01*
X2484Y2102D01*
X2485Y2102D01*
X2486Y2102D01*
X2487Y2102D01*
X2488Y2102D01*
X2489Y2102D01*
X2490Y2102D01*
X2491Y2102D01*
X2492Y2102D01*
X2493Y2102D01*
X2494Y2102D01*
X2495Y2102D01*
X2496Y2102D01*
X2497Y2102D01*
X2498Y2102D01*
X2499Y2102D01*
X2500Y2102D01*
X2501Y2102D01*
X2502Y2102D01*
X2503Y2102D01*
X2504Y2102D01*
X2505Y2102D01*
X2506Y2102D01*
X2507Y2102D01*
X2508Y2102D01*
X2509Y2102D01*
X2510Y2102D01*
X2511Y2102D01*
X2512Y2102D01*
X2513Y2102D01*
X2514Y2102D01*
X2515Y2102D01*
X2516Y2102D01*
X2517Y2102D01*
X2518Y2102D01*
X2519Y2102D01*
X2520Y2102D01*
X2521Y2102D01*
X2522Y2102D01*
X2523Y2102D01*
X2524Y2102D01*
X2525Y2102D01*
X2526Y2102D01*
X2527Y2102D01*
X2528Y2102D01*
X2529Y2102D01*
X2530Y2102D01*
X2531Y2102D01*
X2532Y2102D01*
X2533Y2102D01*
X2534Y2102D01*
X2535Y2102D01*
X2536Y2102D01*
X2537Y2102D01*
X2538Y2102D01*
X2539Y2102D01*
X2540Y2102D01*
X2541Y2102D01*
X2542Y2102D01*
X2543Y2102D01*
X2544Y2102D01*
X2545Y2102D01*
X2546Y2102D01*
X2547Y2102D01*
X2548Y2102D01*
X2549Y2102D01*
X2550Y2102D01*
X2551Y2102D01*
X2552Y2102D01*
X2553Y2102D01*
X2554Y2102D01*
X2555Y2102D01*
X2556Y2102D01*
X2557Y2102D01*
X2558Y2102D01*
X2559Y2102D01*
X2560Y2102D01*
X2561Y2102D01*
X2562Y2102D01*
X2563Y2102D01*
X2564Y2102D01*
X2565Y2102D01*
X2566Y2102D01*
X2567Y2102D01*
X2568Y2102D01*
X2569Y2102D01*
X2570Y2102D01*
X2571Y2102D01*
X2572Y2102D01*
X2573Y2102D01*
X2574Y2102D01*
X2575Y2102D01*
X2576Y2102D01*
X2577Y2102D01*
X2578Y2102D01*
X2579Y2102D01*
X2580Y2102D01*
X2581Y2102D01*
X2582Y2102D01*
X2583Y2102D01*
X2584Y2102D01*
X2585Y2102D01*
X2586Y2102D01*
X2587Y2102D01*
X2588Y2102D01*
X2589Y2102D01*
X2590Y2102D01*
X2591Y2102D01*
X2592Y2102D01*
X2593Y2102D01*
X2594Y2102D01*
X2595Y2102D01*
X2596Y2102D01*
X2597Y2102D01*
X2598Y2102D01*
X2599Y2102D01*
X2600Y2102D01*
X2601Y2102D01*
X2602Y2102D01*
X2603Y2102D01*
X2604Y2102D01*
X2605Y2102D01*
X2606Y2102D01*
X2607Y2102D01*
X2608Y2102D01*
X2609Y2102D01*
X2610Y2102D01*
X2611Y2102D01*
X2612Y2102D01*
X2613Y2102D01*
X2614Y2102D01*
X2615Y2102D01*
X2616Y2102D01*
X2617Y2102D01*
X2618Y2102D01*
X2619Y2102D01*
X2620Y2102D01*
X2621Y2102D01*
X2622Y2102D01*
X2623Y2102D01*
X2624Y2102D01*
X2625Y2102D01*
X2626Y2102D01*
X2627Y2102D01*
X2628Y2102D01*
X2629Y2102D01*
X2630Y2102D01*
X2631Y2102D01*
X2632Y2102D01*
X2633Y2102D01*
X2634Y2102D01*
X2635Y2102D01*
X2636Y2102D01*
X2637Y2102D01*
X2638Y2102D01*
X2639Y2102D01*
X2640Y2102D01*
X2641Y2102D01*
X2642Y2102D01*
X2643Y2102D01*
X2644Y2102D01*
X2645Y2102D01*
X2646Y2102D01*
X2647Y2102D01*
X2648Y2102D01*
X2649Y2102D01*
X2650Y2102D01*
X2651Y2102D01*
X2652Y2102D01*
X2653Y2102D01*
X2654Y2102D01*
X2655Y2102D01*
X2656Y2102D01*
X2657Y2102D01*
X2658Y2102D01*
X2659Y2102D01*
X2660Y2102D01*
X2661Y2102D01*
X2662Y2102D01*
X2663Y2102D01*
X2664Y2102D01*
X2665Y2102D01*
X2666Y2102D01*
X2667Y2102D01*
X2668Y2102D01*
X2669Y2102D01*
X2670Y2102D01*
X2671Y2102D01*
X2672Y2102D01*
X2673Y2102D01*
X2674Y2102D01*
X2675Y2102D01*
X2676Y2102D01*
X2677Y2102D01*
X2678Y2102D01*
X2679Y2102D01*
X2680Y2102D01*
X2681Y2102D01*
X2682Y2102D01*
X2683Y2102D01*
X2684Y2102D01*
X2685Y2102D01*
X2686Y2102D01*
X2687Y2102D01*
X2688Y2102D01*
X2689Y2102D01*
X2690Y2102D01*
X2691Y2102D01*
X2692Y2102D01*
X2693Y2102D01*
X2694Y2102D01*
X2695Y2102D01*
X2696Y2102D01*
X2697Y2102D01*
X2698Y2102D01*
X2699Y2102D01*
X2700Y2102D01*
X2701Y2102D01*
X2702Y2102D01*
X2703Y2102D01*
X2704Y2102D01*
X2705Y2102D01*
X2706Y2102D01*
X2707Y2102D01*
X2708Y2102D01*
X2709Y2102D01*
X2710Y2102D01*
X2711Y2102D01*
X2712Y2102D01*
X2713Y2102D01*
X2714Y2102D01*
X2715Y2102D01*
X2716Y2102D01*
X2717Y2102D01*
X2718Y2102D01*
X2719Y2102D01*
X2720Y2102D01*
X2721Y2102D01*
X2722Y2102D01*
X2723Y2102D01*
X2724Y2102D01*
X2725Y2102D01*
X2726Y2102D01*
X2727Y2102D01*
X2728Y2102D01*
X2729Y2102D01*
X2730Y2102D01*
X2731Y2102D01*
X2732Y2102D01*
X2733Y2102D01*
X2734Y2102D01*
X2735Y2102D01*
X2736Y2102D01*
X2737Y2102D01*
X2738Y2102D01*
X2739Y2102D01*
X2740Y2102D01*
X2741Y2102D01*
X2742Y2102D01*
X2743Y2102D01*
X2744Y2102D01*
X2745Y2102D01*
X2746Y2102D01*
X2747Y2102D01*
X2748Y2102D01*
X2749Y2102D01*
X2750Y2102D01*
X2751Y2102D01*
X2752Y2102D01*
X2753Y2102D01*
X2754Y2102D01*
X2755Y2102D01*
X2756Y2102D01*
X2757Y2102D01*
X2758Y2102D01*
X2759Y2102D01*
X2760Y2102D01*
X2761Y2102D01*
X2762Y2102D01*
X2763Y2102D01*
X2764Y2102D01*
X2765Y2102D01*
X2766Y2102D01*
X2767Y2102D01*
X2768Y2102D01*
X2769Y2102D01*
X2770Y2102D01*
X2771Y2102D01*
X2772Y2102D01*
X2773Y2102D01*
X2774Y2102D01*
X2775Y2102D01*
X2776Y2102D01*
X2777Y2102D01*
X2778Y2102D01*
X2779Y2102D01*
X2780Y2102D01*
X2781Y2102D01*
X2782Y2102D01*
X2783Y2102D01*
X2784Y2102D01*
X2785Y2102D01*
X2786Y2102D01*
X2787Y2102D01*
X2788Y2102D01*
X2789Y2102D01*
X2790Y2102D01*
X2791Y2102D01*
X2792Y2102D01*
X2793Y2102D01*
X2794Y2102D01*
X2795Y2102D01*
X2796Y2102D01*
X2797Y2102D01*
X2798Y2102D01*
X2799Y2102D01*
X2800Y2102D01*
X2801Y2102D01*
X2802Y2102D01*
X2803Y2102D01*
X2804Y2102D01*
X2805Y2102D01*
X2806Y2102D01*
X2807Y2102D01*
X2808Y2102D01*
X2809Y2102D01*
X2810Y2102D01*
X2811Y2102D01*
X2812Y2102D01*
X2813Y2102D01*
X2814Y2102D01*
X2815Y2102D01*
X2816Y2102D01*
X2817Y2102D01*
X2818Y2102D01*
X2819Y2102D01*
X2820Y2102D01*
X2821Y2102D01*
X2822Y2102D01*
X2823Y2102D01*
X2824Y2102D01*
X2825Y2102D01*
X2826Y2102D01*
X2827Y2102D01*
X2828Y2102D01*
X2829Y2102D01*
X2830Y2102D01*
X2831Y2102D01*
X2832Y2102D01*
X2833Y2102D01*
X2834Y2102D01*
X2835Y2102D01*
X2836Y2102D01*
X2837Y2102D01*
X2838Y2102D01*
X2839Y2102D01*
X2840Y2102D01*
X2841Y2102D01*
X2842Y2102D01*
X2843Y2102D01*
X2844Y2102D01*
X2845Y2102D01*
X2846Y2102D01*
X2847Y2102D01*
X2848Y2102D01*
X2849Y2102D01*
X2850Y2102D01*
X2851Y2102D01*
X2852Y2102D01*
X2853Y2102D01*
X2854Y2102D01*
X2855Y2102D01*
X2856Y2102D01*
X2857Y2102D01*
X2858Y2102D01*
X2859Y2102D01*
X2860Y2102D01*
X2861Y2102D01*
X2862Y2102D01*
X2863Y2102D01*
X2864Y2102D01*
X2865Y2102D01*
X2866Y2102D01*
X2867Y2102D01*
X2868Y2102D01*
X2869Y2102D01*
X2870Y2102D01*
X2871Y2102D01*
X2872Y2102D01*
X2873Y2102D01*
X2874Y2102D01*
X2875Y2102D01*
X2876Y2102D01*
X2877Y2102D01*
X2878Y2102D01*
X2879Y2102D01*
X2880Y2102D01*
X2881Y2102D01*
X2882Y2102D01*
X2883Y2102D01*
X2884Y2102D01*
X2885Y2102D01*
X2886Y2102D01*
X2887Y2102D01*
X2888Y2102D01*
X2889Y2102D01*
X2890Y2102D01*
X2891Y2102D01*
X2892Y2102D01*
X2893Y2102D01*
X2894Y2102D01*
X2895Y2102D01*
X2896Y2102D01*
X2897Y2102D01*
X2898Y2102D01*
X2899Y2102D01*
X2900Y2102D01*
X2901Y2102D01*
X2902Y2102D01*
X2903Y2102D01*
X2904Y2102D01*
X2905Y2102D01*
X2906Y2102D01*
X2907Y2102D01*
X2908Y2102D01*
X2909Y2102D01*
X2910Y2102D01*
X2911Y2102D01*
X2912Y2102D01*
X2913Y2102D01*
X2914Y2102D01*
X2915Y2102D01*
X2916Y2102D01*
X2917Y2102D01*
X2918Y2102D01*
X2919Y2102D01*
X2920Y2102D01*
X2921Y2102D01*
X2922Y2102D01*
X2923Y2102D01*
X2924Y2102D01*
X2925Y2102D01*
X2926Y2102D01*
X2927Y2102D01*
X2928Y2102D01*
X2929Y2102D01*
X2930Y2102D01*
X2931Y2102D01*
X2932Y2102D01*
X2933Y2102D01*
X2934Y2102D01*
X2935Y2102D01*
X2936Y2102D01*
X2937Y2102D01*
X2938Y2102D01*
X2939Y2102D01*
X2940Y2102D01*
X2941Y2102D01*
X2942Y2102D01*
X2943Y2102D01*
X2944Y2102D01*
X2945Y2102D01*
X2946Y2102D01*
X2947Y2102D01*
X2948Y2102D01*
X2949Y2102D01*
X2950Y2102D01*
X2951Y2102D01*
X2952Y2102D01*
X2953Y2102D01*
X2954Y2102D01*
X2955Y2102D01*
X2956Y2102D01*
X2957Y2102D01*
X2958Y2102D01*
X2959Y2102D01*
X2960Y2102D01*
X2961Y2102D01*
X2962Y2102D01*
X2963Y2102D01*
X2964Y2102D01*
X2965Y2102D01*
X2966Y2102D01*
X2967Y2102D01*
X2968Y2102D01*
X2969Y2102D01*
X2970Y2102D01*
X2971Y2102D01*
X2972Y2102D01*
X2973Y2102D01*
X2974Y2102D01*
X2975Y2102D01*
X2976Y2102D01*
X2977Y2102D01*
X2978Y2102D01*
X2979Y2102D01*
X2980Y2102D01*
X2981Y2102D01*
X2982Y2102D01*
X2983Y2102D01*
X2984Y2102D01*
X2985Y2102D01*
X2986Y2102D01*
X2987Y2102D01*
X2988Y2102D01*
X2989Y2102D01*
X2990Y2102D01*
X2991Y2102D01*
X2992Y2102D01*
X2993Y2102D01*
X2994Y2102D01*
X2995Y2102D01*
X2996Y2102D01*
X2997Y2102D01*
X2998Y2102D01*
X2999Y2102D01*
X3000Y2102D01*
X3001Y2102D01*
X3002Y2102D01*
X3003Y2102D01*
X3004Y2102D01*
X3005Y2102D01*
X3006Y2102D01*
X3007Y2102D01*
X3008Y2102D01*
X3009Y2102D01*
X3010Y2102D01*
X3011Y2102D01*
X3012Y2102D01*
X3013Y2102D01*
X3014Y2102D01*
X3015Y2102D01*
X3016Y2102D01*
X3017Y2102D01*
X3018Y2102D01*
X3019Y2102D01*
X3020Y2102D01*
X3021Y2102D01*
X3022Y2102D01*
X3023Y2102D01*
X3024Y2102D01*
X3025Y2102D01*
X3026Y2102D01*
X3027Y2102D01*
X3028Y2102D01*
X3029Y2102D01*
X3030Y2102D01*
X3031Y2102D01*
X3032Y2102D01*
X3033Y2102D01*
X3034Y2102D01*
X3035Y2102D01*
X3036Y2102D01*
X3037Y2102D01*
X3038Y2102D01*
X3039Y2102D01*
X3040Y2102D01*
X3041Y2102D01*
X3042Y2102D01*
X3043Y2102D01*
X3044Y2102D01*
X3045Y2102D01*
X3046Y2102D01*
X3047Y2102D01*
X3048Y2102D01*
X3049Y2102D01*
X3050Y2102D01*
X3051Y2102D01*
X3052Y2102D01*
X3053Y2102D01*
X3054Y2102D01*
X3055Y2102D01*
X3056Y2102D01*
X3057Y2102D01*
X3058Y2102D01*
X3059Y2102D01*
X3060Y2102D01*
X3061Y2102D01*
X3062Y2102D01*
X3063Y2102D01*
X3064Y2102D01*
X3065Y2102D01*
X3066Y2102D01*
X3067Y2102D01*
X3068Y2102D01*
X3069Y2102D01*
X3070Y2102D01*
X3071Y2102D01*
X3072Y2102D01*
X3073Y2102D01*
X3074Y2102D01*
X3075Y2102D01*
X3076Y2102D01*
X3077Y2102D01*
X3078Y2102D01*
X3079Y2102D01*
X3080Y2102D01*
X3081Y2102D01*
X3082Y2102D01*
X3083Y2102D01*
X3084Y2102D01*
X3085Y2102D01*
X3086Y2102D01*
X3087Y2102D01*
X3088Y2102D01*
X3089Y2102D01*
X3090Y2102D01*
X3091Y2102D01*
X3092Y2102D01*
X3093Y2102D01*
X3094Y2102D01*
X3095Y2102D01*
X3096Y2102D01*
X3097Y2102D01*
X3098Y2102D01*
X3099Y2102D01*
X3100Y2102D01*
X3101Y2102D01*
X3102Y2102D01*
X3103Y2102D01*
X3104Y2102D01*
X3105Y2102D01*
X3106Y2102D01*
X3107Y2102D01*
X3108Y2102D01*
X3109Y2102D01*
X3110Y2102D01*
X3111Y2102D01*
X3112Y2102D01*
X3113Y2102D01*
X3114Y2102D01*
X3115Y2102D01*
X3116Y2102D01*
X3117Y2102D01*
X3118Y2102D01*
X3119Y2102D01*
X3120Y2102D01*
X3121Y2102D01*
X3122Y2102D01*
X3123Y2102D01*
X3124Y2102D01*
X3125Y2102D01*
X3126Y2102D01*
X3127Y2102D01*
X3128Y2102D01*
X3129Y2102D01*
X3130Y2102D01*
X3131Y2102D01*
X3132Y2102D01*
X3133Y2102D01*
X3134Y2102D01*
X3135Y2102D01*
X3136Y2102D01*
X3137Y2102D01*
X3138Y2102D01*
X3139Y2102D01*
X3140Y2102D01*
X3141Y2102D01*
X3142Y2102D01*
X3143Y2102D01*
X3144Y2102D01*
X3145Y2102D01*
X3146Y2102D01*
X3147Y2102D01*
X3148Y2102D01*
X3149Y2102D01*
X3150Y2102D01*
X3151Y2102D01*
X3152Y2102D01*
X3153Y2102D01*
X3154Y2102D01*
X3155Y2102D01*
X3156Y2102D01*
X3157Y2102D01*
X3158Y2102D01*
X3159Y2102D01*
X3160Y2102D01*
X3161Y2102D01*
X3162Y2102D01*
X3163Y2102D01*
X3164Y2102D01*
X3165Y2102D01*
X3166Y2102D01*
X3167Y2102D01*
X3168Y2102D01*
X3169Y2102D01*
X3170Y2102D01*
X3171Y2102D01*
X3172Y2102D01*
X3173Y2102D01*
X3174Y2102D01*
X3175Y2102D01*
X3176Y2102D01*
X3177Y2102D01*
X3178Y2102D01*
X3179Y2102D01*
X3180Y2102D01*
X3181Y2102D01*
X3182Y2102D01*
X3183Y2102D01*
X3184Y2102D01*
X3185Y2102D01*
X3186Y2102D01*
X3187Y2102D01*
X3188Y2102D01*
X3189Y2102D01*
X3190Y2102D01*
X3191Y2102D01*
X3192Y2102D01*
X3193Y2102D01*
X3194Y2102D01*
X3195Y2102D01*
X3196Y2102D01*
X3197Y2102D01*
X3198Y2102D01*
X3199Y2102D01*
X3200Y2102D01*
X3201Y2102D01*
X3202Y2102D01*
X3203Y2102D01*
X3204Y2102D01*
X3205Y2102D01*
X3206Y2102D01*
X3207Y2102D01*
X3208Y2102D01*
X3209Y2102D01*
X3210Y2102D01*
X3211Y2102D01*
X3212Y2102D01*
X3213Y2102D01*
X3214Y2102D01*
X3215Y2102D01*
X3216Y2102D01*
X3217Y2102D01*
X3218Y2102D01*
X3219Y2102D01*
X3220Y2102D01*
X3221Y2102D01*
X3222Y2102D01*
X3223Y2102D01*
X3224Y2102D01*
X3225Y2102D01*
X3226Y2102D01*
X3227Y2102D01*
X3228Y2102D01*
X3229Y2102D01*
X3230Y2102D01*
X3231Y2102D01*
X3232Y2102D01*
X3233Y2102D01*
X3234Y2102D01*
X3235Y2102D01*
X3236Y2102D01*
X3237Y2102D01*
X3238Y2102D01*
X3239Y2102D01*
X3240Y2102D01*
X3241Y2102D01*
X3242Y2102D01*
X3243Y2102D01*
X3244Y2102D01*
X3245Y2102D01*
X3246Y2102D01*
X3247Y2102D01*
X3248Y2102D01*
X3249Y2102D01*
X3250Y2102D01*
X3251Y2102D01*
X3252Y2102D01*
X3253Y2102D01*
X3254Y2102D01*
X3255Y2102D01*
X3256Y2102D01*
X3257Y2102D01*
X3258Y2102D01*
X3259Y2102D01*
X3260Y2102D01*
X3261Y2102D01*
X3262Y2102D01*
X3263Y2102D01*
X3264Y2102D01*
X3265Y2102D01*
X3266Y2102D01*
X3267Y2102D01*
X3268Y2102D01*
X3269Y2102D01*
X3270Y2102D01*
X3271Y2102D01*
X3272Y2102D01*
X3273Y2102D01*
X3274Y2102D01*
X3275Y2102D01*
X3276Y2102D01*
X3277Y2102D01*
X3278Y2102D01*
X3279Y2102D01*
X3280Y2102D01*
X3281Y2102D01*
X3282Y2102D01*
X3283Y2102D01*
X3284Y2102D01*
X3285Y2102D01*
X3286Y2102D01*
X3287Y2102D01*
X3288Y2102D01*
X3289Y2102D01*
X3290Y2102D01*
X3291Y2102D01*
X3292Y2102D01*
X3293Y2102D01*
X3294Y2102D01*
X3295Y2102D01*
X3296Y2102D01*
X3297Y2102D01*
X3298Y2102D01*
X3299Y2102D01*
X3300Y2102D01*
X3301Y2102D01*
X3302Y2102D01*
X3303Y2102D01*
X3304Y2102D01*
X3305Y2102D01*
X3306Y2102D01*
X3307Y2102D01*
X3308Y2102D01*
X3309Y2102D01*
X3310Y2102D01*
X3311Y2102D01*
X3312Y2102D01*
X3313Y2102D01*
X3314Y2102D01*
X3315Y2102D01*
X3316Y2102D01*
X3317Y2102D01*
X3318Y2102D01*
X3319Y2102D01*
X3320Y2102D01*
X3321Y2102D01*
X3322Y2102D01*
X3323Y2102D01*
X3324Y2102D01*
X3325Y2102D01*
X3326Y2102D01*
X3327Y2102D01*
X3328Y2102D01*
X3329Y2102D01*
X3330Y2102D01*
X3331Y2102D01*
X3332Y2102D01*
X3333Y2102D01*
X3334Y2102D01*
X3335Y2102D01*
X3336Y2102D01*
X3337Y2102D01*
X3338Y2102D01*
X3339Y2102D01*
X3340Y2102D01*
X3341Y2102D01*
X3342Y2102D01*
X3343Y2102D01*
X3344Y2102D01*
X3345Y2102D01*
X3346Y2102D01*
X3347Y2102D01*
X3348Y2102D01*
X3349Y2102D01*
X3350Y2102D01*
X3351Y2102D01*
X3352Y2102D01*
X3353Y2102D01*
X3354Y2102D01*
X3355Y2102D01*
X3356Y2102D01*
X3357Y2102D01*
X3358Y2102D01*
X3359Y2102D01*
X3360Y2102D01*
X3361Y2102D01*
X3362Y2102D01*
X3363Y2102D01*
X3364Y2102D01*
X3365Y2102D01*
X3366Y2102D01*
X3367Y2102D01*
X3368Y2102D01*
X3369Y2102D01*
X3370Y2102D01*
X3371Y2102D01*
X3372Y2102D01*
X3373Y2102D01*
X3374Y2102D01*
X3375Y2102D01*
X3376Y2102D01*
X3377Y2102D01*
X3378Y2102D01*
X3379Y2102D01*
X3380Y2102D01*
X3381Y2102D01*
X3382Y2102D01*
X3383Y2102D01*
X3384Y2102D01*
X3385Y2102D01*
X3386Y2102D01*
X3387Y2102D01*
X3388Y2102D01*
X3389Y2102D01*
X3390Y2102D01*
X3391Y2102D01*
X3392Y2102D01*
X3393Y2102D01*
X3394Y2102D01*
X3395Y2102D01*
X3396Y2102D01*
X3397Y2102D01*
X3398Y2102D01*
X3399Y2102D01*
X3400Y2102D01*
X3401Y2102D01*
X3402Y2102D01*
X3403Y2102D01*
X3404Y2102D01*
X3405Y2102D01*
X3406Y2102D01*
X3407Y2102D01*
X3408Y2102D01*
X3409Y2102D01*
X3410Y2102D01*
X3411Y2102D01*
X3412Y2102D01*
X3413Y2102D01*
X3414Y2102D01*
X3415Y2102D01*
X3416Y2102D01*
X3417Y2102D01*
X3418Y2102D01*
X3419Y2102D01*
X3420Y2102D01*
X3421Y2102D01*
X3422Y2102D01*
X3423Y2102D01*
X3424Y2102D01*
X3425Y2102D01*
X3426Y2102D01*
X3427Y2102D01*
X3428Y2102D01*
X3429Y2102D01*
X3430Y2102D01*
X3431Y2102D01*
X3432Y2102D01*
X3433Y2102D01*
X3434Y2102D01*
X3435Y2102D01*
X3436Y2102D01*
X3437Y2102D01*
X3438Y2102D01*
X3439Y2102D01*
X3440Y2102D01*
X3441Y2102D01*
X3442Y2102D01*
X3443Y2102D01*
X3444Y2102D01*
X3445Y2102D01*
X3446Y2102D01*
X3447Y2102D01*
X3448Y2102D01*
X3449Y2102D01*
X3450Y2102D01*
X3451Y2102D01*
X3452Y2102D01*
X3453Y2102D01*
X3454Y2102D01*
X3455Y2102D01*
X3456Y2102D01*
X3457Y2102D01*
X3458Y2102D01*
X3459Y2102D01*
X3460Y2102D01*
X3461Y2102D01*
X3462Y2102D01*
X3463Y2102D01*
X3464Y2102D01*
X3465Y2102D01*
X3466Y2102D01*
X3467Y2102D01*
X3468Y2102D01*
X3469Y2102D01*
X3470Y2102D01*
X3471Y2102D01*
X3472Y2102D01*
X3473Y2102D01*
X3474Y2102D01*
X3475Y2102D01*
X3476Y2102D01*
X3477Y2102D01*
X3478Y2102D01*
X3479Y2102D01*
X3480Y2102D01*
X3481Y2102D01*
X3482Y2102D01*
X3483Y2102D01*
X3484Y2102D01*
X3485Y2102D01*
X3486Y2102D01*
X3487Y2102D01*
X3488Y2102D01*
X3489Y2102D01*
X3490Y2102D01*
X3491Y2102D01*
X3492Y2102D01*
X3493Y2102D01*
X3494Y2102D01*
X3495Y2102D01*
X3496Y2102D01*
X3497Y2102D01*
X3498Y2102D01*
X3499Y2102D01*
X3500Y2102D01*
X3501Y2102D01*
X3502Y2102D01*
X3503Y2102D01*
X3504Y2102D01*
X3505Y2102D01*
X3506Y2102D01*
X3507Y2102D01*
X3508Y2102D01*
X3509Y2102D01*
X3510Y2102D01*
X3511Y2102D01*
X3512Y2102D01*
X3513Y2102D01*
X3514Y2102D01*
X3515Y2102D01*
X3516Y2102D01*
X3517Y2102D01*
X3518Y2102D01*
X3519Y2102D01*
X3520Y2102D01*
X3521Y2102D01*
X3522Y2102D01*
X3523Y2102D01*
X3524Y2102D01*
X3525Y2102D01*
X3526Y2102D01*
X3527Y2102D01*
X3528Y2102D01*
X3529Y2102D01*
X3530Y2102D01*
X3531Y2102D01*
X3532Y2102D01*
X3533Y2102D01*
X3534Y2102D01*
X3535Y2102D01*
X3536Y2102D01*
X3537Y2102D01*
X3538Y2102D01*
X3539Y2102D01*
X3540Y2102D01*
X3541Y2102D01*
X3542Y2102D01*
X3543Y2102D01*
X3544Y2102D01*
X3545Y2102D01*
X3546Y2102D01*
X3547Y2102D01*
X3548Y2102D01*
X3549Y2102D01*
X3550Y2102D01*
X3551Y2102D01*
X3552Y2102D01*
X3553Y2102D01*
X3554Y2102D01*
X3555Y2102D01*
X3556Y2102D01*
X3557Y2102D01*
X3558Y2102D01*
X3559Y2102D01*
X3560Y2102D01*
X3561Y2102D01*
X3562Y2102D01*
X3563Y2102D01*
X3564Y2102D01*
X3565Y2102D01*
X3566Y2102D01*
X3567Y2102D01*
X3568Y2102D01*
X3569Y2102D01*
X3570Y2102D01*
X3571Y2102D01*
X3572Y2102D01*
X3573Y2102D01*
X3574Y2102D01*
X3575Y2102D01*
X3576Y2102D01*
X3577Y2102D01*
X3578Y2102D01*
X3579Y2102D01*
X3580Y2102D01*
X3581Y2102D01*
X3582Y2102D01*
X3583Y2102D01*
X3584Y2102D01*
X3585Y2102D01*
X3586Y2102D01*
X3587Y2102D01*
X3588Y2102D01*
X3589Y2102D01*
X3590Y2102D01*
X3591Y2102D01*
X3592Y2102D01*
X3593Y2102D01*
X3594Y2102D01*
X3595Y2102D01*
X3596Y2102D01*
X3597Y2102D01*
X3598Y2102D01*
X3599Y2102D01*
X3600Y2102D01*
X3601Y2102D01*
X3602Y2102D01*
X3603Y2102D01*
X3604Y2102D01*
X3605Y2102D01*
X3606Y2102D01*
X3607Y2102D01*
X3608Y2102D01*
X3609Y2102D01*
X3610Y2102D01*
X3611Y2102D01*
X3612Y2102D01*
X3613Y2102D01*
X3614Y2102D01*
X3615Y2102D01*
X3616Y2102D01*
X3617Y2102D01*
X3618Y2102D01*
X3619Y2102D01*
X3620Y2102D01*
X3621Y2102D01*
X3622Y2102D01*
X3623Y2102D01*
X3624Y2102D01*
X3625Y2102D01*
X3626Y2102D01*
X3627Y2102D01*
X3628Y2102D01*
X3629Y2102D01*
X3630Y2102D01*
X3631Y2102D01*
X3632Y2102D01*
X3633Y2102D01*
X3634Y2102D01*
X3635Y2102D01*
X3636Y2102D01*
X3637Y2102D01*
X3638Y2102D01*
X3639Y2102D01*
X3640Y2102D01*
X3641Y2102D01*
X3642Y2102D01*
X3643Y2102D01*
X3644Y2102D01*
X3645Y2102D01*
X3646Y2102D01*
X3647Y2102D01*
X3648Y2102D01*
X3649Y2102D01*
X3650Y2102D01*
X3651Y2102D01*
X3652Y2102D01*
X3653Y2102D01*
X3654Y2102D01*
X3655Y2102D01*
X3656Y2102D01*
X3657Y2102D01*
X3658Y2102D01*
X3659Y2102D01*
X3660Y2102D01*
X3661Y2102D01*
X3662Y2102D01*
X3663Y2102D01*
X3664Y2102D01*
X3665Y2102D01*
X3666Y2102D01*
X3667Y2102D01*
X3668Y2102D01*
X3669Y2102D01*
X3670Y2102D01*
X3671Y2102D01*
X3672Y2102D01*
X3673Y2102D01*
X3674Y2102D01*
X3675Y2102D01*
X3676Y2102D01*
X3677Y2102D01*
X3678Y2102D01*
X3679Y2102D01*
X3680Y2102D01*
X3681Y2102D01*
X3682Y2102D01*
X3683Y2102D01*
X3684Y2102D01*
X3685Y2102D01*
X3686Y2102D01*
X3687Y2102D01*
X3688Y2102D01*
X3689Y2102D01*
X3690Y2102D01*
X3691Y2102D01*
X3692Y2102D01*
X3693Y2102D01*
X3694Y2102D01*
X3695Y2102D01*
X3696Y2102D01*
X3697Y2102D01*
X3698Y2102D01*
X3699Y2102D01*
X3700Y2102D01*
X3701Y2102D01*
X3702Y2102D01*
X3703Y2102D01*
X3704Y2102D01*
X3705Y2102D01*
X3706Y2102D01*
X3707Y2102D01*
X3708Y2102D01*
X3709Y2102D01*
X3710Y2102D01*
X3711Y2102D01*
X3712Y2102D01*
X3713Y2102D01*
X3714Y2102D01*
X3715Y2102D01*
X3716Y2102D01*
X3717Y2102D01*
X3718Y2102D01*
X3719Y2102D01*
X3720Y2102D01*
X3721Y2102D01*
X3722Y2102D01*
X3723Y2102D01*
X3724Y2102D01*
X3725Y2102D01*
X3726Y2102D01*
X3727Y2102D01*
X3728Y2102D01*
X3729Y2102D01*
X3730Y2102D01*
X3731Y2102D01*
X3732Y2102D01*
X3733Y2102D01*
X3734Y2102D01*
X3735Y2102D01*
X3736Y2102D01*
X3737Y2102D01*
X3738Y2102D01*
X3739Y2102D01*
X3740Y2102D01*
X3741Y2102D01*
X3742Y2102D01*
X3743Y2102D01*
X3744Y2102D01*
X3745Y2102D01*
X3746Y2102D01*
X3747Y2102D01*
X3748Y2102D01*
X3749Y2102D01*
X3750Y2102D01*
X3751Y2102D01*
X3752Y2102D01*
X3753Y2102D01*
X3754Y2102D01*
X3755Y2102D01*
X3756Y2102D01*
X3757Y2102D01*
X3758Y2102D01*
X3759Y2102D01*
X3760Y2102D01*
X3761Y2102D01*
X3762Y2102D01*
X3763Y2102D01*
X3764Y2102D01*
X3765Y2102D01*
X3766Y2102D01*
X3767Y2102D01*
X3768Y2102D01*
X3769Y2102D01*
X3770Y2102D01*
X3771Y2102D01*
X3772Y2102D01*
X3773Y2102D01*
X3774Y2102D01*
X3775Y2102D01*
X3776Y2102D01*
X3777Y2102D01*
X3778Y2102D01*
X3779Y2102D01*
X3780Y2102D01*
X3781Y2102D01*
X3782Y2102D01*
X3783Y2102D01*
X3784Y2102D01*
X3785Y2102D01*
X3786Y2102D01*
X3787Y2102D01*
X3788Y2102D01*
X3789Y2102D01*
X3790Y2102D01*
X3791Y2102D01*
X3792Y2102D01*
X3793Y2102D01*
X3794Y2102D01*
X3795Y2102D01*
X3796Y2102D01*
X3797Y2102D01*
X3798Y2102D01*
X3799Y2102D01*
X3800Y2101D01*
X3801Y2100D01*
X3802Y2099D01*
X3803Y2098D01*
X3804Y2097D01*
X3805Y2096D01*
X3806Y2095D01*
X3807Y2094D01*
X3808Y2093D01*
X3809Y2092D01*
X3810Y2091D01*
X3811Y2090D01*
X3812Y2089D01*
X3813Y2088D01*
X3814Y2087D01*
X3815Y2086D01*
X3816Y2085D01*
X3817Y2084D01*
X3818Y2083D01*
X3819Y2082D01*
X3820Y2081D01*
X3821Y2080D01*
X3822Y2079D01*
X3823Y2078D01*
X3824Y2077D01*
X3825Y2076D01*
X3826Y2075D01*
X3827Y2074D01*
X3828Y2073D01*
X3829Y2072D01*
X3830Y2071D01*
X3831Y2070D01*
X3832Y2069D01*
X3833Y2068D01*
X3834Y2067D01*
X3835Y2066D01*
X3836Y2065D01*
X3837Y2064D01*
X3838Y2063D01*
X3839Y2062D01*
X3840Y2061D01*
X3841Y2060D01*
X3842Y2059D01*
X3843Y2058D01*
X3844Y2057D01*
X3845Y2056D01*
X3846Y2055D01*
X3847Y2054D01*
X3848Y2053D01*
X3849Y2052D01*
X3850Y2051D01*
X3851Y2050D01*
X3852Y2049D01*
X3853Y2048D01*
X3854Y2047D01*
X3855Y2046D01*
X3856Y2045D01*
X3857Y2044D01*
X3858Y2043D01*
X3859Y2042D01*
X3860Y2041D01*
X3861Y2040D01*
X3862Y2039D01*
X3863Y2038D01*
X3864Y2037D01*
X3865Y2036D01*
X3866Y2035D01*
X3867Y2034D01*
X3868Y2033D01*
X3869Y2032D01*
X3870Y2031D01*
X3871Y2030D01*
X3872Y2029D01*
X3873Y2028D01*
X3874Y2027D01*
X3875Y2026D01*
X3876Y2025D01*
X3877Y2024D01*
X3878Y2023D01*
X3879Y2022D01*
X3880Y2021D01*
X3881Y2020D01*
X3882Y2019D01*
X3883Y2018D01*
X3884Y2017D01*
X3885Y2016D01*
X3886Y2015D01*
X3887Y2014D01*
X3888Y2013D01*
X3889Y2012D01*
X3890Y2011D01*
X3891Y2010D01*
X3892Y2009D01*
X3893Y2008D01*
X3894Y2007D01*
X3895Y2006D01*
X3896Y2005D01*
X3897Y2004D01*
X3898Y2003D01*
X3899Y2002D01*
X3899Y1604D01*
X3900Y1603D01*
X3901Y1602D01*
X3902Y1601D01*
X3903Y1600D01*
X3904Y1599D01*
X3905Y1598D01*
X3906Y1597D01*
X3907Y1596D01*
X3908Y1595D01*
X3909Y1594D01*
X3910Y1593D01*
X3911Y1592D01*
X3912Y1591D01*
X3913Y1590D01*
X3914Y1589D01*
X3915Y1588D01*
X3916Y1587D01*
X3917Y1586D01*
X3918Y1585D01*
X3919Y1584D01*
X3920Y1583D01*
X3921Y1582D01*
X3922Y1581D01*
X3923Y1580D01*
X3924Y1579D01*
X3925Y1578D01*
X3926Y1577D01*
X3927Y1576D01*
X3928Y1575D01*
X3929Y1574D01*
X3930Y1573D01*
X3931Y1572D01*
X3932Y1571D01*
X3933Y1570D01*
X3934Y1569D01*
X3935Y1568D01*
X3936Y1567D01*
X3937Y1566D01*
X3938Y1565D01*
X3939Y1564D01*
X3940Y1563D01*
X3941Y1562D01*
X3942Y1561D01*
X3943Y1560D01*
X3944Y1559D01*
X3945Y1558D01*
X3946Y1557D01*
X3947Y1556D01*
X3948Y1555D01*
X3949Y1554D01*
X3950Y1553D01*
X3951Y1552D01*
X3952Y1551D01*
X3953Y1550D01*
X3954Y1549D01*
X3955Y1548D01*
X3956Y1547D01*
X3957Y1546D01*
X3958Y1545D01*
X3959Y1544D01*
X3960Y1543D01*
X3961Y1542D01*
X3962Y1541D01*
X3963Y1540D01*
X3964Y1539D01*
X3965Y1538D01*
X3966Y1537D01*
X3967Y1536D01*
X3968Y1535D01*
X3969Y1534D01*
X3970Y1533D01*
X3971Y1532D01*
X3972Y1531D01*
X3973Y1530D01*
X3974Y1529D01*
X3975Y1528D01*
X3976Y1527D01*
X3977Y1526D01*
X3978Y1525D01*
X3979Y1524D01*
X3980Y1523D01*
X3981Y1522D01*
X3982Y1521D01*
X3983Y1520D01*
X3984Y1519D01*
X3985Y1518D01*
X3986Y1517D01*
X3987Y1516D01*
X3988Y1515D01*
X3989Y1514D01*
X3990Y1513D01*
X3991Y1512D01*
X3992Y1511D01*
X3993Y1510D01*
X3994Y1509D01*
X3995Y1508D01*
X3996Y1507D01*
X3997Y1506D01*
X3998Y1505D01*
X3998Y160D01*
X3997Y159D01*
X3996Y158D01*
X3995Y157D01*
X3994Y156D01*
X3993Y155D01*
X3992Y154D01*
X3991Y153D01*
X3990Y152D01*
X3989Y151D01*
X3988Y150D01*
X3987Y149D01*
X3986Y148D01*
X3985Y147D01*
X3984Y146D01*
X3983Y145D01*
X3982Y144D01*
X3981Y143D01*
X3980Y142D01*
X3979Y141D01*
X3978Y140D01*
X3977Y139D01*
X3976Y138D01*
X3975Y137D01*
X3974Y136D01*
X3973Y135D01*
X3972Y134D01*
X3971Y133D01*
X3970Y132D01*
X3969Y131D01*
X3968Y130D01*
X3967Y129D01*
X3966Y128D01*
X3965Y127D01*
X3964Y126D01*
X3963Y125D01*
X3962Y124D01*
X3961Y123D01*
X3960Y122D01*
X3959Y121D01*
X3958Y120D01*
X3957Y119D01*
X3956Y118D01*
X3955Y117D01*
X3954Y116D01*
X3953Y115D01*
X3952Y114D01*
X3951Y113D01*
X3950Y112D01*
X3949Y111D01*
X3948Y110D01*
X3947Y109D01*
X3946Y108D01*
X3945Y107D01*
X3944Y106D01*
X3943Y105D01*
X3942Y104D01*
X3941Y103D01*
X3940Y102D01*
X3939Y101D01*
X3938Y100D01*
X3937Y99D01*
X3936Y98D01*
X3935Y97D01*
X3934Y96D01*
X3933Y95D01*
X3932Y94D01*
X3931Y93D01*
X3930Y92D01*
X3929Y91D01*
X3928Y90D01*
X3927Y89D01*
X3926Y88D01*
X3925Y87D01*
X3924Y86D01*
X3923Y85D01*
X3922Y84D01*
X3921Y83D01*
X3920Y82D01*
X3919Y81D01*
X3918Y80D01*
X3917Y79D01*
X3916Y78D01*
X3915Y77D01*
X3914Y76D01*
X3913Y75D01*
X3912Y74D01*
X3911Y73D01*
X3910Y72D01*
X3909Y71D01*
X3908Y70D01*
X3907Y69D01*
X3906Y68D01*
X3905Y67D01*
X3904Y66D01*
X3903Y65D01*
X3902Y64D01*
X3901Y63D01*
X3900Y62D01*
X3899Y61D01*
X3899Y42D01*
X3898Y41D01*
X3898Y37D01*
X3897Y36D01*
X3897Y34D01*
X3896Y33D01*
X3896Y31D01*
X3895Y30D01*
X3895Y29D01*
X3894Y28D01*
X3893Y27D01*
X3893Y26D01*
X3892Y25D01*
X3891Y24D01*
X3891Y23D01*
X3890Y22D01*
X3889Y21D01*
X3888Y20D01*
X3887Y19D01*
X3886Y18D01*
X3885Y18D01*
X3884Y17D01*
X3883Y16D01*
X3882Y16D01*
X3881Y15D01*
X3880Y15D01*
X3879Y14D01*
X3878Y14D01*
X3877Y13D01*
X3876Y13D01*
X3875Y12D01*
X3874Y12D01*
X3873Y12D01*
X3872Y12D01*
X3871Y11D01*
X3870Y11D01*
X3869Y11D01*
X3868Y11D01*
X3867Y11D01*
X3866Y11D01*
X3865Y11D01*
X3864Y11D01*
X3863Y11D01*
X3862Y11D01*
X3861Y11D01*
X3860Y11D01*
X3859Y11D01*
X3858Y11D01*
X3857Y11D01*
X3856Y11D01*
X3855Y11D01*
X3854Y11D01*
X3853Y11D01*
X3852Y11D01*
X3851Y11D01*
X3850Y11D01*
X3849Y11D01*
X3848Y11D01*
X3847Y11D01*
X3846Y11D01*
X3845Y11D01*
X3844Y11D01*
X3843Y11D01*
X3842Y11D01*
X3841Y11D01*
X3840Y11D01*
X3839Y11D01*
X3838Y11D01*
X3837Y11D01*
X3836Y11D01*
X3835Y11D01*
X3834Y11D01*
X3833Y11D01*
X3832Y11D01*
X3831Y11D01*
X3830Y11D01*
X3829Y11D01*
X3828Y11D01*
X3827Y11D01*
X3826Y11D01*
X3825Y11D01*
X3824Y11D01*
X3823Y11D01*
X3822Y11D01*
X3821Y11D01*
X3820Y11D01*
X3819Y11D01*
X3818Y11D01*
X3817Y11D01*
X3816Y11D01*
X3815Y11D01*
X3814Y11D01*
X3813Y11D01*
X3812Y11D01*
X3811Y11D01*
X3810Y11D01*
X3809Y11D01*
X3808Y11D01*
X3807Y11D01*
X3806Y11D01*
X3805Y11D01*
X3804Y11D01*
X3803Y11D01*
X3802Y11D01*
X3801Y11D01*
X3800Y11D01*
X3799Y11D01*
X3798Y11D01*
X3797Y11D01*
X3796Y11D01*
X3795Y11D01*
X3794Y11D01*
X3793Y11D01*
X3792Y11D01*
X3791Y11D01*
X3790Y11D01*
X3789Y11D01*
X3788Y11D01*
X3787Y11D01*
X3786Y11D01*
X3785Y11D01*
X3784Y11D01*
X3783Y11D01*
X3782Y11D01*
X3781Y11D01*
X3780Y11D01*
X3779Y11D01*
X3778Y11D01*
X3777Y11D01*
X3776Y11D01*
X3775Y11D01*
X3774Y11D01*
X3773Y11D01*
X3772Y11D01*
X3771Y11D01*
X3770Y11D01*
X3769Y11D01*
X3768Y11D01*
X3767Y11D01*
X3766Y11D01*
X3765Y11D01*
X3764Y11D01*
X3763Y11D01*
X3762Y11D01*
X3761Y11D01*
X3760Y11D01*
X3759Y11D01*
X3758Y11D01*
X3757Y11D01*
X3756Y11D01*
X3755Y11D01*
X3754Y11D01*
X3753Y11D01*
X3752Y11D01*
X3751Y11D01*
X3750Y11D01*
X3749Y11D01*
X3748Y11D01*
X3747Y11D01*
X3746Y11D01*
X3745Y11D01*
X3744Y11D01*
X3743Y11D01*
X3742Y11D01*
X3741Y11D01*
X3740Y11D01*
X3739Y11D01*
X3738Y11D01*
X3737Y11D01*
X3736Y11D01*
X3735Y11D01*
X3734Y11D01*
X3733Y11D01*
X3732Y11D01*
X3731Y11D01*
X3730Y11D01*
X3729Y11D01*
X3728Y11D01*
X3727Y11D01*
X3726Y11D01*
X3725Y11D01*
X3724Y11D01*
X3723Y11D01*
X3722Y11D01*
X3721Y11D01*
X3720Y11D01*
X3719Y11D01*
X3718Y11D01*
X3717Y11D01*
X3716Y11D01*
X3715Y11D01*
X3714Y11D01*
X3713Y11D01*
X3712Y11D01*
X3711Y11D01*
X3710Y11D01*
X3709Y11D01*
X3708Y11D01*
X3707Y11D01*
X3706Y11D01*
X3705Y11D01*
X3704Y11D01*
X3703Y11D01*
X3702Y11D01*
X3701Y11D01*
X3700Y11D01*
X3699Y11D01*
X3698Y11D01*
X3697Y11D01*
X3696Y11D01*
X3695Y11D01*
X3694Y11D01*
X3693Y11D01*
X3692Y11D01*
X3691Y11D01*
X3690Y11D01*
X3689Y11D01*
X3688Y11D01*
X3687Y11D01*
X3686Y11D01*
X3685Y11D01*
X3684Y11D01*
X3683Y11D01*
X3682Y11D01*
X3681Y11D01*
X3680Y11D01*
X3679Y11D01*
X3678Y11D01*
X3677Y11D01*
X3676Y11D01*
X3675Y11D01*
X3674Y11D01*
X3673Y11D01*
X3672Y11D01*
X3671Y11D01*
X3670Y11D01*
X3669Y11D01*
X3668Y11D01*
X3667Y11D01*
X3666Y11D01*
X3665Y11D01*
X3664Y11D01*
X3663Y11D01*
X3662Y11D01*
X3661Y11D01*
X3660Y11D01*
X3659Y11D01*
X3658Y11D01*
X3657Y11D01*
X3656Y11D01*
X3655Y11D01*
X3654Y11D01*
X3653Y11D01*
X3652Y11D01*
X3651Y11D01*
X3650Y11D01*
X3649Y11D01*
X3648Y11D01*
X3647Y11D01*
X3646Y11D01*
X3645Y11D01*
X3644Y11D01*
X3643Y11D01*
X3642Y11D01*
X3641Y11D01*
X3640Y11D01*
X3639Y11D01*
X3638Y11D01*
X3637Y11D01*
X3636Y11D01*
X3635Y11D01*
X3634Y11D01*
X3633Y11D01*
X3632Y11D01*
X3631Y11D01*
X3630Y11D01*
X3629Y11D01*
X3628Y11D01*
X3627Y11D01*
X3626Y11D01*
X3625Y11D01*
X3624Y11D01*
X3623Y11D01*
X3622Y11D01*
X3621Y11D01*
X3620Y11D01*
X3619Y11D01*
X3618Y11D01*
X3617Y11D01*
X3616Y11D01*
X3615Y11D01*
X3614Y11D01*
X3613Y11D01*
X3612Y11D01*
X3611Y11D01*
X3610Y11D01*
X3609Y11D01*
X3608Y11D01*
X3607Y11D01*
X3606Y11D01*
X3605Y11D01*
X3604Y11D01*
X3603Y11D01*
X3602Y11D01*
X3601Y11D01*
X3600Y11D01*
X3599Y11D01*
X3598Y11D01*
X3597Y11D01*
X3596Y11D01*
X3595Y11D01*
X3594Y11D01*
X3593Y11D01*
X3592Y11D01*
X3591Y11D01*
X3590Y11D01*
X3589Y11D01*
X3588Y11D01*
X3587Y11D01*
X3586Y11D01*
X3585Y11D01*
X3584Y11D01*
X3583Y11D01*
X3582Y11D01*
X3581Y11D01*
X3580Y11D01*
X3579Y11D01*
X3578Y11D01*
X3577Y11D01*
X3576Y11D01*
X3575Y11D01*
X3574Y11D01*
X3573Y11D01*
X3572Y11D01*
X3571Y11D01*
X3570Y11D01*
X3569Y11D01*
X3568Y11D01*
X3567Y11D01*
X3566Y11D01*
X3565Y11D01*
X3564Y11D01*
X3563Y11D01*
X3562Y11D01*
X3561Y11D01*
X3560Y11D01*
X3559Y11D01*
X3558Y11D01*
X3557Y11D01*
X3556Y11D01*
X3555Y11D01*
X3554Y11D01*
X3553Y11D01*
X3552Y11D01*
X3551Y11D01*
X3550Y11D01*
X3549Y11D01*
X3548Y11D01*
X3547Y11D01*
X3546Y11D01*
X3545Y11D01*
X3544Y11D01*
X3543Y11D01*
X3542Y11D01*
X3541Y11D01*
X3540Y11D01*
X3539Y11D01*
X3538Y11D01*
X3537Y11D01*
X3536Y11D01*
X3535Y11D01*
X3534Y11D01*
X3533Y11D01*
X3532Y11D01*
X3531Y11D01*
X3530Y11D01*
X3529Y11D01*
X3528Y11D01*
X3527Y11D01*
X3526Y11D01*
X3525Y11D01*
X3524Y11D01*
X3523Y11D01*
X3522Y11D01*
X3521Y11D01*
X3520Y11D01*
X3519Y11D01*
X3518Y11D01*
X3517Y11D01*
X3516Y11D01*
X3515Y11D01*
X3514Y11D01*
X3513Y11D01*
X3512Y11D01*
X3511Y11D01*
X3510Y11D01*
X3509Y11D01*
X3508Y11D01*
X3507Y11D01*
X3506Y11D01*
X3505Y11D01*
X3504Y11D01*
X3503Y11D01*
X3502Y11D01*
X3501Y11D01*
X3500Y11D01*
X3499Y11D01*
X3498Y11D01*
X3497Y11D01*
X3496Y11D01*
X3495Y11D01*
X3494Y11D01*
X3493Y11D01*
X3492Y11D01*
X3491Y11D01*
X3490Y11D01*
X3489Y11D01*
X3488Y11D01*
X3487Y11D01*
X3486Y11D01*
X3485Y11D01*
X3484Y11D01*
X3483Y11D01*
X3482Y11D01*
X3481Y11D01*
X3480Y11D01*
X3479Y11D01*
X3478Y11D01*
X3477Y11D01*
X3476Y11D01*
X3475Y11D01*
X3474Y11D01*
X3473Y11D01*
X3472Y11D01*
X3471Y11D01*
X3470Y11D01*
X3469Y11D01*
X3468Y11D01*
X3467Y11D01*
X3466Y11D01*
X3465Y11D01*
X3464Y11D01*
X3463Y11D01*
X3462Y11D01*
X3461Y11D01*
X3460Y11D01*
X3459Y11D01*
X3458Y11D01*
X3457Y11D01*
X3456Y11D01*
X3455Y11D01*
X3454Y11D01*
X3453Y11D01*
X3452Y11D01*
X3451Y11D01*
X3450Y11D01*
X3449Y11D01*
X3448Y11D01*
X3447Y11D01*
X3446Y11D01*
X3445Y11D01*
X3444Y11D01*
X3443Y11D01*
X3442Y11D01*
X3441Y11D01*
X3440Y11D01*
X3439Y11D01*
X3438Y11D01*
X3437Y11D01*
X3436Y11D01*
X3435Y11D01*
X3434Y11D01*
X3433Y11D01*
X3432Y11D01*
X3431Y11D01*
X3430Y11D01*
X3429Y11D01*
X3428Y11D01*
X3427Y11D01*
X3426Y11D01*
X3425Y11D01*
X3424Y11D01*
X3423Y11D01*
X3422Y11D01*
X3421Y11D01*
X3420Y11D01*
X3419Y11D01*
X3418Y11D01*
X3417Y11D01*
X3416Y11D01*
X3415Y11D01*
X3414Y11D01*
X3413Y11D01*
X3412Y11D01*
X3411Y11D01*
X3410Y11D01*
X3409Y11D01*
X3408Y11D01*
X3407Y11D01*
X3406Y11D01*
X3405Y11D01*
X3404Y11D01*
X3403Y11D01*
X3402Y11D01*
X3401Y11D01*
X3400Y11D01*
X3399Y11D01*
X3398Y11D01*
X3397Y11D01*
X3396Y11D01*
X3395Y11D01*
X3394Y11D01*
X3393Y11D01*
X3392Y11D01*
X3391Y11D01*
X3390Y11D01*
X3389Y11D01*
X3388Y11D01*
X3387Y11D01*
X3386Y11D01*
X3385Y11D01*
X3384Y11D01*
X3383Y11D01*
X3382Y11D01*
X3381Y11D01*
X3380Y11D01*
X3379Y11D01*
X3378Y11D01*
X3377Y11D01*
X3376Y11D01*
X3375Y11D01*
X3374Y11D01*
X3373Y11D01*
X3372Y11D01*
X3371Y11D01*
X3370Y11D01*
X3369Y11D01*
X3368Y11D01*
X3367Y11D01*
X3366Y11D01*
X3365Y11D01*
X3364Y11D01*
X3363Y11D01*
X3362Y11D01*
X3361Y11D01*
X3360Y11D01*
X3359Y11D01*
X3358Y11D01*
X3357Y11D01*
X3356Y11D01*
X3355Y11D01*
X3354Y11D01*
X3353Y11D01*
X3352Y11D01*
X3351Y11D01*
X3350Y11D01*
X3349Y11D01*
X3348Y11D01*
X3347Y11D01*
X3346Y11D01*
X3345Y11D01*
X3344Y11D01*
X3343Y11D01*
X3342Y11D01*
X3341Y11D01*
X3340Y11D01*
X3339Y11D01*
X3338Y11D01*
X3337Y11D01*
X3336Y11D01*
X3335Y11D01*
X3334Y11D01*
X3333Y11D01*
X3332Y11D01*
X3331Y11D01*
X3330Y11D01*
X3329Y11D01*
X3328Y11D01*
X3327Y11D01*
X3326Y11D01*
X3325Y11D01*
X3324Y11D01*
X3323Y11D01*
X3322Y11D01*
X3321Y11D01*
X3320Y11D01*
X3319Y11D01*
X3318Y11D01*
X3317Y11D01*
X3316Y11D01*
X3315Y11D01*
X3314Y11D01*
X3313Y11D01*
X3312Y11D01*
X3311Y11D01*
X3310Y11D01*
X3309Y11D01*
X3308Y11D01*
X3307Y11D01*
X3306Y11D01*
X3305Y11D01*
X3304Y11D01*
X3303Y11D01*
X3302Y11D01*
X3301Y11D01*
X3300Y11D01*
X3299Y11D01*
X3298Y11D01*
X3297Y11D01*
X3296Y11D01*
X3295Y11D01*
X3294Y11D01*
X3293Y11D01*
X3292Y11D01*
X3291Y11D01*
X3290Y11D01*
X3289Y11D01*
X3288Y11D01*
X3287Y11D01*
X3286Y11D01*
X3285Y11D01*
X3284Y11D01*
X3283Y11D01*
X3282Y11D01*
X3281Y11D01*
X3280Y11D01*
X3279Y11D01*
X3278Y11D01*
X3277Y11D01*
X3276Y11D01*
X3275Y11D01*
X3274Y11D01*
X3273Y11D01*
X3272Y11D01*
X3271Y11D01*
X3270Y11D01*
X3269Y11D01*
X3268Y11D01*
X3267Y11D01*
X3266Y11D01*
X3265Y11D01*
X3264Y11D01*
X3263Y11D01*
X3262Y11D01*
X3261Y11D01*
X3260Y11D01*
X3259Y11D01*
X3258Y11D01*
X3257Y11D01*
X3256Y11D01*
X3255Y11D01*
X3254Y11D01*
X3253Y11D01*
X3252Y11D01*
X3251Y11D01*
X3250Y11D01*
X3249Y11D01*
X3248Y11D01*
X3247Y11D01*
X3246Y11D01*
X3245Y11D01*
X3244Y11D01*
X3243Y11D01*
X3242Y11D01*
X3241Y11D01*
X3240Y11D01*
X3239Y11D01*
X3238Y11D01*
X3237Y11D01*
X3236Y11D01*
X3235Y11D01*
X3234Y11D01*
X3233Y11D01*
X3232Y11D01*
X3231Y11D01*
X3230Y11D01*
X3229Y11D01*
X3228Y11D01*
X3227Y11D01*
X3226Y11D01*
X3225Y11D01*
X3224Y11D01*
X3223Y11D01*
X3222Y11D01*
X3221Y11D01*
X3220Y11D01*
X3219Y11D01*
X3218Y11D01*
X3217Y11D01*
X3216Y11D01*
X3215Y11D01*
X3214Y11D01*
X3213Y11D01*
X3212Y11D01*
X3211Y11D01*
X3210Y11D01*
X3209Y11D01*
X3208Y11D01*
X3207Y11D01*
X3206Y11D01*
X3205Y11D01*
X3204Y11D01*
X3203Y11D01*
X3202Y11D01*
X3201Y11D01*
X3200Y11D01*
X3199Y11D01*
X3198Y11D01*
X3197Y11D01*
X3196Y11D01*
X3195Y11D01*
X3194Y11D01*
X3193Y11D01*
X3192Y11D01*
X3191Y11D01*
X3190Y11D01*
X3189Y11D01*
X3188Y11D01*
X3187Y11D01*
X3186Y11D01*
X3185Y11D01*
X3184Y11D01*
X3183Y11D01*
X3182Y11D01*
X3181Y11D01*
X3180Y11D01*
X3179Y11D01*
X3178Y11D01*
X3177Y11D01*
X3176Y11D01*
X3175Y11D01*
X3174Y11D01*
X3173Y11D01*
X3172Y11D01*
X3171Y11D01*
X3170Y11D01*
X3169Y11D01*
X3168Y11D01*
X3167Y11D01*
X3166Y11D01*
X3165Y11D01*
X3164Y11D01*
X3163Y11D01*
X3162Y11D01*
X3161Y11D01*
X3160Y11D01*
X3159Y11D01*
X3158Y11D01*
X3157Y11D01*
X3156Y11D01*
X3155Y11D01*
X3154Y11D01*
X3153Y11D01*
X3152Y11D01*
X3151Y11D01*
X3150Y11D01*
X3149Y11D01*
X3148Y11D01*
X3147Y11D01*
X3146Y11D01*
X3145Y11D01*
X3144Y11D01*
X3143Y11D01*
X3142Y11D01*
X3141Y11D01*
X3140Y11D01*
X3139Y11D01*
X3138Y11D01*
X3137Y11D01*
X3136Y11D01*
X3135Y11D01*
X3134Y11D01*
X3133Y11D01*
X3132Y11D01*
X3131Y11D01*
X3130Y11D01*
X3129Y11D01*
X3128Y11D01*
X3127Y11D01*
X3126Y11D01*
X3125Y11D01*
X3124Y11D01*
X3123Y11D01*
X3122Y11D01*
X3121Y11D01*
X3120Y11D01*
X3119Y11D01*
X3118Y11D01*
X3117Y11D01*
X3116Y11D01*
X3115Y11D01*
X3114Y11D01*
X3113Y11D01*
X3112Y11D01*
X3111Y11D01*
X3110Y11D01*
X3109Y11D01*
X3108Y11D01*
X3107Y11D01*
X3106Y11D01*
X3105Y11D01*
X3104Y11D01*
X3103Y11D01*
X3102Y11D01*
X3101Y11D01*
X3100Y11D01*
X3099Y11D01*
X3098Y11D01*
X3097Y11D01*
X3096Y11D01*
X3095Y11D01*
X3094Y11D01*
X3093Y11D01*
X3092Y11D01*
X3091Y11D01*
X3090Y11D01*
X3089Y11D01*
X3088Y11D01*
X3087Y11D01*
X3086Y11D01*
X3085Y11D01*
X3084Y11D01*
X3083Y11D01*
X3082Y11D01*
X3081Y11D01*
X3080Y11D01*
X3079Y11D01*
X3078Y11D01*
X3077Y11D01*
X3076Y11D01*
X3075Y11D01*
X3074Y11D01*
X3073Y11D01*
X3072Y11D01*
X3071Y11D01*
X3070Y11D01*
X3069Y11D01*
X3068Y11D01*
X3067Y11D01*
X3066Y11D01*
X3065Y11D01*
X3064Y11D01*
X3063Y11D01*
X3062Y11D01*
X3061Y11D01*
X3060Y11D01*
X3059Y11D01*
X3058Y11D01*
X3057Y11D01*
X3056Y11D01*
X3055Y11D01*
X3054Y11D01*
X3053Y11D01*
X3052Y11D01*
X3051Y11D01*
X3050Y11D01*
X3049Y11D01*
X3048Y11D01*
X3047Y11D01*
X3046Y11D01*
X3045Y11D01*
X3044Y11D01*
X3043Y11D01*
X3042Y11D01*
X3041Y11D01*
X3040Y11D01*
X3039Y11D01*
X3038Y11D01*
X3037Y11D01*
X3036Y11D01*
X3035Y11D01*
X3034Y11D01*
X3033Y11D01*
X3032Y11D01*
X3031Y11D01*
X3030Y11D01*
X3029Y11D01*
X3028Y11D01*
X3027Y11D01*
X3026Y11D01*
X3025Y11D01*
X3024Y11D01*
X3023Y11D01*
X3022Y11D01*
X3021Y11D01*
X3020Y11D01*
X3019Y11D01*
X3018Y11D01*
X3017Y11D01*
X3016Y11D01*
X3015Y11D01*
X3014Y11D01*
X3013Y11D01*
X3012Y11D01*
X3011Y11D01*
X3010Y11D01*
X3009Y11D01*
X3008Y11D01*
X3007Y11D01*
X3006Y11D01*
X3005Y11D01*
X3004Y11D01*
X3003Y11D01*
X3002Y11D01*
X3001Y11D01*
X3000Y11D01*
X2999Y11D01*
X2998Y11D01*
X2997Y11D01*
X2996Y11D01*
X2995Y11D01*
X2994Y11D01*
X2993Y11D01*
X2992Y11D01*
X2991Y11D01*
X2990Y11D01*
X2989Y11D01*
X2988Y11D01*
X2987Y11D01*
X2986Y11D01*
X2985Y11D01*
X2984Y11D01*
X2983Y11D01*
X2982Y11D01*
X2981Y11D01*
X2980Y11D01*
X2979Y11D01*
X2978Y11D01*
X2977Y11D01*
X2976Y11D01*
X2975Y11D01*
X2974Y11D01*
X2973Y11D01*
X2972Y11D01*
X2971Y11D01*
X2970Y11D01*
X2969Y11D01*
X2968Y11D01*
X2967Y11D01*
X2966Y11D01*
X2965Y11D01*
X2964Y11D01*
X2963Y11D01*
X2962Y11D01*
X2961Y11D01*
X2960Y11D01*
X2959Y11D01*
X2958Y11D01*
X2957Y11D01*
X2956Y11D01*
X2955Y11D01*
X2954Y11D01*
X2953Y11D01*
X2952Y11D01*
X2951Y11D01*
X2950Y11D01*
X2949Y11D01*
X2948Y11D01*
X2947Y11D01*
X2946Y11D01*
X2945Y11D01*
X2944Y11D01*
X2943Y11D01*
X2942Y11D01*
X2941Y11D01*
X2940Y11D01*
X2939Y11D01*
X2938Y11D01*
X2937Y11D01*
X2936Y11D01*
X2935Y11D01*
X2934Y11D01*
X2933Y11D01*
X2932Y11D01*
X2931Y11D01*
X2930Y11D01*
X2929Y11D01*
X2928Y11D01*
X2927Y11D01*
X2926Y11D01*
X2925Y11D01*
X2924Y11D01*
X2923Y11D01*
X2922Y11D01*
X2921Y11D01*
X2920Y11D01*
X2919Y11D01*
X2918Y11D01*
X2917Y11D01*
X2916Y11D01*
X2915Y11D01*
X2914Y11D01*
X2913Y11D01*
X2912Y11D01*
X2911Y11D01*
X2910Y11D01*
X2909Y11D01*
X2908Y11D01*
X2907Y11D01*
X2906Y11D01*
X2905Y11D01*
X2904Y11D01*
X2903Y11D01*
X2902Y11D01*
X2901Y11D01*
X2900Y11D01*
X2899Y11D01*
X2898Y11D01*
X2897Y11D01*
X2896Y11D01*
X2895Y11D01*
X2894Y11D01*
X2893Y11D01*
X2892Y11D01*
X2891Y11D01*
X2890Y11D01*
X2889Y11D01*
X2888Y11D01*
X2887Y11D01*
X2886Y11D01*
X2885Y11D01*
X2884Y11D01*
X2883Y11D01*
X2882Y11D01*
X2881Y11D01*
X2880Y11D01*
X2879Y11D01*
X2878Y11D01*
X2877Y11D01*
X2876Y11D01*
X2875Y11D01*
X2874Y11D01*
X2873Y11D01*
X2872Y11D01*
X2871Y11D01*
X2870Y11D01*
X2869Y11D01*
X2868Y11D01*
X2867Y11D01*
X2866Y11D01*
X2865Y11D01*
X2864Y11D01*
X2863Y11D01*
X2862Y11D01*
X2861Y11D01*
X2860Y11D01*
X2859Y11D01*
X2858Y11D01*
X2857Y11D01*
X2856Y11D01*
X2855Y11D01*
X2854Y11D01*
X2853Y11D01*
X2852Y11D01*
X2851Y11D01*
X2850Y11D01*
X2849Y11D01*
X2848Y11D01*
X2847Y11D01*
X2846Y11D01*
X2845Y11D01*
X2844Y11D01*
X2843Y11D01*
X2842Y11D01*
X2841Y11D01*
X2840Y11D01*
X2839Y11D01*
X2838Y11D01*
X2837Y11D01*
X2836Y11D01*
X2835Y11D01*
X2834Y11D01*
X2833Y11D01*
X2832Y11D01*
X2831Y11D01*
X2830Y11D01*
X2829Y11D01*
X2828Y11D01*
X2827Y11D01*
X2826Y11D01*
X2825Y11D01*
X2824Y11D01*
X2823Y11D01*
X2822Y11D01*
X2821Y11D01*
X2820Y11D01*
X2819Y11D01*
X2818Y11D01*
X2817Y11D01*
X2816Y11D01*
X2815Y11D01*
X2814Y11D01*
X2813Y11D01*
X2812Y11D01*
X2811Y11D01*
X2810Y11D01*
X2809Y11D01*
X2808Y11D01*
X2807Y11D01*
X2806Y11D01*
X2805Y11D01*
X2804Y11D01*
X2803Y11D01*
X2802Y11D01*
X2801Y11D01*
X2800Y11D01*
X2799Y11D01*
X2798Y11D01*
X2797Y11D01*
X2796Y11D01*
X2795Y11D01*
X2794Y11D01*
X2793Y11D01*
X2792Y11D01*
X2791Y11D01*
X2790Y11D01*
X2789Y11D01*
X2788Y11D01*
X2787Y11D01*
X2786Y11D01*
X2785Y11D01*
X2784Y11D01*
X2783Y11D01*
X2782Y11D01*
X2781Y11D01*
X2780Y11D01*
X2779Y11D01*
X2778Y11D01*
X2777Y11D01*
X2776Y11D01*
X2775Y11D01*
X2774Y11D01*
X2773Y11D01*
X2772Y11D01*
X2771Y11D01*
X2770Y11D01*
X2769Y11D01*
X2768Y11D01*
X2767Y11D01*
X2766Y11D01*
X2765Y11D01*
X2764Y11D01*
X2763Y11D01*
X2762Y11D01*
X2761Y11D01*
X2760Y11D01*
X2759Y11D01*
X2758Y11D01*
X2757Y11D01*
X2756Y11D01*
X2755Y11D01*
X2754Y11D01*
X2753Y11D01*
X2752Y11D01*
X2751Y11D01*
X2750Y11D01*
X2749Y11D01*
X2748Y11D01*
X2747Y11D01*
X2746Y11D01*
X2745Y11D01*
X2744Y11D01*
X2743Y11D01*
X2742Y11D01*
X2741Y11D01*
X2740Y11D01*
X2739Y11D01*
X2738Y11D01*
X2737Y11D01*
X2736Y11D01*
X2735Y11D01*
X2734Y11D01*
X2733Y11D01*
X2732Y11D01*
X2731Y11D01*
X2730Y11D01*
X2729Y11D01*
X2728Y11D01*
X2727Y11D01*
X2726Y11D01*
X2725Y11D01*
X2724Y11D01*
X2723Y11D01*
X2722Y11D01*
X2721Y11D01*
X2720Y11D01*
X2719Y11D01*
X2718Y11D01*
X2717Y11D01*
X2716Y11D01*
X2715Y11D01*
X2714Y11D01*
X2713Y11D01*
X2712Y11D01*
X2711Y11D01*
X2710Y11D01*
X2709Y11D01*
X2708Y11D01*
X2707Y11D01*
X2706Y11D01*
X2705Y11D01*
X2704Y11D01*
X2703Y11D01*
X2702Y11D01*
X2701Y11D01*
X2700Y11D01*
X2699Y11D01*
X2698Y11D01*
X2697Y11D01*
X2696Y11D01*
X2695Y11D01*
X2694Y11D01*
X2693Y11D01*
X2692Y11D01*
X2691Y11D01*
X2690Y11D01*
X2689Y11D01*
X2688Y11D01*
X2687Y11D01*
X2686Y11D01*
X2685Y11D01*
X2684Y11D01*
X2683Y11D01*
X2682Y11D01*
X2681Y11D01*
X2680Y11D01*
X2679Y11D01*
X2678Y11D01*
X2677Y11D01*
X2676Y11D01*
X2675Y11D01*
X2674Y11D01*
X2673Y11D01*
X2672Y11D01*
X2671Y11D01*
X2670Y11D01*
X2669Y11D01*
X2668Y11D01*
X2667Y11D01*
X2666Y11D01*
X2665Y11D01*
X2664Y11D01*
X2663Y11D01*
X2662Y11D01*
X2661Y11D01*
X2660Y11D01*
X2659Y11D01*
X2658Y11D01*
X2657Y11D01*
X2656Y11D01*
X2655Y11D01*
X2654Y11D01*
X2653Y11D01*
X2652Y11D01*
X2651Y11D01*
X2650Y11D01*
X2649Y11D01*
X2648Y11D01*
X2647Y11D01*
X2646Y11D01*
X2645Y11D01*
X2644Y11D01*
X2643Y11D01*
X2642Y11D01*
X2641Y11D01*
X2640Y11D01*
X2639Y11D01*
X2638Y11D01*
X2637Y11D01*
X2636Y11D01*
X2635Y11D01*
X2634Y11D01*
X2633Y11D01*
X2632Y11D01*
X2631Y11D01*
X2630Y11D01*
X2629Y11D01*
X2628Y11D01*
X2627Y11D01*
X2626Y11D01*
X2625Y11D01*
X2624Y11D01*
X2623Y11D01*
X2622Y11D01*
X2621Y11D01*
X2620Y11D01*
X2619Y11D01*
X2618Y11D01*
X2617Y11D01*
X2616Y11D01*
X2615Y11D01*
X2614Y11D01*
X2613Y11D01*
X2612Y11D01*
X2611Y11D01*
X2610Y11D01*
X2609Y11D01*
X2608Y11D01*
X2607Y11D01*
X2606Y11D01*
X2605Y11D01*
X2604Y11D01*
X2603Y11D01*
X2602Y11D01*
X2601Y11D01*
X2600Y11D01*
X2599Y11D01*
X2598Y11D01*
X2597Y11D01*
X2596Y11D01*
X2595Y11D01*
X2594Y11D01*
X2593Y11D01*
X2592Y11D01*
X2591Y11D01*
X2590Y11D01*
X2589Y11D01*
X2588Y11D01*
X2587Y11D01*
X2586Y11D01*
X2585Y11D01*
X2584Y11D01*
X2583Y11D01*
X2582Y11D01*
X2581Y11D01*
X2580Y11D01*
X2579Y11D01*
X2578Y11D01*
X2577Y11D01*
X2576Y11D01*
X2575Y11D01*
X2574Y11D01*
X2573Y11D01*
X2572Y11D01*
X2571Y11D01*
X2570Y11D01*
X2569Y11D01*
X2568Y11D01*
X2567Y11D01*
X2566Y11D01*
X2565Y11D01*
X2564Y11D01*
X2563Y11D01*
X2562Y11D01*
X2561Y11D01*
X2560Y11D01*
X2559Y11D01*
X2558Y11D01*
X2557Y11D01*
X2556Y11D01*
X2555Y11D01*
X2554Y11D01*
X2553Y11D01*
X2552Y11D01*
X2551Y11D01*
X2550Y11D01*
X2549Y11D01*
X2548Y11D01*
X2547Y11D01*
X2546Y11D01*
X2545Y11D01*
X2544Y11D01*
X2543Y11D01*
X2542Y11D01*
X2541Y11D01*
X2540Y11D01*
X2539Y11D01*
X2538Y11D01*
X2537Y11D01*
X2536Y11D01*
X2535Y11D01*
X2534Y11D01*
X2533Y11D01*
X2532Y11D01*
X2531Y11D01*
X2530Y11D01*
X2529Y11D01*
X2528Y11D01*
X2527Y11D01*
X2526Y11D01*
X2525Y11D01*
X2524Y11D01*
X2523Y11D01*
X2522Y11D01*
X2521Y11D01*
X2520Y11D01*
X2519Y11D01*
X2518Y11D01*
X2517Y11D01*
X2516Y11D01*
X2515Y11D01*
X2514Y11D01*
X2513Y11D01*
X2512Y11D01*
X2511Y11D01*
X2510Y11D01*
X2509Y11D01*
X2508Y11D01*
X2507Y11D01*
X2506Y11D01*
X2505Y11D01*
X2504Y11D01*
X2503Y11D01*
X2502Y11D01*
X2501Y11D01*
X2500Y11D01*
X2499Y11D01*
X2498Y11D01*
X2497Y11D01*
X2496Y11D01*
X2495Y11D01*
X2494Y11D01*
X2493Y11D01*
X2492Y11D01*
X2491Y11D01*
X2490Y11D01*
X2489Y11D01*
X2488Y11D01*
X2487Y11D01*
X2486Y11D01*
X2485Y11D01*
X2484Y11D01*
X2483Y11D01*
X2482Y11D01*
X2481Y11D01*
X2480Y11D01*
X2479Y11D01*
X2478Y11D01*
X2477Y11D01*
X2476Y11D01*
X2475Y11D01*
X2474Y11D01*
X2473Y11D01*
X2472Y11D01*
X2471Y11D01*
X2470Y11D01*
X2469Y11D01*
X2468Y11D01*
X2467Y11D01*
X2466Y11D01*
X2465Y11D01*
X2464Y11D01*
X2463Y11D01*
X2462Y11D01*
X2461Y11D01*
X2460Y11D01*
X2459Y11D01*
X2458Y11D01*
X2457Y11D01*
X2456Y11D01*
X2455Y11D01*
X2454Y11D01*
X2453Y11D01*
X2452Y11D01*
X2451Y11D01*
X2450Y11D01*
X2449Y11D01*
X2448Y11D01*
X2447Y11D01*
X2446Y11D01*
X2445Y11D01*
X2444Y11D01*
X2443Y11D01*
X2442Y11D01*
X2441Y11D01*
X2440Y11D01*
X2439Y11D01*
X2438Y11D01*
X2437Y11D01*
X2436Y11D01*
X2435Y11D01*
X2434Y11D01*
X2433Y11D01*
X2432Y11D01*
X2431Y11D01*
X2430Y11D01*
X2429Y11D01*
X2428Y11D01*
X2427Y11D01*
X2426Y11D01*
X2425Y11D01*
X2424Y11D01*
X2423Y11D01*
X2422Y11D01*
X2421Y11D01*
X2420Y11D01*
X2419Y11D01*
X2418Y11D01*
X2417Y11D01*
X2416Y11D01*
X2415Y11D01*
X2414Y11D01*
X2413Y11D01*
X2412Y11D01*
X2411Y11D01*
X2410Y11D01*
X2409Y11D01*
X2408Y11D01*
X2407Y11D01*
X2406Y11D01*
X2405Y11D01*
X2404Y11D01*
X2403Y11D01*
X2402Y11D01*
X2401Y11D01*
X2400Y11D01*
X2399Y11D01*
X2398Y11D01*
X2397Y11D01*
X2396Y11D01*
X2395Y11D01*
X2394Y11D01*
X2393Y11D01*
X2392Y11D01*
X2391Y11D01*
X2390Y11D01*
X2389Y11D01*
X2388Y11D01*
X2387Y11D01*
X2386Y11D01*
X2385Y11D01*
X2384Y11D01*
X2383Y11D01*
X2382Y11D01*
X2381Y11D01*
X2380Y11D01*
X2379Y11D01*
X2378Y11D01*
X2377Y11D01*
X2376Y11D01*
X2375Y11D01*
X2374Y11D01*
X2373Y11D01*
X2372Y11D01*
X2371Y11D01*
X2370Y11D01*
X2369Y11D01*
X2368Y11D01*
X2367Y11D01*
X2366Y11D01*
X2365Y11D01*
X2364Y11D01*
X2363Y11D01*
X2362Y11D01*
X2361Y11D01*
X2360Y11D01*
X2359Y11D01*
X2358Y11D01*
X2357Y11D01*
X2356Y11D01*
X2355Y11D01*
X2354Y11D01*
X2353Y11D01*
X2352Y11D01*
X2351Y11D01*
X2350Y11D01*
X2349Y11D01*
X2348Y11D01*
X2347Y11D01*
X2346Y11D01*
X2345Y11D01*
X2344Y11D01*
X2343Y11D01*
X2342Y11D01*
X2341Y11D01*
X2340Y11D01*
X2339Y11D01*
X2338Y11D01*
X2337Y11D01*
X2336Y11D01*
X2335Y11D01*
X2334Y11D01*
X2333Y11D01*
X2332Y11D01*
X2331Y11D01*
X2330Y11D01*
X2329Y11D01*
X2328Y11D01*
X2327Y11D01*
X2326Y11D01*
X2325Y11D01*
X2324Y11D01*
X2323Y11D01*
X2322Y11D01*
X2321Y11D01*
X2320Y11D01*
X2319Y11D01*
X2318Y11D01*
X2317Y11D01*
X2316Y11D01*
X2315Y11D01*
X2314Y11D01*
X2313Y11D01*
X2312Y11D01*
X2311Y11D01*
X2310Y11D01*
X2309Y11D01*
X2308Y11D01*
X2307Y11D01*
X2306Y11D01*
X2305Y11D01*
X2304Y11D01*
X2303Y11D01*
X2302Y11D01*
X2301Y11D01*
X2300Y11D01*
X2299Y11D01*
X2298Y11D01*
X2297Y11D01*
X2296Y11D01*
X2295Y11D01*
X2294Y11D01*
X2293Y11D01*
X2292Y11D01*
X2291Y11D01*
X2290Y11D01*
X2289Y11D01*
X2288Y11D01*
X2287Y11D01*
X2286Y11D01*
X2285Y11D01*
X2284Y11D01*
X2283Y11D01*
X2282Y11D01*
X2281Y11D01*
X2280Y11D01*
X2279Y11D01*
X2278Y11D01*
X2277Y11D01*
X2276Y11D01*
X2275Y11D01*
X2274Y11D01*
X2273Y11D01*
X2272Y11D01*
X2271Y11D01*
X2270Y11D01*
X2269Y11D01*
X2268Y11D01*
X2267Y11D01*
X2266Y11D01*
X2265Y11D01*
X2264Y11D01*
X2263Y11D01*
X2262Y11D01*
X2261Y11D01*
X2260Y11D01*
X2259Y11D01*
X2258Y11D01*
X2257Y11D01*
X2256Y11D01*
X2255Y11D01*
X2254Y11D01*
X2253Y11D01*
X2252Y11D01*
X2251Y11D01*
X2250Y11D01*
X2249Y11D01*
X2248Y11D01*
X2247Y11D01*
X2246Y11D01*
X2245Y11D01*
X2244Y11D01*
X2243Y11D01*
X2242Y11D01*
X2241Y11D01*
X2240Y11D01*
X2239Y11D01*
X2238Y11D01*
X2237Y11D01*
X2236Y11D01*
X2235Y11D01*
X2234Y11D01*
X2233Y11D01*
X2232Y11D01*
X2231Y11D01*
X2230Y11D01*
X2229Y11D01*
X2228Y11D01*
X2227Y11D01*
X2226Y11D01*
X2225Y11D01*
X2224Y11D01*
X2223Y11D01*
X2222Y11D01*
X2221Y11D01*
X2220Y11D01*
X2219Y11D01*
X2218Y11D01*
X2217Y11D01*
X2216Y11D01*
X2215Y11D01*
X2214Y11D01*
X2213Y11D01*
X2212Y11D01*
X2211Y11D01*
X2210Y11D01*
X2209Y11D01*
X2208Y11D01*
X2207Y11D01*
X2206Y11D01*
X2205Y11D01*
X2204Y11D01*
X2203Y11D01*
X2202Y11D01*
X2201Y11D01*
X2200Y11D01*
X2199Y11D01*
X2198Y11D01*
X2197Y11D01*
X2196Y11D01*
X2195Y11D01*
X2194Y11D01*
X2193Y11D01*
X2192Y11D01*
X2191Y11D01*
X2190Y11D01*
X2189Y11D01*
X2188Y11D01*
X2187Y11D01*
X2186Y11D01*
X2185Y11D01*
X2184Y11D01*
X2183Y11D01*
X2182Y11D01*
X2181Y11D01*
X2180Y11D01*
X2179Y11D01*
X2178Y11D01*
X2177Y11D01*
X2176Y11D01*
X2175Y11D01*
X2174Y11D01*
X2173Y11D01*
X2172Y11D01*
X2171Y11D01*
X2170Y11D01*
X2169Y11D01*
X2168Y11D01*
X2167Y11D01*
X2166Y11D01*
X2165Y11D01*
X2164Y11D01*
X2163Y11D01*
X2162Y11D01*
X2161Y11D01*
X2160Y11D01*
X2159Y11D01*
X2158Y11D01*
X2157Y11D01*
X2156Y11D01*
X2155Y11D01*
X2154Y11D01*
X2153Y11D01*
X2152Y11D01*
X2151Y11D01*
X2150Y11D01*
X2149Y11D01*
X2148Y11D01*
X2147Y11D01*
X2146Y11D01*
X2145Y11D01*
X2144Y11D01*
X2143Y11D01*
X2142Y11D01*
X2141Y11D01*
X2140Y11D01*
X2139Y11D01*
X2138Y11D01*
X2137Y11D01*
X2136Y11D01*
X2135Y11D01*
X2134Y11D01*
X2133Y11D01*
X2132Y11D01*
X2131Y11D01*
X2130Y11D01*
X2129Y11D01*
X2128Y11D01*
X2127Y11D01*
X2126Y11D01*
X2125Y11D01*
X2124Y11D01*
X2123Y11D01*
X2122Y11D01*
X2121Y11D01*
X2120Y11D01*
X2119Y11D01*
X2118Y11D01*
X2117Y11D01*
X2116Y11D01*
X2115Y11D01*
X2114Y11D01*
X2113Y11D01*
X2112Y11D01*
X2111Y11D01*
X2110Y11D01*
X2109Y11D01*
X2108Y11D01*
X2107Y11D01*
X2106Y11D01*
X2105Y11D01*
X2104Y11D01*
X2103Y11D01*
X2102Y11D01*
X2101Y11D01*
X2100Y11D01*
X2099Y11D01*
X2098Y11D01*
X2097Y11D01*
X2096Y11D01*
X2095Y11D01*
X2094Y11D01*
X2093Y11D01*
X2092Y11D01*
X2091Y11D01*
X2090Y11D01*
X2089Y11D01*
X2088Y11D01*
X2087Y11D01*
X2086Y11D01*
X2085Y11D01*
X2084Y11D01*
X2083Y11D01*
X2082Y11D01*
X2081Y11D01*
X2080Y11D01*
X2079Y11D01*
X2078Y11D01*
X2077Y11D01*
X2076Y11D01*
X2075Y11D01*
X2074Y11D01*
X2073Y11D01*
X2072Y11D01*
X2071Y11D01*
X2070Y11D01*
X2069Y11D01*
X2068Y11D01*
X2067Y11D01*
X2066Y11D01*
X2065Y11D01*
X2064Y11D01*
X2063Y11D01*
X2062Y11D01*
X2061Y11D01*
X2060Y11D01*
X2059Y11D01*
X2058Y11D01*
X2057Y11D01*
X2056Y11D01*
X2055Y11D01*
X2054Y11D01*
X2053Y11D01*
X2052Y11D01*
X2051Y11D01*
X2050Y11D01*
X2049Y11D01*
X2048Y11D01*
X2047Y11D01*
X2046Y11D01*
X2045Y11D01*
X2044Y11D01*
X2043Y11D01*
X2042Y11D01*
X2041Y11D01*
X2040Y11D01*
X2039Y11D01*
X2038Y11D01*
X2037Y11D01*
X2036Y11D01*
X2035Y11D01*
X2034Y11D01*
X2033Y11D01*
X2032Y11D01*
X2031Y11D01*
X2030Y11D01*
X2029Y11D01*
X2028Y11D01*
X2027Y11D01*
X2026Y11D01*
X2025Y11D01*
X2024Y11D01*
X2023Y11D01*
X2022Y11D01*
X2021Y11D01*
X2020Y11D01*
X2019Y11D01*
X2018Y11D01*
X2017Y11D01*
X2016Y11D01*
X2015Y11D01*
X2014Y11D01*
X2013Y11D01*
X2012Y11D01*
X2011Y11D01*
X2010Y11D01*
X2009Y11D01*
X2008Y11D01*
X2007Y11D01*
X2006Y11D01*
X2005Y11D01*
X2004Y11D01*
X2003Y11D01*
X2002Y11D01*
X2001Y11D01*
X2000Y11D01*
X1999Y11D01*
X1998Y11D01*
X1997Y11D01*
X1996Y11D01*
X1995Y11D01*
X1994Y11D01*
X1993Y11D01*
X1992Y11D01*
X1991Y11D01*
X1990Y11D01*
X1989Y11D01*
X1988Y11D01*
X1987Y11D01*
X1986Y11D01*
X1985Y11D01*
X1984Y11D01*
X1983Y11D01*
X1982Y11D01*
X1981Y11D01*
X1980Y11D01*
X1979Y11D01*
X1978Y11D01*
X1977Y11D01*
X1976Y11D01*
X1975Y11D01*
X1974Y11D01*
X1973Y11D01*
X1972Y11D01*
X1971Y11D01*
X1970Y11D01*
X1969Y11D01*
X1968Y11D01*
X1967Y11D01*
X1966Y11D01*
X1965Y11D01*
X1964Y11D01*
X1963Y11D01*
X1962Y11D01*
X1961Y11D01*
X1960Y11D01*
X1959Y11D01*
X1958Y11D01*
X1957Y11D01*
X1956Y11D01*
X1955Y11D01*
X1954Y11D01*
X1953Y11D01*
X1952Y11D01*
X1951Y11D01*
X1950Y11D01*
X1949Y11D01*
X1948Y11D01*
X1947Y11D01*
X1946Y11D01*
X1945Y11D01*
X1944Y11D01*
X1943Y11D01*
X1942Y11D01*
X1941Y11D01*
X1940Y11D01*
X1939Y11D01*
X1938Y11D01*
X1937Y11D01*
X1936Y11D01*
X1935Y11D01*
X1934Y11D01*
X1933Y11D01*
X1932Y11D01*
X1931Y11D01*
X1930Y11D01*
X1929Y11D01*
X1928Y11D01*
X1927Y11D01*
X1926Y11D01*
X1925Y11D01*
X1924Y11D01*
X1923Y11D01*
X1922Y11D01*
X1921Y11D01*
X1920Y11D01*
X1919Y11D01*
X1918Y11D01*
X1917Y11D01*
X1916Y11D01*
X1915Y11D01*
X1914Y11D01*
X1913Y11D01*
X1912Y11D01*
X1911Y11D01*
X1910Y11D01*
X1909Y11D01*
X1908Y11D01*
X1907Y11D01*
X1906Y11D01*
X1905Y11D01*
X1904Y11D01*
X1903Y11D01*
X1902Y11D01*
X1901Y11D01*
X1900Y11D01*
X1899Y11D01*
X1898Y11D01*
X1897Y11D01*
X1896Y11D01*
X1895Y11D01*
X1894Y11D01*
X1893Y11D01*
X1892Y11D01*
X1891Y11D01*
X1890Y11D01*
X1889Y11D01*
X1888Y11D01*
X1887Y11D01*
X1886Y11D01*
X1885Y11D01*
X1884Y11D01*
X1883Y11D01*
X1882Y11D01*
X1881Y11D01*
X1880Y11D01*
X1879Y11D01*
X1878Y11D01*
X1877Y11D01*
X1876Y11D01*
X1875Y11D01*
X1874Y11D01*
X1873Y11D01*
X1872Y11D01*
X1871Y11D01*
X1870Y11D01*
X1869Y11D01*
X1868Y11D01*
X1867Y11D01*
X1866Y11D01*
X1865Y11D01*
X1864Y11D01*
X1863Y11D01*
X1862Y11D01*
X1861Y11D01*
X1860Y11D01*
X1859Y11D01*
X1858Y11D01*
X1857Y11D01*
X1856Y11D01*
X1855Y11D01*
X1854Y11D01*
X1853Y11D01*
X1852Y11D01*
X1851Y11D01*
X1850Y11D01*
X1849Y11D01*
X1848Y11D01*
X1847Y11D01*
X1846Y11D01*
X1845Y11D01*
X1844Y11D01*
X1843Y11D01*
X1842Y11D01*
X1841Y11D01*
X1840Y11D01*
X1839Y11D01*
X1838Y11D01*
X1837Y11D01*
X1836Y11D01*
X1835Y11D01*
X1834Y11D01*
X1833Y11D01*
X1832Y11D01*
X1831Y11D01*
X1830Y11D01*
X1829Y11D01*
X1828Y11D01*
X1827Y11D01*
X1826Y11D01*
X1825Y11D01*
X1824Y11D01*
X1823Y11D01*
X1822Y11D01*
X1821Y11D01*
X1820Y11D01*
X1819Y11D01*
X1818Y11D01*
X1817Y11D01*
X1816Y11D01*
X1815Y11D01*
X1814Y11D01*
X1813Y11D01*
X1812Y11D01*
X1811Y11D01*
X1810Y11D01*
X1809Y11D01*
X1808Y11D01*
X1807Y11D01*
X1806Y11D01*
X1805Y11D01*
X1804Y11D01*
X1803Y11D01*
X1802Y11D01*
X1801Y11D01*
X1800Y11D01*
X1799Y11D01*
X1798Y11D01*
X1797Y11D01*
X1796Y11D01*
X1795Y11D01*
X1794Y11D01*
X1793Y11D01*
X1792Y11D01*
X1791Y11D01*
X1790Y11D01*
X1789Y11D01*
X1788Y11D01*
X1787Y11D01*
X1786Y11D01*
X1785Y11D01*
X1784Y11D01*
X1783Y11D01*
X1782Y11D01*
X1781Y11D01*
X1780Y11D01*
X1779Y11D01*
X1778Y11D01*
X1777Y11D01*
X1776Y11D01*
X1775Y11D01*
X1774Y11D01*
X1773Y11D01*
X1772Y11D01*
X1771Y11D01*
X1770Y11D01*
X1769Y11D01*
X1768Y11D01*
X1767Y11D01*
X1766Y11D01*
X1765Y11D01*
X1764Y11D01*
X1763Y11D01*
X1762Y11D01*
X1761Y11D01*
X1760Y11D01*
X1759Y11D01*
X1758Y11D01*
X1757Y11D01*
X1756Y11D01*
X1755Y11D01*
X1754Y11D01*
X1753Y11D01*
X1752Y11D01*
X1751Y11D01*
X1750Y11D01*
X1749Y11D01*
X1748Y11D01*
X1747Y11D01*
X1746Y11D01*
X1745Y11D01*
X1744Y11D01*
X1743Y11D01*
X1742Y11D01*
X1741Y11D01*
X1740Y11D01*
X1739Y11D01*
X1738Y11D01*
X1737Y11D01*
X1736Y11D01*
X1735Y11D01*
X1734Y11D01*
X1733Y11D01*
X1732Y11D01*
X1731Y11D01*
X1730Y11D01*
X1729Y11D01*
X1728Y11D01*
X1727Y11D01*
X1726Y11D01*
X1725Y11D01*
X1724Y11D01*
X1723Y11D01*
X1722Y11D01*
X1721Y11D01*
X1720Y11D01*
X1719Y11D01*
X1718Y11D01*
X1717Y11D01*
X1716Y11D01*
X1715Y11D01*
X1714Y11D01*
X1713Y11D01*
X1712Y11D01*
X1711Y11D01*
X1710Y11D01*
X1709Y11D01*
X1708Y11D01*
X1707Y11D01*
X1706Y11D01*
X1705Y11D01*
X1704Y11D01*
X1703Y11D01*
X1702Y11D01*
X1701Y11D01*
X1700Y11D01*
X1699Y11D01*
X1698Y11D01*
X1697Y11D01*
X1696Y11D01*
X1695Y11D01*
X1694Y11D01*
X1693Y11D01*
X1692Y11D01*
X1691Y11D01*
X1690Y11D01*
X1689Y11D01*
X1688Y11D01*
X1687Y11D01*
X1686Y11D01*
X1685Y11D01*
X1684Y11D01*
X1683Y11D01*
X1682Y11D01*
X1681Y11D01*
X1680Y11D01*
X1679Y11D01*
X1678Y11D01*
X1677Y11D01*
X1676Y11D01*
X1675Y11D01*
X1674Y11D01*
X1673Y11D01*
X1672Y11D01*
X1671Y11D01*
X1670Y11D01*
X1669Y11D01*
X1668Y11D01*
X1667Y11D01*
X1666Y11D01*
X1665Y11D01*
X1664Y11D01*
X1663Y11D01*
X1662Y11D01*
X1661Y11D01*
X1660Y11D01*
X1659Y11D01*
X1658Y11D01*
X1657Y11D01*
X1656Y11D01*
X1655Y11D01*
X1654Y11D01*
X1653Y11D01*
X1652Y11D01*
X1651Y11D01*
X1650Y11D01*
X1649Y11D01*
X1648Y11D01*
X1647Y11D01*
X1646Y11D01*
X1645Y11D01*
X1644Y11D01*
X1643Y11D01*
X1642Y11D01*
X1641Y11D01*
X1640Y11D01*
X1639Y11D01*
X1638Y11D01*
X1637Y11D01*
X1636Y11D01*
X1635Y11D01*
X1634Y11D01*
X1633Y11D01*
X1632Y11D01*
X1631Y11D01*
X1630Y11D01*
X1629Y11D01*
X1628Y11D01*
X1627Y11D01*
X1626Y11D01*
X1625Y11D01*
X1624Y11D01*
X1623Y11D01*
X1622Y11D01*
X1621Y11D01*
X1620Y11D01*
X1619Y11D01*
X1618Y11D01*
X1617Y11D01*
X1616Y11D01*
X1615Y11D01*
X1614Y11D01*
X1613Y11D01*
X1612Y11D01*
X1611Y11D01*
X1610Y11D01*
X1609Y11D01*
X1608Y11D01*
X1607Y11D01*
X1606Y11D01*
X1605Y11D01*
X1604Y11D01*
X1603Y11D01*
X1602Y11D01*
X1601Y11D01*
X1600Y11D01*
X1599Y11D01*
X1598Y11D01*
X1597Y11D01*
X1596Y11D01*
X1595Y11D01*
X1594Y11D01*
X1593Y11D01*
X1592Y11D01*
X1591Y11D01*
X1590Y11D01*
X1589Y11D01*
X1588Y11D01*
X1587Y11D01*
X1586Y11D01*
X1585Y11D01*
X1584Y11D01*
X1583Y11D01*
X1582Y11D01*
X1581Y11D01*
X1580Y11D01*
X1579Y11D01*
X1578Y11D01*
X1577Y11D01*
X1576Y11D01*
X1575Y11D01*
X1574Y11D01*
X1573Y11D01*
X1572Y11D01*
X1571Y11D01*
X1570Y11D01*
X1569Y11D01*
X1568Y11D01*
X1567Y11D01*
X1566Y11D01*
X1565Y11D01*
X1564Y11D01*
X1563Y11D01*
X1562Y11D01*
X1561Y11D01*
X1560Y11D01*
X1559Y11D01*
X1558Y11D01*
X1557Y11D01*
X1556Y11D01*
X1555Y11D01*
X1554Y11D01*
X1553Y11D01*
X1552Y11D01*
X1551Y11D01*
X1550Y11D01*
X1549Y11D01*
X1548Y11D01*
X1547Y11D01*
X1546Y11D01*
X1545Y11D01*
X1544Y11D01*
X1543Y11D01*
X1542Y11D01*
X1541Y11D01*
X1540Y11D01*
X1539Y11D01*
X1538Y11D01*
X1537Y11D01*
X1536Y11D01*
X1535Y11D01*
X1534Y11D01*
X1533Y11D01*
X1532Y11D01*
X1531Y11D01*
X1530Y11D01*
X1529Y11D01*
X1528Y11D01*
X1527Y11D01*
X1526Y11D01*
X1525Y11D01*
X1524Y11D01*
X1523Y11D01*
X1522Y11D01*
X1521Y11D01*
X1520Y11D01*
X1519Y11D01*
X1518Y11D01*
X1517Y11D01*
X1516Y11D01*
X1515Y11D01*
X1514Y11D01*
X1513Y11D01*
X1512Y11D01*
X1511Y11D01*
X1510Y11D01*
X1509Y11D01*
X1508Y11D01*
X1507Y11D01*
X1506Y11D01*
X1505Y11D01*
X1504Y11D01*
X1503Y11D01*
X1502Y11D01*
X1501Y11D01*
X1500Y11D01*
X1499Y11D01*
X1498Y11D01*
X1497Y11D01*
X1496Y11D01*
X1495Y11D01*
X1494Y11D01*
X1493Y11D01*
X1492Y11D01*
X1491Y11D01*
X1490Y11D01*
X1489Y11D01*
X1488Y11D01*
X1487Y11D01*
X1486Y11D01*
X1485Y11D01*
X1484Y11D01*
X1483Y11D01*
X1482Y11D01*
X1481Y11D01*
X1480Y11D01*
X1479Y11D01*
X1478Y11D01*
X1477Y11D01*
X1476Y11D01*
X1475Y11D01*
X1474Y11D01*
X1473Y11D01*
X1472Y11D01*
X1471Y11D01*
X1470Y11D01*
X1469Y11D01*
X1468Y11D01*
X1467Y11D01*
X1466Y11D01*
X1465Y11D01*
X1464Y11D01*
X1463Y11D01*
X1462Y11D01*
X1461Y11D01*
X1460Y11D01*
X1459Y11D01*
X1458Y11D01*
X1457Y11D01*
X1456Y11D01*
X1455Y11D01*
X1454Y11D01*
X1453Y11D01*
X1452Y11D01*
X1451Y11D01*
X1450Y11D01*
X1449Y11D01*
X1448Y11D01*
X1447Y11D01*
X1446Y11D01*
X1445Y11D01*
X1444Y11D01*
X1443Y11D01*
X1442Y11D01*
X1441Y11D01*
X1440Y11D01*
X1439Y11D01*
X1438Y11D01*
X1437Y11D01*
X1436Y11D01*
X1435Y11D01*
X1434Y11D01*
X1433Y11D01*
X1432Y11D01*
X1431Y11D01*
X1430Y11D01*
X1429Y11D01*
X1428Y11D01*
X1427Y11D01*
X1426Y11D01*
X1425Y11D01*
X1424Y11D01*
X1423Y11D01*
X1422Y11D01*
X1421Y11D01*
X1420Y11D01*
X1419Y11D01*
X1418Y11D01*
X1417Y11D01*
X1416Y11D01*
X1415Y11D01*
X1414Y11D01*
X1413Y11D01*
X1412Y11D01*
X1411Y11D01*
X1410Y11D01*
X1409Y11D01*
X1408Y11D01*
X1407Y11D01*
X1406Y11D01*
X1405Y11D01*
X1404Y11D01*
X1403Y11D01*
X1402Y11D01*
X1401Y11D01*
X1400Y11D01*
X1399Y11D01*
X1398Y11D01*
X1397Y11D01*
X1396Y11D01*
X1395Y11D01*
X1394Y11D01*
X1393Y11D01*
X1392Y11D01*
X1391Y11D01*
X1390Y11D01*
X1389Y11D01*
X1388Y11D01*
X1387Y11D01*
X1386Y11D01*
X1385Y11D01*
X1384Y11D01*
X1383Y11D01*
X1382Y11D01*
X1381Y11D01*
X1380Y11D01*
X1379Y11D01*
X1378Y11D01*
X1377Y11D01*
X1376Y11D01*
X1375Y11D01*
X1374Y11D01*
X1373Y11D01*
X1372Y11D01*
X1371Y11D01*
X1370Y11D01*
X1369Y11D01*
X1368Y11D01*
X1367Y11D01*
X1366Y11D01*
X1365Y11D01*
X1364Y11D01*
X1363Y11D01*
X1362Y11D01*
X1361Y11D01*
X1360Y11D01*
X1359Y11D01*
X1358Y11D01*
X1357Y11D01*
X1356Y11D01*
X1355Y11D01*
X1354Y11D01*
X1353Y11D01*
X1352Y11D01*
X1351Y11D01*
X1350Y11D01*
X1349Y11D01*
X1348Y11D01*
X1347Y11D01*
X1346Y11D01*
X1345Y11D01*
X1344Y11D01*
X1343Y11D01*
X1342Y11D01*
X1341Y11D01*
X1340Y11D01*
X1339Y11D01*
X1338Y11D01*
X1337Y11D01*
X1336Y11D01*
X1335Y11D01*
X1334Y11D01*
X1333Y11D01*
X1332Y11D01*
X1331Y11D01*
X1330Y11D01*
X1329Y11D01*
X1328Y11D01*
X1327Y11D01*
X1326Y11D01*
X1325Y11D01*
X1324Y11D01*
X1323Y11D01*
X1322Y11D01*
X1321Y11D01*
X1320Y11D01*
X1319Y11D01*
X1318Y11D01*
X1317Y11D01*
X1316Y11D01*
X1315Y11D01*
X1314Y11D01*
X1313Y11D01*
X1312Y11D01*
X1311Y11D01*
X1310Y11D01*
X1309Y11D01*
X1308Y11D01*
X1307Y11D01*
X1306Y11D01*
X1305Y11D01*
X1304Y11D01*
X1303Y11D01*
X1302Y11D01*
X1301Y11D01*
X1300Y11D01*
X1299Y11D01*
X1298Y11D01*
X1297Y11D01*
X1296Y11D01*
X1295Y11D01*
X1294Y11D01*
X1293Y11D01*
X1292Y11D01*
X1291Y11D01*
X1290Y11D01*
X1289Y11D01*
X1288Y11D01*
X1287Y11D01*
X1286Y11D01*
X1285Y11D01*
X1284Y11D01*
X1283Y11D01*
X1282Y11D01*
X1281Y11D01*
X1280Y11D01*
X1279Y11D01*
X1278Y11D01*
X1277Y11D01*
X1276Y11D01*
X1275Y11D01*
X1274Y11D01*
X1273Y11D01*
X1272Y11D01*
X1271Y11D01*
X1270Y11D01*
X1269Y11D01*
X1268Y11D01*
X1267Y11D01*
X1266Y11D01*
X1265Y11D01*
X1264Y11D01*
X1263Y11D01*
X1262Y11D01*
X1261Y11D01*
X1260Y11D01*
X1259Y11D01*
X1258Y11D01*
X1257Y11D01*
X1256Y11D01*
X1255Y11D01*
X1254Y11D01*
X1253Y11D01*
X1252Y11D01*
X1251Y11D01*
X1250Y11D01*
X1249Y11D01*
X1248Y11D01*
X1247Y11D01*
X1246Y11D01*
X1245Y11D01*
X1244Y11D01*
X1243Y11D01*
X1242Y11D01*
X1241Y11D01*
X1240Y11D01*
X1239Y11D01*
X1238Y11D01*
X1237Y11D01*
X1236Y11D01*
X1235Y11D01*
X1234Y11D01*
X1233Y11D01*
X1232Y11D01*
X1231Y11D01*
X1230Y11D01*
X1229Y11D01*
X1228Y11D01*
X1227Y11D01*
X1226Y11D01*
X1225Y11D01*
X1224Y11D01*
X1223Y11D01*
X1222Y11D01*
X1221Y11D01*
X1220Y11D01*
X1219Y11D01*
X1218Y11D01*
X1217Y11D01*
X1216Y11D01*
X1215Y11D01*
X1214Y11D01*
X1213Y11D01*
X1212Y11D01*
X1211Y11D01*
X1210Y11D01*
X1209Y11D01*
X1208Y11D01*
X1207Y11D01*
X1206Y11D01*
X1205Y11D01*
X1204Y11D01*
X1203Y11D01*
X1202Y11D01*
X1201Y11D01*
X1200Y11D01*
X1199Y11D01*
X1198Y11D01*
X1197Y11D01*
X1196Y11D01*
X1195Y11D01*
X1194Y11D01*
X1193Y11D01*
X1192Y11D01*
X1191Y11D01*
X1190Y11D01*
X1189Y11D01*
X1188Y11D01*
X1187Y11D01*
X1186Y11D01*
X1185Y11D01*
X1184Y11D01*
X1183Y11D01*
X1182Y11D01*
X1181Y11D01*
X1180Y11D01*
X1179Y11D01*
X1178Y11D01*
X1177Y11D01*
X1176Y11D01*
X1175Y11D01*
X1174Y11D01*
X1173Y11D01*
X1172Y11D01*
X1171Y11D01*
X1170Y11D01*
X1169Y11D01*
X1168Y11D01*
X1167Y11D01*
X1166Y11D01*
X1165Y11D01*
X1164Y11D01*
X1163Y11D01*
X1162Y11D01*
X1161Y11D01*
X1160Y11D01*
X1159Y11D01*
X1158Y11D01*
X1157Y11D01*
X1156Y11D01*
X1155Y11D01*
X1154Y11D01*
X1153Y11D01*
X1152Y11D01*
X1151Y11D01*
X1150Y11D01*
X1149Y11D01*
X1148Y11D01*
X1147Y11D01*
X1146Y11D01*
X1145Y11D01*
X1144Y11D01*
X1143Y11D01*
X1142Y11D01*
X1141Y11D01*
X1140Y11D01*
X1139Y11D01*
X1138Y11D01*
X1137Y11D01*
X1136Y11D01*
X1135Y11D01*
X1134Y11D01*
X1133Y11D01*
X1132Y11D01*
X1131Y11D01*
X1130Y11D01*
X1129Y11D01*
X1128Y11D01*
X1127Y11D01*
X1126Y11D01*
X1125Y11D01*
X1124Y11D01*
X1123Y11D01*
X1122Y11D01*
X1121Y11D01*
X1120Y11D01*
X1119Y11D01*
X1118Y11D01*
X1117Y11D01*
X1116Y11D01*
X1115Y11D01*
X1114Y11D01*
X1113Y11D01*
X1112Y11D01*
X1111Y11D01*
X1110Y11D01*
X1109Y11D01*
X1108Y11D01*
X1107Y11D01*
X1106Y11D01*
X1105Y11D01*
X1104Y11D01*
X1103Y11D01*
X1102Y11D01*
X1101Y11D01*
X1100Y11D01*
X1099Y11D01*
X1098Y11D01*
X1097Y11D01*
X1096Y11D01*
X1095Y11D01*
X1094Y11D01*
X1093Y11D01*
X1092Y11D01*
X1091Y11D01*
X1090Y11D01*
X1089Y11D01*
X1088Y11D01*
X1087Y11D01*
X1086Y11D01*
X1085Y11D01*
X1084Y11D01*
X1083Y11D01*
X1082Y11D01*
X1081Y11D01*
X1080Y11D01*
X1079Y11D01*
X1078Y11D01*
X1077Y11D01*
X1076Y11D01*
X1075Y11D01*
X1074Y11D01*
X1073Y11D01*
X1072Y11D01*
X1071Y11D01*
X1070Y11D01*
X1069Y11D01*
X1068Y11D01*
X1067Y11D01*
X1066Y11D01*
X1065Y11D01*
X1064Y11D01*
X1063Y11D01*
X1062Y11D01*
X1061Y11D01*
X1060Y11D01*
X1059Y11D01*
X1058Y11D01*
X1057Y11D01*
X1056Y11D01*
X1055Y11D01*
X1054Y11D01*
X1053Y11D01*
X1052Y11D01*
X1051Y11D01*
X1050Y11D01*
X1049Y11D01*
X1048Y11D01*
X1047Y11D01*
X1046Y11D01*
X1045Y11D01*
X1044Y11D01*
X1043Y11D01*
X1042Y11D01*
X1041Y11D01*
X1040Y11D01*
X1039Y11D01*
X1038Y11D01*
X1037Y11D01*
X1036Y11D01*
X1035Y11D01*
X1034Y11D01*
X1033Y11D01*
X1032Y11D01*
X1031Y11D01*
X1030Y11D01*
X1029Y11D01*
X1028Y11D01*
X1027Y11D01*
X1026Y11D01*
X1025Y11D01*
X1024Y11D01*
X1023Y11D01*
X1022Y11D01*
X1021Y11D01*
X1020Y11D01*
X1019Y11D01*
X1018Y11D01*
X1017Y11D01*
X1016Y11D01*
X1015Y11D01*
X1014Y11D01*
X1013Y11D01*
X1012Y11D01*
X1011Y11D01*
X1010Y11D01*
X1009Y11D01*
X1008Y11D01*
X1007Y11D01*
X1006Y11D01*
X1005Y11D01*
X1004Y11D01*
X1003Y11D01*
X1002Y11D01*
X1001Y11D01*
X1000Y11D01*
X999Y11D01*
X998Y11D01*
X997Y11D01*
X996Y11D01*
X995Y11D01*
X994Y11D01*
X993Y11D01*
X992Y11D01*
X991Y11D01*
X990Y11D01*
X989Y11D01*
X988Y11D01*
X987Y11D01*
X986Y11D01*
X985Y11D01*
X984Y11D01*
X983Y11D01*
X982Y11D01*
X981Y11D01*
X980Y11D01*
X979Y11D01*
X978Y11D01*
X977Y11D01*
X976Y11D01*
X975Y11D01*
X974Y11D01*
X973Y11D01*
X972Y11D01*
X971Y11D01*
X970Y11D01*
X969Y11D01*
X968Y11D01*
X967Y11D01*
X966Y11D01*
X965Y11D01*
X964Y11D01*
X963Y11D01*
X962Y11D01*
X961Y11D01*
X960Y11D01*
X959Y11D01*
X958Y11D01*
X957Y11D01*
X956Y11D01*
X955Y11D01*
X954Y11D01*
X953Y11D01*
X952Y11D01*
X951Y11D01*
X950Y11D01*
X949Y11D01*
X948Y11D01*
X947Y11D01*
X946Y11D01*
X945Y11D01*
X944Y11D01*
X943Y11D01*
X942Y11D01*
X941Y11D01*
X940Y11D01*
X939Y11D01*
X938Y11D01*
X937Y11D01*
X936Y11D01*
X935Y11D01*
X934Y11D01*
X933Y11D01*
X932Y11D01*
X931Y11D01*
X930Y11D01*
X929Y11D01*
X928Y11D01*
X927Y11D01*
X926Y11D01*
X925Y11D01*
X924Y11D01*
X923Y11D01*
X922Y11D01*
X921Y11D01*
X920Y11D01*
X919Y11D01*
X918Y11D01*
X917Y11D01*
X916Y11D01*
X915Y11D01*
X914Y11D01*
X913Y11D01*
X912Y11D01*
X911Y11D01*
X910Y11D01*
X909Y11D01*
X908Y11D01*
X907Y11D01*
X906Y11D01*
X905Y11D01*
X904Y11D01*
X903Y11D01*
X902Y11D01*
X901Y11D01*
X900Y11D01*
X899Y11D01*
X898Y11D01*
X897Y11D01*
X896Y11D01*
X895Y11D01*
X894Y11D01*
X893Y11D01*
X892Y11D01*
X891Y11D01*
X890Y11D01*
X889Y11D01*
X888Y11D01*
X887Y11D01*
X886Y11D01*
X885Y11D01*
X884Y11D01*
X883Y11D01*
X882Y11D01*
X881Y11D01*
X880Y11D01*
X879Y11D01*
X878Y11D01*
X877Y11D01*
X876Y11D01*
X875Y11D01*
X874Y11D01*
X873Y11D01*
X872Y11D01*
X871Y11D01*
X870Y11D01*
X869Y11D01*
X868Y11D01*
X867Y11D01*
X866Y11D01*
X865Y11D01*
X864Y11D01*
X863Y11D01*
X862Y11D01*
X861Y11D01*
X860Y11D01*
X859Y11D01*
X858Y11D01*
X857Y11D01*
X856Y11D01*
X855Y11D01*
X854Y11D01*
X853Y11D01*
X852Y11D01*
X851Y11D01*
X850Y11D01*
X849Y11D01*
X848Y11D01*
X847Y11D01*
X846Y11D01*
X845Y11D01*
X844Y11D01*
X843Y11D01*
X842Y11D01*
X841Y11D01*
X840Y11D01*
X839Y11D01*
X838Y11D01*
X837Y11D01*
X836Y11D01*
X835Y11D01*
X834Y11D01*
X833Y11D01*
X832Y11D01*
X831Y11D01*
X830Y11D01*
X829Y11D01*
X828Y11D01*
X827Y11D01*
X826Y11D01*
X825Y11D01*
X824Y11D01*
X823Y11D01*
X822Y11D01*
X821Y11D01*
X820Y11D01*
X819Y11D01*
X818Y11D01*
X817Y11D01*
X816Y11D01*
X815Y11D01*
X814Y11D01*
X813Y11D01*
X812Y11D01*
X811Y11D01*
X810Y11D01*
X809Y11D01*
X808Y11D01*
X807Y11D01*
X806Y11D01*
X805Y11D01*
X804Y11D01*
X803Y11D01*
X802Y11D01*
X801Y11D01*
X800Y11D01*
X799Y11D01*
X798Y11D01*
X797Y11D01*
X796Y11D01*
X795Y11D01*
X794Y11D01*
X793Y11D01*
X792Y11D01*
X791Y11D01*
X790Y11D01*
X789Y11D01*
X788Y11D01*
X787Y11D01*
X786Y11D01*
X785Y11D01*
X784Y11D01*
X783Y11D01*
X782Y11D01*
X781Y11D01*
X780Y11D01*
X779Y11D01*
X778Y11D01*
X777Y11D01*
X776Y11D01*
X775Y11D01*
X774Y11D01*
X773Y11D01*
X772Y11D01*
X771Y11D01*
X770Y11D01*
X769Y11D01*
X768Y11D01*
X767Y11D01*
X766Y11D01*
X765Y11D01*
X764Y11D01*
X763Y11D01*
X762Y11D01*
X761Y11D01*
X760Y11D01*
X759Y11D01*
X758Y11D01*
X757Y11D01*
X756Y11D01*
X755Y11D01*
X754Y11D01*
X753Y11D01*
X752Y11D01*
X751Y11D01*
X750Y11D01*
X749Y11D01*
X748Y11D01*
X747Y11D01*
X746Y11D01*
X745Y11D01*
X744Y11D01*
X743Y11D01*
X742Y11D01*
X741Y11D01*
X740Y11D01*
X739Y11D01*
X738Y11D01*
X737Y11D01*
X736Y11D01*
X735Y11D01*
X734Y11D01*
X733Y11D01*
X732Y11D01*
X731Y11D01*
X730Y11D01*
X729Y11D01*
X728Y11D01*
X727Y11D01*
X726Y11D01*
X725Y11D01*
X724Y11D01*
X723Y11D01*
X722Y11D01*
X721Y11D01*
X720Y11D01*
X719Y11D01*
X718Y11D01*
X717Y11D01*
X716Y11D01*
X715Y11D01*
X714Y11D01*
X713Y11D01*
X712Y11D01*
X711Y11D01*
X710Y11D01*
X709Y11D01*
X708Y11D01*
X707Y11D01*
X706Y11D01*
X705Y11D01*
X704Y11D01*
X703Y11D01*
X702Y11D01*
X701Y11D01*
X700Y11D01*
X699Y11D01*
X698Y11D01*
X697Y11D01*
X696Y11D01*
X695Y11D01*
X694Y11D01*
X693Y11D01*
X692Y11D01*
X691Y11D01*
X690Y11D01*
X689Y11D01*
X688Y11D01*
X687Y11D01*
X686Y11D01*
X685Y11D01*
X684Y11D01*
X683Y11D01*
X682Y11D01*
X681Y11D01*
X680Y11D01*
X679Y11D01*
X678Y11D01*
X677Y11D01*
X676Y11D01*
X675Y11D01*
X674Y11D01*
X673Y11D01*
X672Y11D01*
X671Y11D01*
X670Y11D01*
X669Y11D01*
X668Y11D01*
X667Y11D01*
X666Y11D01*
X665Y11D01*
X664Y11D01*
X663Y11D01*
X662Y11D01*
X661Y11D01*
X660Y11D01*
X659Y11D01*
X658Y11D01*
X657Y11D01*
X656Y11D01*
X655Y11D01*
X654Y11D01*
X653Y11D01*
X652Y11D01*
X651Y11D01*
X650Y11D01*
X649Y11D01*
X648Y11D01*
X647Y11D01*
X646Y11D01*
X645Y11D01*
X644Y11D01*
X643Y11D01*
X642Y11D01*
X641Y11D01*
X640Y11D01*
X639Y11D01*
X638Y11D01*
X637Y11D01*
X636Y11D01*
X635Y11D01*
X634Y11D01*
X633Y11D01*
X632Y11D01*
X631Y11D01*
X630Y11D01*
X629Y11D01*
X628Y11D01*
X627Y11D01*
X626Y11D01*
X625Y11D01*
X624Y11D01*
X623Y11D01*
X622Y11D01*
X621Y11D01*
X620Y11D01*
X619Y11D01*
X618Y11D01*
X617Y11D01*
X616Y11D01*
X615Y11D01*
X614Y11D01*
X613Y11D01*
X612Y11D01*
X611Y11D01*
X610Y11D01*
X609Y11D01*
X608Y11D01*
X607Y11D01*
X606Y11D01*
X605Y11D01*
X604Y11D01*
X603Y11D01*
X602Y11D01*
X601Y11D01*
X600Y11D01*
X599Y11D01*
X598Y11D01*
X597Y11D01*
X596Y11D01*
X595Y11D01*
X594Y11D01*
X593Y11D01*
X592Y11D01*
X591Y11D01*
X590Y11D01*
X589Y11D01*
X588Y11D01*
X587Y11D01*
X586Y11D01*
X585Y11D01*
X584Y11D01*
X583Y11D01*
X582Y11D01*
X581Y11D01*
X580Y11D01*
X579Y11D01*
X578Y11D01*
X577Y11D01*
X576Y11D01*
X575Y11D01*
X574Y11D01*
X573Y11D01*
X572Y11D01*
X571Y11D01*
X570Y11D01*
X569Y11D01*
X568Y11D01*
X567Y11D01*
X566Y11D01*
X565Y11D01*
X564Y11D01*
X563Y11D01*
X562Y11D01*
X561Y11D01*
X560Y11D01*
X559Y11D01*
X558Y11D01*
X557Y11D01*
X556Y11D01*
X555Y11D01*
X554Y11D01*
X553Y11D01*
X552Y11D01*
X551Y11D01*
X550Y11D01*
X549Y11D01*
X548Y11D01*
X547Y11D01*
X546Y11D01*
X545Y11D01*
X544Y11D01*
X543Y11D01*
X542Y11D01*
X541Y11D01*
X540Y11D01*
X539Y11D01*
X538Y11D01*
X537Y11D01*
X536Y11D01*
X535Y11D01*
X534Y11D01*
X533Y11D01*
X532Y11D01*
X531Y11D01*
X530Y11D01*
X529Y11D01*
X528Y11D01*
X527Y11D01*
X526Y11D01*
X525Y11D01*
X524Y11D01*
X523Y11D01*
X522Y11D01*
X521Y11D01*
X520Y11D01*
X519Y11D01*
X518Y11D01*
X517Y11D01*
X516Y11D01*
X515Y11D01*
X514Y11D01*
X513Y11D01*
X512Y11D01*
X511Y11D01*
X510Y11D01*
X509Y11D01*
X508Y11D01*
X507Y11D01*
X506Y11D01*
X505Y11D01*
X504Y11D01*
X503Y11D01*
X502Y11D01*
X501Y11D01*
X500Y11D01*
X499Y11D01*
X498Y11D01*
X497Y11D01*
X496Y11D01*
X495Y11D01*
X494Y11D01*
X493Y11D01*
X492Y11D01*
X491Y11D01*
X490Y11D01*
X489Y11D01*
X488Y11D01*
X487Y11D01*
X486Y11D01*
X485Y11D01*
X484Y11D01*
X483Y11D01*
X482Y11D01*
X481Y11D01*
X480Y11D01*
X479Y11D01*
X478Y11D01*
X477Y11D01*
X476Y11D01*
X475Y11D01*
X474Y11D01*
X473Y11D01*
X472Y11D01*
X471Y11D01*
X470Y11D01*
X469Y11D01*
X468Y11D01*
X467Y11D01*
X466Y11D01*
X465Y11D01*
X464Y11D01*
X463Y11D01*
X462Y11D01*
X461Y11D01*
X460Y11D01*
X459Y11D01*
X458Y11D01*
X457Y11D01*
X456Y11D01*
X455Y11D01*
X454Y11D01*
X453Y11D01*
X452Y11D01*
X451Y11D01*
X450Y11D01*
X449Y11D01*
X448Y11D01*
X447Y11D01*
X446Y11D01*
X445Y11D01*
X444Y11D01*
X443Y11D01*
X442Y11D01*
X441Y11D01*
X440Y11D01*
X439Y11D01*
X438Y11D01*
X437Y11D01*
X436Y11D01*
X435Y11D01*
X434Y11D01*
X433Y11D01*
X432Y11D01*
X431Y11D01*
X430Y11D01*
X429Y11D01*
X428Y11D01*
X427Y11D01*
X426Y11D01*
X425Y11D01*
X424Y11D01*
X423Y11D01*
X422Y11D01*
X421Y11D01*
X420Y11D01*
X419Y11D01*
X418Y11D01*
X417Y11D01*
X416Y11D01*
X415Y11D01*
X414Y11D01*
X413Y11D01*
X412Y11D01*
X411Y11D01*
X410Y11D01*
X409Y11D01*
X408Y11D01*
X407Y11D01*
X406Y11D01*
X405Y11D01*
X404Y11D01*
X403Y11D01*
X402Y11D01*
X401Y11D01*
X400Y11D01*
X399Y11D01*
X398Y11D01*
X397Y11D01*
X396Y11D01*
X395Y11D01*
X394Y11D01*
X393Y11D01*
X392Y11D01*
X391Y11D01*
X390Y11D01*
X389Y11D01*
X388Y11D01*
X387Y11D01*
X386Y11D01*
X385Y11D01*
X384Y11D01*
X383Y11D01*
X382Y11D01*
X381Y11D01*
X380Y11D01*
X379Y11D01*
X378Y11D01*
X377Y11D01*
X376Y11D01*
X375Y11D01*
X374Y11D01*
X373Y11D01*
X372Y11D01*
X371Y11D01*
X370Y11D01*
X369Y11D01*
X368Y11D01*
X367Y11D01*
X366Y11D01*
X365Y11D01*
X364Y11D01*
X363Y11D01*
X362Y11D01*
X361Y11D01*
X360Y11D01*
X359Y11D01*
X358Y11D01*
X357Y11D01*
X356Y11D01*
X355Y11D01*
X354Y11D01*
X353Y11D01*
X352Y11D01*
X351Y11D01*
X350Y11D01*
X349Y11D01*
X348Y11D01*
X347Y11D01*
X346Y11D01*
X345Y11D01*
X344Y11D01*
X343Y11D01*
X342Y11D01*
X341Y11D01*
X340Y11D01*
X339Y11D01*
X338Y11D01*
X337Y11D01*
X336Y11D01*
X335Y11D01*
X334Y11D01*
X333Y11D01*
X332Y11D01*
X331Y11D01*
X330Y11D01*
X329Y11D01*
X328Y11D01*
X327Y11D01*
X326Y11D01*
X325Y11D01*
X324Y11D01*
X323Y11D01*
X322Y11D01*
X321Y11D01*
X320Y11D01*
X319Y11D01*
X318Y11D01*
X317Y11D01*
X316Y11D01*
X315Y11D01*
X314Y11D01*
X313Y11D01*
X312Y11D01*
X311Y11D01*
X310Y11D01*
X309Y11D01*
X308Y11D01*
X307Y11D01*
X306Y11D01*
X305Y11D01*
X304Y11D01*
X303Y11D01*
X302Y11D01*
X301Y11D01*
X300Y11D01*
X299Y11D01*
X298Y11D01*
X297Y11D01*
X296Y11D01*
X295Y11D01*
X294Y11D01*
X293Y11D01*
X292Y11D01*
X291Y11D01*
X290Y11D01*
X289Y11D01*
X288Y11D01*
X287Y11D01*
X286Y11D01*
X285Y11D01*
X284Y11D01*
X283Y11D01*
X282Y11D01*
X281Y11D01*
X280Y11D01*
X279Y11D01*
X278Y11D01*
X277Y11D01*
X276Y11D01*
X275Y11D01*
X274Y11D01*
X273Y11D01*
X272Y11D01*
X271Y11D01*
X270Y11D01*
X269Y11D01*
X268Y11D01*
X267Y11D01*
X266Y11D01*
X265Y11D01*
X264Y11D01*
X263Y11D01*
X262Y11D01*
X261Y11D01*
X260Y11D01*
X259Y11D01*
X258Y11D01*
X257Y11D01*
X256Y11D01*
X255Y11D01*
X254Y11D01*
X253Y11D01*
X252Y11D01*
X251Y11D01*
X250Y11D01*
X249Y11D01*
X248Y11D01*
X247Y11D01*
X246Y11D01*
X245Y11D01*
X244Y11D01*
X243Y11D01*
X242Y11D01*
X241Y11D01*
X240Y11D01*
X239Y11D01*
X238Y11D01*
X237Y11D01*
X236Y11D01*
X235Y11D01*
X234Y11D01*
X233Y11D01*
X232Y11D01*
X231Y11D01*
X230Y11D01*
X229Y11D01*
X228Y11D01*
X227Y11D01*
X226Y11D01*
X225Y11D01*
X224Y11D01*
X223Y11D01*
X222Y11D01*
X221Y11D01*
X220Y11D01*
X219Y11D01*
X218Y11D01*
X217Y11D01*
X216Y11D01*
X215Y11D01*
X214Y11D01*
X213Y11D01*
X212Y11D01*
X211Y11D01*
X210Y11D01*
X209Y11D01*
X208Y11D01*
X207Y11D01*
X206Y11D01*
X205Y11D01*
X204Y11D01*
X203Y11D01*
X202Y11D01*
X201Y11D01*
X200Y11D01*
X199Y11D01*
X198Y11D01*
X197Y11D01*
X196Y11D01*
X195Y11D01*
X194Y11D01*
X193Y11D01*
X192Y11D01*
X191Y11D01*
X190Y11D01*
X189Y11D01*
X188Y11D01*
X187Y11D01*
X186Y11D01*
X185Y11D01*
X184Y11D01*
X183Y11D01*
X182Y11D01*
X181Y11D01*
X180Y11D01*
X179Y11D01*
X178Y11D01*
X177Y11D01*
X176Y11D01*
X175Y11D01*
X174Y11D01*
X173Y11D01*
X172Y11D01*
X171Y11D01*
X170Y11D01*
X169Y11D01*
X168Y11D01*
X167Y11D01*
X166Y11D01*
X165Y11D01*
X164Y11D01*
X163Y11D01*
X162Y11D01*
X161Y11D01*
X160Y11D01*
X159Y11D01*
X158Y11D01*
X157Y11D01*
X156Y11D01*
X155Y11D01*
X154Y11D01*
X153Y11D01*
X152Y11D01*
X151Y11D01*
X150Y11D01*
X149Y11D01*
X148Y11D01*
X147Y11D01*
X146Y11D01*
X145Y11D01*
X144Y11D01*
X143Y11D01*
X142Y11D01*
X141Y11D01*
X140Y11D01*
X139Y11D01*
X138Y11D01*
X137Y11D01*
X136Y11D01*
X135Y11D01*
X134Y11D01*
X133Y11D01*
X132Y11D01*
X131Y11D01*
X130Y11D01*
X129Y11D01*
X128Y11D01*
X127Y11D01*
X126Y11D01*
X125Y11D01*
X124Y11D01*
X123Y11D01*
X122Y11D01*
X121Y11D01*
X120Y11D01*
X119Y11D01*
X118Y11D01*
X117Y11D01*
X116Y11D01*
X115Y11D01*
X114Y11D01*
X113Y11D01*
X112Y11D01*
X111Y11D01*
X110Y11D01*
X109Y11D01*
X108Y11D01*
X107Y11D01*
X106Y11D01*
X105Y11D01*
X104Y11D01*
X103Y11D01*
X102Y11D01*
X101Y11D01*
X100Y11D01*
X99Y11D01*
X98Y11D01*
X97Y11D01*
X96Y11D01*
X95Y11D01*
X94Y11D01*
X93Y11D01*
X92Y11D01*
X91Y11D01*
X90Y11D01*
X89Y11D01*
X88Y11D01*
X87Y11D01*
X86Y11D01*
X85Y11D01*
X84Y11D01*
X83Y11D01*
X82Y11D01*
X81Y11D01*
X80Y11D01*
X79Y11D01*
X78Y11D01*
X77Y11D01*
X76Y11D01*
X75Y11D01*
X74Y11D01*
X73Y11D01*
X72Y11D01*
X71Y11D01*
X70Y11D01*
X69Y11D01*
X68Y11D01*
X67Y11D01*
X66Y11D01*
X65Y11D01*
X64Y11D01*
X63Y11D01*
X62Y11D01*
X61Y11D01*
X60Y11D01*
X59Y11D01*
X58Y11D01*
X57Y11D01*
X56Y11D01*
X55Y11D01*
X54Y11D01*
X53Y11D01*
X52Y11D01*
X51Y11D01*
X50Y11D01*
X49Y11D01*
X48Y11D01*
X47Y11D01*
X46Y11D01*
X45Y11D01*
X44Y11D01*
X43Y11D01*
X42Y11D01*
X41Y11D01*
X40Y11D01*
X39Y11D01*
X38Y11D01*
X37Y11D01*
X36Y11D01*
X35Y12D01*
X34Y12D01*
X33Y12D01*
X32Y12D01*
X31Y13D01*
X30Y13D01*
X29Y13D01*
X28Y14D01*
X27Y14D01*
X26Y15D01*
X25Y15D01*
X24Y16D01*
X23Y17D01*
X22Y17D01*
X21Y18D01*
X20Y19D01*
X19Y20D01*
X18Y21D01*
X17Y22D01*
X16Y23D01*
X15Y24D01*
X14Y25D01*
X13Y26D01*
X13Y27D01*
X12Y28D01*
X12Y29D01*
X11Y30D01*
X11Y31D01*
X10Y32D01*
X10Y33D01*
X9Y34D01*
X9Y37D01*
X8Y38D01*
X8Y2075D01*
X9Y2076D01*
X9Y2078D01*
X10Y2079D01*
X10Y2081D01*
X11Y2082D01*
X11Y2083D01*
X12Y2084D01*
X12Y2085D01*
X13Y2086D01*
X14Y2087D01*
X14Y2088D01*
X15Y2089D01*
X16Y2090D01*
X17Y2091D01*
X18Y2092D01*
X19Y2093D01*
X20Y2094D01*
X21Y2095D01*
X22Y2096D01*
X23Y2096D01*
X24Y2097D01*
X25Y2098D01*
X26Y2098D01*
X27Y2099D01*
X28Y2099D01*
X29Y2100D01*
X30Y2100D01*
X31Y2100D01*
X32Y2101D01*
X33Y2101D01*
X34Y2101D01*
X35Y2101D01*
X36Y2102D01*
D02*
G04 End of contour*
M02*