G04 MADE WITH FRITZING*
G04 WWW.FRITZING.ORG*
G04 DOUBLE SIDED*
G04 HOLES PLATED*
G04 CONTOUR ON CENTER OF CONTOUR VECTOR*
%ASAXBY*%
%FSLAX23Y23*%
%MOIN*%
%OFA0B0*%
%SFA1.0B1.0*%
%ADD10C,0.039370*%
%ADD11C,0.078000*%
%ADD12R,0.013780X0.128281*%
%ADD13R,0.055000X0.012000*%
%ADD14C,0.012000*%
%LNCOPPER1*%
G90*
G70*
G54D10*
X1598Y2136D03*
X1599Y1861D03*
X1599Y1473D03*
X1599Y1197D03*
X1599Y810D03*
X1599Y536D03*
X407Y1575D03*
X407Y2002D03*
X1795Y2136D03*
X1795Y1861D03*
X1795Y1473D03*
X1795Y1197D03*
X1795Y810D03*
X1795Y536D03*
X1653Y1998D03*
X1749Y1998D03*
X1653Y1336D03*
X1749Y1336D03*
X1653Y673D03*
X1749Y673D03*
X250Y2002D03*
X250Y1574D03*
G54D11*
X2412Y2186D03*
X2412Y2086D03*
X2412Y1986D03*
X2412Y1886D03*
X2412Y1786D03*
X2412Y1686D03*
X2412Y1586D03*
X2412Y1486D03*
X2412Y1386D03*
X2412Y1286D03*
X2412Y1186D03*
X2412Y1086D03*
X2412Y986D03*
X2412Y886D03*
X2412Y786D03*
X2412Y686D03*
X2412Y586D03*
X2412Y486D03*
X2412Y2186D03*
X2412Y2086D03*
X2412Y1986D03*
X2412Y1886D03*
X2412Y1786D03*
X2412Y1686D03*
X2412Y1586D03*
X2412Y1486D03*
X2412Y1386D03*
X2412Y1286D03*
X2412Y1186D03*
X2412Y1086D03*
X2412Y986D03*
X2412Y886D03*
X2412Y786D03*
X2412Y686D03*
X2412Y586D03*
X2412Y486D03*
X2512Y486D03*
X2512Y586D03*
X2512Y686D03*
X2512Y786D03*
X2512Y886D03*
X2512Y986D03*
X2512Y1086D03*
X2512Y1186D03*
X2512Y1286D03*
X2512Y1386D03*
X2512Y1486D03*
X2512Y1586D03*
X2512Y1686D03*
X2512Y1786D03*
X2512Y1886D03*
X2512Y1986D03*
X2512Y2086D03*
X2512Y2186D03*
X3009Y1386D03*
X3009Y1286D03*
X3009Y1186D03*
X3009Y1086D03*
X3009Y986D03*
X3009Y886D03*
X3009Y786D03*
X3009Y686D03*
X3009Y586D03*
X3009Y486D03*
X3009Y1386D03*
X3009Y1286D03*
X3009Y1186D03*
X3009Y1086D03*
X3009Y986D03*
X3009Y886D03*
X3009Y786D03*
X3009Y686D03*
X3009Y586D03*
X3009Y486D03*
X3109Y486D03*
X3109Y586D03*
X3109Y686D03*
X3109Y786D03*
X3109Y886D03*
X3109Y986D03*
X3109Y1086D03*
X3109Y1186D03*
X3109Y1286D03*
X3109Y1386D03*
X287Y1386D03*
X287Y1286D03*
X287Y1186D03*
X287Y1086D03*
X287Y986D03*
X287Y886D03*
X287Y786D03*
X287Y686D03*
X287Y586D03*
X287Y486D03*
X287Y1386D03*
X287Y1286D03*
X287Y1186D03*
X287Y1086D03*
X287Y986D03*
X287Y886D03*
X287Y786D03*
X287Y686D03*
X287Y586D03*
X287Y486D03*
X387Y486D03*
X387Y586D03*
X387Y686D03*
X387Y786D03*
X387Y886D03*
X387Y986D03*
X387Y1086D03*
X387Y1186D03*
X387Y1286D03*
X387Y1386D03*
X890Y2186D03*
X890Y2086D03*
X890Y1986D03*
X890Y1886D03*
X890Y1786D03*
X890Y1686D03*
X890Y1586D03*
X890Y1486D03*
X890Y1386D03*
X890Y1286D03*
X890Y1186D03*
X890Y1086D03*
X890Y986D03*
X890Y886D03*
X890Y786D03*
X890Y686D03*
X890Y586D03*
X890Y486D03*
X890Y2186D03*
X890Y2086D03*
X890Y1986D03*
X890Y1886D03*
X890Y1786D03*
X890Y1686D03*
X890Y1586D03*
X890Y1486D03*
X890Y1386D03*
X890Y1286D03*
X890Y1186D03*
X890Y1086D03*
X890Y986D03*
X890Y886D03*
X890Y786D03*
X890Y686D03*
X890Y586D03*
X890Y486D03*
X990Y486D03*
X990Y586D03*
X990Y686D03*
X990Y786D03*
X990Y886D03*
X990Y986D03*
X990Y1086D03*
X990Y1186D03*
X990Y1286D03*
X990Y1386D03*
X990Y1486D03*
X990Y1586D03*
X990Y1686D03*
X990Y1786D03*
X990Y1886D03*
X990Y1986D03*
X990Y2086D03*
X990Y2186D03*
G54D12*
X375Y1894D03*
X350Y1894D03*
X325Y1894D03*
X300Y1894D03*
X300Y1683D03*
X325Y1683D03*
X350Y1683D03*
X375Y1683D03*
G54D13*
X1520Y2286D03*
X1520Y2261D03*
X1520Y2236D03*
X1520Y2211D03*
X1520Y2186D03*
X1520Y2161D03*
X1520Y2136D03*
X1520Y2111D03*
X1520Y2086D03*
X1520Y2061D03*
X1520Y2036D03*
X1520Y2011D03*
X1520Y1986D03*
X1520Y1961D03*
X1520Y1936D03*
X1520Y1911D03*
X1520Y1886D03*
X1520Y1861D03*
X1520Y1836D03*
X1520Y1811D03*
X1520Y1786D03*
X1520Y1761D03*
X1520Y1736D03*
X1520Y1711D03*
X1873Y1711D03*
X1873Y1736D03*
X1873Y1761D03*
X1873Y1786D03*
X1873Y1811D03*
X1873Y1836D03*
X1873Y1861D03*
X1873Y1886D03*
X1873Y1911D03*
X1873Y1936D03*
X1873Y1961D03*
X1873Y1986D03*
X1873Y2011D03*
X1873Y2036D03*
X1873Y2061D03*
X1873Y2086D03*
X1873Y2111D03*
X1873Y2136D03*
X1873Y2161D03*
X1873Y2186D03*
X1873Y2211D03*
X1873Y2236D03*
X1873Y2261D03*
X1873Y2286D03*
X1520Y1623D03*
X1520Y1598D03*
X1520Y1573D03*
X1520Y1548D03*
X1520Y1523D03*
X1520Y1498D03*
X1520Y1473D03*
X1520Y1448D03*
X1520Y1423D03*
X1520Y1398D03*
X1520Y1373D03*
X1520Y1348D03*
X1520Y1323D03*
X1520Y1298D03*
X1520Y1273D03*
X1520Y1248D03*
X1520Y1223D03*
X1520Y1198D03*
X1520Y1173D03*
X1520Y1148D03*
X1520Y1123D03*
X1520Y1098D03*
X1520Y1073D03*
X1520Y1048D03*
X1873Y1048D03*
X1873Y1073D03*
X1873Y1098D03*
X1873Y1123D03*
X1873Y1148D03*
X1873Y1173D03*
X1873Y1198D03*
X1873Y1223D03*
X1873Y1248D03*
X1873Y1273D03*
X1873Y1298D03*
X1873Y1323D03*
X1873Y1348D03*
X1873Y1373D03*
X1873Y1398D03*
X1873Y1423D03*
X1873Y1448D03*
X1873Y1473D03*
X1873Y1498D03*
X1873Y1523D03*
X1873Y1548D03*
X1873Y1573D03*
X1873Y1598D03*
X1873Y1623D03*
X1520Y960D03*
X1520Y935D03*
X1520Y910D03*
X1520Y885D03*
X1520Y860D03*
X1520Y835D03*
X1520Y810D03*
X1520Y785D03*
X1520Y760D03*
X1520Y735D03*
X1520Y710D03*
X1520Y685D03*
X1520Y660D03*
X1520Y635D03*
X1520Y610D03*
X1520Y585D03*
X1520Y560D03*
X1520Y535D03*
X1520Y510D03*
X1520Y485D03*
X1520Y460D03*
X1520Y435D03*
X1520Y410D03*
X1520Y385D03*
X1873Y385D03*
X1873Y410D03*
X1873Y435D03*
X1873Y460D03*
X1873Y485D03*
X1873Y510D03*
X1873Y535D03*
X1873Y560D03*
X1873Y585D03*
X1873Y610D03*
X1873Y635D03*
X1873Y660D03*
X1873Y685D03*
X1873Y710D03*
X1873Y735D03*
X1873Y760D03*
X1873Y785D03*
X1873Y810D03*
X1873Y835D03*
X1873Y860D03*
X1873Y885D03*
X1873Y910D03*
X1873Y935D03*
X1873Y960D03*
G54D14*
X350Y2647D02*
X1702Y2647D01*
D02*
X1702Y1623D02*
X1542Y1623D01*
D02*
X1702Y2647D02*
X1702Y1623D01*
D02*
X350Y1952D02*
X350Y2647D01*
D02*
X1702Y1048D02*
X1542Y1048D01*
D02*
X350Y2647D02*
X1702Y2647D01*
D02*
X1702Y2647D02*
X1702Y1048D01*
D02*
X350Y1952D02*
X350Y2647D01*
D02*
X300Y2002D02*
X300Y1952D01*
D02*
X263Y2002D02*
X300Y2002D01*
D02*
X375Y2002D02*
X375Y1952D01*
D02*
X394Y2002D02*
X375Y2002D01*
D02*
X300Y1574D02*
X300Y1625D01*
D02*
X263Y1574D02*
X300Y1574D01*
D02*
X375Y1575D02*
X375Y1625D01*
D02*
X394Y1575D02*
X375Y1575D01*
D02*
X1585Y810D02*
X1542Y810D01*
D02*
X1585Y1197D02*
X1542Y1198D01*
D02*
X1585Y1473D02*
X1542Y1473D01*
D02*
X1585Y1861D02*
X1542Y1861D01*
D02*
X1585Y2136D02*
X1542Y2136D01*
D02*
X1653Y2061D02*
X1542Y2061D01*
D02*
X1653Y2012D02*
X1653Y2061D01*
D02*
X1809Y535D02*
X1852Y535D01*
D02*
X1809Y810D02*
X1852Y810D01*
D02*
X1809Y1197D02*
X1851Y1198D01*
D02*
X1809Y1473D02*
X1851Y1473D01*
D02*
X1809Y1861D02*
X1851Y1861D01*
D02*
X1809Y2136D02*
X1851Y2136D01*
D02*
X1585Y535D02*
X1542Y535D01*
D02*
X1749Y1786D02*
X1851Y1786D01*
D02*
X1749Y1985D02*
X1749Y1786D01*
D02*
X1749Y1936D02*
X1851Y1936D01*
D02*
X1749Y1985D02*
X1749Y1936D01*
D02*
X1749Y2061D02*
X1851Y2061D01*
D02*
X1749Y2012D02*
X1749Y2061D01*
D02*
X1749Y2211D02*
X1851Y2211D01*
D02*
X1749Y2012D02*
X1749Y2211D01*
D02*
X1749Y2286D02*
X1851Y2286D01*
D02*
X1749Y2012D02*
X1749Y2286D01*
D02*
X1653Y1711D02*
X1542Y1711D01*
D02*
X1653Y1985D02*
X1653Y1711D01*
D02*
X1653Y1786D02*
X1542Y1786D01*
D02*
X1653Y1985D02*
X1653Y1786D01*
D02*
X1653Y1936D02*
X1542Y1936D01*
D02*
X1653Y1985D02*
X1653Y1936D01*
D02*
X1653Y2286D02*
X1542Y2286D01*
D02*
X1653Y2012D02*
X1653Y2286D01*
D02*
X1653Y2211D02*
X1542Y2211D01*
D02*
X1653Y2012D02*
X1653Y2211D01*
D02*
X1749Y1398D02*
X1851Y1398D01*
D02*
X1749Y1349D02*
X1749Y1398D01*
D02*
X1749Y1548D02*
X1851Y1548D01*
D02*
X1749Y1349D02*
X1749Y1548D01*
D02*
X1749Y1623D02*
X1851Y1623D01*
D02*
X1749Y1349D02*
X1749Y1623D01*
D02*
X1653Y1123D02*
X1542Y1123D01*
D02*
X1653Y1322D02*
X1653Y1123D01*
D02*
X1653Y1273D02*
X1542Y1273D01*
D02*
X1653Y1322D02*
X1653Y1273D01*
D02*
X1653Y1398D02*
X1542Y1398D01*
D02*
X1653Y1349D02*
X1653Y1398D01*
D02*
X1653Y1548D02*
X1542Y1548D01*
D02*
X1653Y1349D02*
X1653Y1548D01*
D02*
X1749Y1711D02*
X1851Y1711D01*
D02*
X1749Y1985D02*
X1749Y1711D01*
D02*
X1749Y960D02*
X1852Y960D01*
D02*
X1749Y686D02*
X1749Y960D01*
D02*
X1653Y385D02*
X1542Y385D01*
D02*
X1653Y659D02*
X1653Y385D01*
D02*
X1653Y460D02*
X1542Y460D01*
D02*
X1653Y659D02*
X1653Y460D01*
D02*
X1653Y610D02*
X1542Y610D01*
D02*
X1653Y659D02*
X1653Y610D01*
D02*
X1653Y735D02*
X1542Y735D01*
D02*
X1653Y686D02*
X1653Y735D01*
D02*
X1653Y885D02*
X1542Y885D01*
D02*
X1653Y686D02*
X1653Y885D01*
D02*
X1653Y960D02*
X1542Y960D01*
D02*
X1653Y686D02*
X1653Y960D01*
D02*
X1749Y1048D02*
X1851Y1048D01*
D02*
X1749Y1322D02*
X1749Y1048D01*
D02*
X1749Y1123D02*
X1851Y1123D01*
D02*
X1749Y1322D02*
X1749Y1123D01*
D02*
X1749Y1273D02*
X1851Y1273D01*
D02*
X1749Y1322D02*
X1749Y1273D01*
D02*
X1749Y385D02*
X1852Y385D01*
D02*
X1749Y659D02*
X1749Y385D01*
D02*
X1749Y460D02*
X1852Y460D01*
D02*
X1749Y659D02*
X1749Y460D01*
D02*
X1749Y610D02*
X1852Y610D01*
D02*
X1749Y659D02*
X1749Y610D01*
D02*
X1749Y735D02*
X1852Y735D01*
D02*
X1749Y686D02*
X1749Y735D01*
D02*
X1749Y885D02*
X1852Y885D01*
D02*
X1749Y686D02*
X1749Y885D01*
D02*
X1283Y835D02*
X1499Y835D01*
D02*
X1076Y340D02*
X1283Y835D01*
D02*
X744Y340D02*
X1076Y340D01*
D02*
X744Y886D02*
X744Y340D01*
D02*
X865Y886D02*
X744Y886D01*
D02*
X1269Y860D02*
X1499Y860D01*
D02*
X1061Y363D02*
X1269Y860D01*
D02*
X768Y363D02*
X1061Y363D01*
D02*
X768Y786D02*
X768Y363D01*
D02*
X865Y786D02*
X768Y786D01*
D02*
X1264Y910D02*
X1499Y910D01*
D02*
X1044Y387D02*
X1264Y910D01*
D02*
X792Y387D02*
X1044Y387D01*
D02*
X792Y686D02*
X792Y387D01*
D02*
X865Y686D02*
X792Y686D01*
D02*
X1249Y935D02*
X1499Y935D01*
D02*
X1028Y411D02*
X1249Y935D01*
D02*
X815Y411D02*
X1028Y411D01*
D02*
X815Y586D02*
X815Y411D01*
D02*
X865Y586D02*
X815Y586D01*
D02*
X1399Y485D02*
X1499Y485D01*
D02*
X1232Y104D02*
X1399Y485D01*
D02*
X96Y104D02*
X1232Y104D01*
D02*
X96Y1086D02*
X96Y104D01*
D02*
X263Y1086D02*
X96Y1086D01*
D02*
X1382Y510D02*
X1499Y510D01*
D02*
X1217Y127D02*
X1382Y510D01*
D02*
X119Y127D02*
X1217Y127D01*
D02*
X119Y986D02*
X119Y127D01*
D02*
X263Y986D02*
X119Y986D01*
D02*
X1376Y560D02*
X1499Y560D01*
D02*
X1200Y151D02*
X1376Y560D01*
D02*
X143Y151D02*
X1200Y151D01*
D02*
X143Y886D02*
X143Y151D01*
D02*
X263Y886D02*
X143Y886D01*
D02*
X1360Y585D02*
X1499Y585D01*
D02*
X1186Y174D02*
X1360Y585D01*
D02*
X167Y174D02*
X1186Y174D01*
D02*
X167Y786D02*
X167Y174D01*
D02*
X263Y786D02*
X167Y786D01*
D02*
X1353Y635D02*
X1499Y635D01*
D02*
X1169Y198D02*
X1353Y635D01*
D02*
X190Y198D02*
X1169Y198D01*
D02*
X190Y686D02*
X190Y198D01*
D02*
X263Y686D02*
X190Y686D01*
D02*
X1336Y660D02*
X1499Y660D01*
D02*
X1153Y222D02*
X1336Y660D01*
D02*
X214Y222D02*
X1153Y222D01*
D02*
X214Y586D02*
X214Y222D01*
D02*
X263Y586D02*
X214Y586D01*
D02*
X1321Y685D02*
X1499Y685D01*
D02*
X1139Y245D02*
X1321Y685D01*
D02*
X647Y245D02*
X1139Y245D01*
D02*
X647Y1286D02*
X647Y245D01*
D02*
X865Y1286D02*
X647Y1286D01*
D02*
X1307Y710D02*
X1499Y710D01*
D02*
X1124Y269D02*
X1307Y710D01*
D02*
X672Y269D02*
X1124Y269D01*
D02*
X672Y1186D02*
X672Y269D01*
D02*
X865Y1186D02*
X672Y1186D01*
D02*
X1301Y760D02*
X1499Y760D01*
D02*
X1110Y292D02*
X1301Y760D01*
D02*
X697Y292D02*
X1110Y292D01*
D02*
X697Y1086D02*
X697Y292D01*
D02*
X865Y1086D02*
X697Y1086D01*
D02*
X1288Y785D02*
X1499Y785D01*
D02*
X1093Y316D02*
X1288Y785D01*
D02*
X721Y316D02*
X1093Y316D01*
D02*
X721Y986D02*
X721Y316D01*
D02*
X865Y986D02*
X721Y986D01*
D02*
X2056Y685D02*
X1895Y685D01*
D02*
X2254Y245D02*
X2056Y685D01*
D02*
X2754Y245D02*
X2254Y245D01*
D02*
X2754Y1286D02*
X2754Y245D01*
D02*
X2537Y1286D02*
X2754Y1286D01*
D02*
X2071Y710D02*
X1895Y710D01*
D02*
X2269Y267D02*
X2071Y710D01*
D02*
X2731Y267D02*
X2269Y267D01*
D02*
X2731Y1186D02*
X2731Y267D01*
D02*
X2537Y1186D02*
X2731Y1186D01*
D02*
X2075Y760D02*
X1895Y760D01*
D02*
X2286Y291D02*
X2075Y760D01*
D02*
X2706Y291D02*
X2286Y291D01*
D02*
X2706Y1086D02*
X2706Y291D01*
D02*
X2537Y1086D02*
X2706Y1086D01*
D02*
X2304Y315D02*
X2089Y785D01*
D02*
X2089Y785D02*
X1895Y785D01*
D02*
X2682Y315D02*
X2304Y315D01*
D02*
X2682Y986D02*
X2682Y315D01*
D02*
X2537Y986D02*
X2682Y986D01*
D02*
X2096Y835D02*
X1895Y835D01*
D02*
X2321Y338D02*
X2096Y835D01*
D02*
X2657Y338D02*
X2321Y338D01*
D02*
X2657Y886D02*
X2657Y338D01*
D02*
X2537Y886D02*
X2657Y886D01*
D02*
X2113Y860D02*
X1895Y860D01*
D02*
X2339Y362D02*
X2113Y860D01*
D02*
X2633Y362D02*
X2339Y362D01*
D02*
X2633Y786D02*
X2633Y362D01*
D02*
X2537Y786D02*
X2633Y786D01*
D02*
X2118Y910D02*
X1895Y910D01*
D02*
X2356Y386D02*
X2118Y910D01*
D02*
X2610Y386D02*
X2356Y386D01*
D02*
X2610Y686D02*
X2610Y386D01*
D02*
X2537Y686D02*
X2610Y686D01*
D02*
X2586Y586D02*
X2586Y411D01*
D02*
X2586Y411D02*
X2372Y411D01*
D02*
X2372Y411D02*
X2132Y935D01*
D02*
X2132Y935D02*
X1895Y935D01*
D02*
X2537Y586D02*
X2586Y586D01*
D02*
X1424Y410D02*
X1499Y410D01*
D02*
X1269Y54D02*
X1424Y410D01*
D02*
X47Y54D02*
X1269Y54D01*
D02*
X47Y1286D02*
X47Y54D01*
D02*
X263Y1286D02*
X47Y1286D01*
D02*
X1406Y435D02*
X1499Y435D01*
D02*
X1251Y79D02*
X1406Y435D01*
D02*
X72Y79D02*
X1251Y79D01*
D02*
X72Y1186D02*
X72Y79D01*
D02*
X263Y1186D02*
X72Y1186D01*
D02*
X1958Y410D02*
X1895Y410D01*
D02*
X2114Y56D02*
X1958Y410D01*
D02*
X3347Y56D02*
X2114Y56D01*
D02*
X3347Y1286D02*
X3347Y56D01*
D02*
X3134Y1286D02*
X3347Y1286D01*
D02*
X1975Y435D02*
X1895Y435D01*
D02*
X2131Y80D02*
X1975Y435D01*
D02*
X3325Y80D02*
X2131Y80D01*
D02*
X3325Y1186D02*
X3325Y80D01*
D02*
X3134Y1186D02*
X3325Y1186D01*
D02*
X1979Y485D02*
X1895Y485D01*
D02*
X2147Y105D02*
X1979Y485D01*
D02*
X3301Y105D02*
X2147Y105D01*
D02*
X3301Y1086D02*
X3301Y105D01*
D02*
X3134Y1086D02*
X3301Y1086D01*
D02*
X1997Y510D02*
X1895Y510D01*
D02*
X2165Y129D02*
X1997Y510D01*
D02*
X3278Y129D02*
X2165Y129D01*
D02*
X3278Y986D02*
X3278Y129D01*
D02*
X3134Y986D02*
X3278Y986D01*
D02*
X2003Y560D02*
X1895Y560D01*
D02*
X2183Y152D02*
X2003Y560D01*
D02*
X3254Y152D02*
X2183Y152D01*
D02*
X3254Y886D02*
X3254Y152D01*
D02*
X3134Y886D02*
X3254Y886D01*
D02*
X2018Y585D02*
X1895Y585D01*
D02*
X2201Y176D02*
X2018Y585D01*
D02*
X3231Y176D02*
X2201Y176D01*
D02*
X3231Y786D02*
X3231Y176D01*
D02*
X3134Y786D02*
X3231Y786D01*
D02*
X2022Y635D02*
X1895Y635D01*
D02*
X2218Y199D02*
X2022Y635D01*
D02*
X3207Y199D02*
X2218Y199D01*
D02*
X3207Y686D02*
X3207Y199D01*
D02*
X3134Y686D02*
X3207Y686D01*
D02*
X2039Y660D02*
X1895Y660D01*
D02*
X2238Y222D02*
X2039Y660D01*
D02*
X3183Y222D02*
X2238Y222D01*
D02*
X3183Y586D02*
X3183Y222D01*
D02*
X3134Y586D02*
X3183Y586D01*
D02*
X1331Y1961D02*
X1498Y1961D01*
D02*
X1109Y2406D02*
X1331Y1961D01*
D02*
X670Y2406D02*
X1109Y2406D01*
D02*
X670Y1486D02*
X670Y2406D01*
D02*
X865Y1486D02*
X670Y1486D01*
D02*
X1327Y1911D02*
X1498Y1911D01*
D02*
X1096Y2382D02*
X1327Y1911D01*
D02*
X694Y2382D02*
X1096Y2382D01*
D02*
X694Y1586D02*
X694Y2382D01*
D02*
X865Y1586D02*
X694Y1586D01*
D02*
X1307Y1886D02*
X1498Y1886D01*
D02*
X1083Y2358D02*
X1307Y1886D01*
D02*
X719Y2358D02*
X1083Y2358D01*
D02*
X719Y1686D02*
X719Y2358D01*
D02*
X865Y1686D02*
X719Y1686D01*
D02*
X1298Y1836D02*
X1498Y1836D01*
D02*
X1070Y2334D02*
X1298Y1836D01*
D02*
X743Y2334D02*
X1070Y2334D01*
D02*
X743Y1786D02*
X743Y2334D01*
D02*
X865Y1786D02*
X743Y1786D01*
D02*
X1280Y1811D02*
X1498Y1811D01*
D02*
X1053Y2309D02*
X1280Y1811D01*
D02*
X767Y2310D02*
X1053Y2309D01*
D02*
X767Y1886D02*
X767Y2310D01*
D02*
X865Y1886D02*
X767Y1886D01*
D02*
X1273Y1761D02*
X1498Y1761D01*
D02*
X1038Y2287D02*
X1273Y1761D01*
D02*
X791Y2286D02*
X1038Y2287D01*
D02*
X791Y1986D02*
X791Y2286D01*
D02*
X865Y1986D02*
X791Y1986D01*
D02*
X1258Y1736D02*
X1498Y1736D01*
D02*
X1024Y2262D02*
X1258Y1736D01*
D02*
X815Y2261D02*
X1024Y2262D01*
D02*
X815Y2086D02*
X815Y2261D01*
D02*
X865Y2086D02*
X815Y2086D01*
D02*
X1436Y2186D02*
X1498Y2186D01*
D02*
X1200Y2574D02*
X1436Y2186D01*
D02*
X502Y2574D02*
X1200Y2574D01*
D02*
X502Y1086D02*
X502Y2574D01*
D02*
X412Y1086D02*
X502Y1086D01*
D02*
X1418Y2161D02*
X1498Y2161D01*
D02*
X1187Y2550D02*
X1418Y2161D01*
D02*
X526Y2550D02*
X1187Y2550D01*
D02*
X526Y986D02*
X526Y2550D01*
D02*
X412Y986D02*
X526Y986D01*
D02*
X1416Y2111D02*
X1498Y2111D01*
D02*
X1174Y2526D02*
X1416Y2111D01*
D02*
X550Y2526D02*
X1174Y2526D01*
D02*
X550Y886D02*
X550Y2526D01*
D02*
X412Y886D02*
X550Y886D01*
D02*
X1396Y2086D02*
X1498Y2086D01*
D02*
X1161Y2502D02*
X1396Y2086D01*
D02*
X574Y2502D02*
X1161Y2502D01*
D02*
X574Y786D02*
X574Y2502D01*
D02*
X412Y786D02*
X574Y786D01*
D02*
X1389Y2036D02*
X1498Y2036D01*
D02*
X1148Y2478D02*
X1389Y2036D01*
D02*
X598Y2478D02*
X1148Y2478D01*
D02*
X598Y686D02*
X598Y2478D01*
D02*
X412Y686D02*
X598Y686D01*
D02*
X1367Y2011D02*
X1498Y2011D01*
D02*
X1135Y2454D02*
X1367Y2011D01*
D02*
X622Y2454D02*
X1135Y2454D01*
D02*
X622Y586D02*
X622Y2454D01*
D02*
X412Y586D02*
X622Y586D01*
D02*
X646Y1386D02*
X646Y2430D01*
D02*
X646Y2430D02*
X1122Y2430D01*
D02*
X1122Y2430D02*
X1349Y1986D01*
D02*
X1349Y1986D02*
X1498Y1986D01*
D02*
X865Y1386D02*
X646Y1386D01*
D02*
X2048Y1986D02*
X1895Y1986D01*
D02*
X2224Y2428D02*
X2048Y1986D01*
D02*
X2756Y2428D02*
X2224Y2428D01*
D02*
X2756Y1382D02*
X2756Y2428D01*
D02*
X2537Y1385D02*
X2756Y1382D01*
D02*
X2066Y1961D02*
X1895Y1961D01*
D02*
X2246Y2404D02*
X2066Y1961D01*
D02*
X2731Y2404D02*
X2246Y2404D01*
D02*
X2731Y1486D02*
X2731Y2404D01*
D02*
X2537Y1486D02*
X2731Y1486D01*
D02*
X2071Y1911D02*
X1895Y1911D01*
D02*
X2267Y2380D02*
X2071Y1911D01*
D02*
X2707Y2380D02*
X2267Y2380D01*
D02*
X2707Y1586D02*
X2707Y2380D01*
D02*
X2537Y1586D02*
X2707Y1586D01*
D02*
X2089Y1887D02*
X1895Y1886D01*
D02*
X2289Y2356D02*
X2089Y1887D01*
D02*
X2683Y2356D02*
X2289Y2356D01*
D02*
X2683Y1686D02*
X2683Y2356D01*
D02*
X2537Y1686D02*
X2683Y1686D01*
D02*
X2093Y1836D02*
X1895Y1836D01*
D02*
X2311Y2332D02*
X2093Y1836D01*
D02*
X2659Y2332D02*
X2311Y2332D01*
D02*
X2659Y1786D02*
X2659Y2332D01*
D02*
X2537Y1786D02*
X2659Y1786D01*
D02*
X2109Y1809D02*
X1895Y1811D01*
D02*
X2331Y2308D02*
X2109Y1809D01*
D02*
X2635Y2308D02*
X2331Y2308D01*
D02*
X2635Y1886D02*
X2635Y2308D01*
D02*
X2537Y1886D02*
X2635Y1886D01*
D02*
X2116Y1762D02*
X1895Y1761D01*
D02*
X2353Y2284D02*
X2116Y1762D01*
D02*
X2611Y2284D02*
X2353Y2284D01*
D02*
X2611Y1986D02*
X2611Y2284D01*
D02*
X2537Y1986D02*
X2611Y1986D01*
D02*
X2131Y1736D02*
X1895Y1736D01*
D02*
X2374Y2260D02*
X2131Y1736D01*
D02*
X2587Y2260D02*
X2374Y2260D01*
D02*
X2587Y2086D02*
X2587Y2260D01*
D02*
X2537Y2086D02*
X2587Y2086D01*
D02*
X1456Y2261D02*
X1498Y2261D01*
D02*
X1226Y2623D02*
X1456Y2261D01*
D02*
X454Y2623D02*
X1226Y2623D01*
D02*
X454Y1286D02*
X454Y2623D01*
D02*
X412Y1286D02*
X454Y1286D01*
D02*
X1438Y2236D02*
X1498Y2236D01*
D02*
X1213Y2598D02*
X1438Y2236D01*
D02*
X478Y2598D02*
X1213Y2598D01*
D02*
X478Y1186D02*
X478Y2598D01*
D02*
X412Y1186D02*
X478Y1186D01*
D02*
X1927Y2261D02*
X1895Y2261D01*
D02*
X2044Y2623D02*
X1927Y2261D01*
D02*
X2948Y2623D02*
X2044Y2623D01*
D02*
X2948Y1286D02*
X2948Y2623D01*
D02*
X2985Y1286D02*
X2948Y1286D01*
D02*
X1944Y2236D02*
X1895Y2236D01*
D02*
X2066Y2598D02*
X1944Y2236D01*
D02*
X2924Y2598D02*
X2066Y2598D01*
D02*
X2924Y1186D02*
X2924Y2598D01*
D02*
X2985Y1186D02*
X2924Y1186D01*
D02*
X1955Y2186D02*
X1895Y2186D01*
D02*
X2088Y2574D02*
X1955Y2186D01*
D02*
X2900Y2574D02*
X2088Y2574D01*
D02*
X2900Y1086D02*
X2900Y2574D01*
D02*
X2985Y1086D02*
X2900Y1086D01*
D02*
X1977Y2161D02*
X1895Y2161D01*
D02*
X2112Y2550D02*
X1977Y2161D01*
D02*
X2876Y2550D02*
X2112Y2550D01*
D02*
X2876Y986D02*
X2876Y2550D01*
D02*
X2985Y986D02*
X2876Y986D01*
D02*
X1987Y2111D02*
X1895Y2111D01*
D02*
X2136Y2526D02*
X1987Y2111D01*
D02*
X2852Y2526D02*
X2136Y2526D01*
D02*
X2852Y886D02*
X2852Y2526D01*
D02*
X2985Y886D02*
X2852Y886D01*
D02*
X2007Y2086D02*
X1895Y2086D01*
D02*
X2158Y2500D02*
X2007Y2086D01*
D02*
X2828Y2500D02*
X2158Y2500D01*
D02*
X2828Y786D02*
X2828Y2500D01*
D02*
X2985Y786D02*
X2828Y786D01*
D02*
X2016Y2036D02*
X1895Y2036D01*
D02*
X2180Y2476D02*
X2016Y2036D01*
D02*
X2804Y2476D02*
X2180Y2476D01*
D02*
X2804Y686D02*
X2804Y2476D01*
D02*
X2985Y686D02*
X2804Y686D01*
D02*
X2033Y2011D02*
X1895Y2011D01*
D02*
X2202Y2452D02*
X2033Y2011D01*
D02*
X2780Y2452D02*
X2202Y2452D01*
D02*
X2780Y586D02*
X2780Y2452D01*
D02*
X2985Y586D02*
X2780Y586D01*
D02*
X3109Y2672D02*
X324Y2672D01*
D02*
X324Y2672D02*
X325Y1952D01*
D02*
X3109Y1410D02*
X3109Y2672D01*
D02*
X3009Y2647D02*
X349Y2647D01*
D02*
X349Y2647D02*
X350Y1952D01*
D02*
X3009Y1410D02*
X3009Y2647D01*
D02*
X324Y1516D02*
X325Y1625D01*
D02*
X349Y1516D02*
X350Y1625D01*
D02*
X294Y1409D02*
X324Y1516D01*
D02*
X380Y1409D02*
X349Y1516D01*
D02*
X1312Y1598D02*
X1498Y1598D01*
D02*
X1003Y2065D02*
X1312Y1598D01*
D02*
X1301Y1573D02*
X1498Y1573D01*
D02*
X1005Y1966D02*
X1301Y1573D01*
D02*
X1282Y1523D02*
X1498Y1523D01*
D02*
X1005Y1866D02*
X1282Y1523D01*
D02*
X1273Y1498D02*
X1498Y1498D01*
D02*
X1007Y1768D02*
X1273Y1498D01*
D02*
X1251Y1448D02*
X1498Y1448D01*
D02*
X1008Y1669D02*
X1251Y1448D01*
D02*
X1242Y1423D02*
X1498Y1423D01*
D02*
X1010Y1572D02*
X1242Y1423D01*
D02*
X1242Y1373D02*
X1498Y1373D01*
D02*
X1012Y1476D02*
X1242Y1373D01*
D02*
X1242Y1348D02*
X1498Y1348D01*
D02*
X1014Y1382D02*
X1242Y1348D01*
D02*
X1242Y1323D02*
X1498Y1323D01*
D02*
X1014Y1289D02*
X1242Y1323D01*
D02*
X1242Y1298D02*
X1498Y1298D01*
D02*
X1012Y1196D02*
X1242Y1298D01*
D02*
X1242Y1248D02*
X1498Y1248D01*
D02*
X1010Y1099D02*
X1242Y1248D01*
D02*
X1251Y1223D02*
X1498Y1223D01*
D02*
X1008Y1002D02*
X1251Y1223D01*
D02*
X1273Y1173D02*
X1498Y1173D01*
D02*
X1007Y903D02*
X1273Y1173D01*
D02*
X1282Y1148D02*
X1498Y1148D01*
D02*
X1005Y805D02*
X1282Y1148D01*
D02*
X1301Y1098D02*
X1498Y1098D01*
D02*
X1005Y705D02*
X1301Y1098D01*
D02*
X1313Y1073D02*
X1498Y1073D01*
D02*
X1003Y606D02*
X1313Y1073D01*
D02*
X2067Y1598D02*
X1895Y1598D01*
D02*
X2398Y2065D02*
X2067Y1598D01*
D02*
X2076Y1573D02*
X1895Y1573D01*
D02*
X2397Y1966D02*
X2076Y1573D01*
D02*
X2098Y1523D02*
X1895Y1523D01*
D02*
X2396Y1867D02*
X2098Y1523D01*
D02*
X2107Y1498D02*
X1895Y1498D01*
D02*
X2394Y1769D02*
X2107Y1498D01*
D02*
X2127Y1448D02*
X1895Y1448D01*
D02*
X2393Y1670D02*
X2127Y1448D01*
D02*
X2138Y1423D02*
X1895Y1423D01*
D02*
X2391Y1573D02*
X2138Y1423D01*
D02*
X2138Y1373D02*
X1895Y1373D01*
D02*
X2389Y1476D02*
X2138Y1373D01*
D02*
X2138Y1348D02*
X1895Y1348D01*
D02*
X2388Y1382D02*
X2138Y1348D01*
D02*
X2138Y1323D02*
X1895Y1323D01*
D02*
X2388Y1289D02*
X2138Y1323D01*
D02*
X2138Y1298D02*
X1895Y1298D01*
D02*
X2389Y1195D02*
X2138Y1298D01*
D02*
X2138Y1248D02*
X1895Y1248D01*
D02*
X2391Y1098D02*
X2138Y1248D01*
D02*
X2128Y1223D02*
X1895Y1223D01*
D02*
X2393Y1001D02*
X2128Y1223D01*
D02*
X2107Y1173D02*
X1895Y1173D01*
D02*
X2394Y902D02*
X2107Y1173D01*
D02*
X2098Y1148D02*
X1895Y1148D01*
D02*
X2396Y804D02*
X2098Y1148D01*
D02*
X2076Y1098D02*
X1895Y1098D01*
D02*
X2397Y705D02*
X2076Y1098D01*
D02*
X2067Y1073D02*
X1895Y1073D01*
D02*
X2398Y606D02*
X2067Y1073D01*
G04 End of Copper1*
M02*